<?xml version="1.0" encoding="UTF-8" standalone="no"?>
<svg
   xmlns:dc="http://purl.org/dc/elements/1.1/"
   xmlns:cc="http://creativecommons.org/ns#"
   xmlns:rdf="http://www.w3.org/1999/02/22-rdf-syntax-ns#"
   xmlns:svg="http://www.w3.org/2000/svg"
   xmlns="http://www.w3.org/2000/svg"
   xmlns:sodipodi="http://sodipodi.sourceforge.net/DTD/sodipodi-0.dtd"
   xmlns:inkscape="http://www.inkscape.org/namespaces/inkscape"
   width="232pt"
   height="232pt"
   viewBox="0 0 232 232"
   version="1.1"
   id="svg2"
   inkscape:version="0.48.4 r9939"
   sodipodi:docname="familyelement_low.svg">
  <metadata
     id="metadata194">
    <rdf:RDF>
      <cc:Work
         rdf:about="">
        <dc:format>image/svg+xml</dc:format>
        <dc:type
           rdf:resource="http://purl.org/dc/dcmitype/StillImage" />
      </cc:Work>
    </rdf:RDF>
  </metadata>
  <defs
     id="defs192" />
  <sodipodi:namedview
     pagecolor="#ffffff"
     bordercolor="#666666"
     borderopacity="1"
     objecttolerance="10"
     gridtolerance="10"
     guidetolerance="10"
     inkscape:pageopacity="0"
     inkscape:pageshadow="2"
     inkscape:window-width="640"
     inkscape:window-height="480"
     id="namedview190"
     showgrid="false"
     inkscape:zoom="0.8137931"
     inkscape:cx="145"
     inkscape:cy="145"
     inkscape:window-x="0"
     inkscape:window-y="0"
     inkscape:window-maximized="0"
     inkscape:current-layer="svg2" />
  <path
     fill="#fffffe"
     d=" M 0.00 0.00 L 232.00 0.00 L 232.00 232.00 L 0.00 232.00 L 0.00 0.00 Z"
     id="path4" />
  <path
     fill="#1d4a9b"
     d=" M 101.88 10.94 C 103.71 6.60 108.54 4.74 113.00 5.03 C 119.13 5.06 127.41 3.77 130.80 10.34 C 133.13 16.83 132.40 24.03 134.54 30.59 C 136.48 35.34 141.32 37.63 145.90 39.12 C 151.24 40.84 156.17 44.68 162.04 44.02 C 165.17 43.97 167.60 41.81 169.99 40.07 C 173.25 37.62 176.47 35.09 179.84 32.79 C 183.21 30.42 188.21 30.89 191.05 33.87 C 194.31 37.01 197.58 40.16 200.66 43.47 C 203.30 46.29 203.33 50.94 201.24 54.07 C 197.91 59.04 193.81 63.48 190.72 68.60 C 188.31 74.07 191.27 79.70 193.43 84.69 C 195.86 89.94 196.99 96.79 202.97 99.27 C 209.19 101.30 215.93 101.03 222.26 102.63 C 225.83 103.70 228.43 107.21 228.67 110.89 C 229.10 115.49 229.11 120.16 228.60 124.75 C 228.23 128.50 225.18 131.64 221.60 132.55 C 215.43 133.97 208.88 133.61 202.90 135.79 C 197.48 138.05 196.01 144.12 193.94 149.02 C 191.85 154.47 188.10 160.26 190.67 166.25 C 194.00 171.80 198.56 176.53 201.95 182.04 C 203.20 185.15 202.88 189.02 200.53 191.54 C 197.12 195.30 193.57 198.97 189.66 202.21 C 186.54 204.70 182.25 203.65 178.96 202.09 C 176.37 199.23 172.97 197.32 169.99 194.91 C 167.87 193.42 165.84 191.53 163.18 191.13 C 158.00 189.80 153.30 192.96 148.64 194.67 C 143.39 196.91 136.79 198.50 134.54 204.45 C 132.82 210.14 132.72 216.17 131.66 222.01 C 130.97 226.07 127.30 229.51 123.15 229.74 C 118.73 230.15 114.26 230.19 109.84 229.73 C 105.74 229.50 101.98 226.20 101.36 222.12 C 100.25 216.26 100.10 210.22 98.48 204.47 C 96.40 198.75 90.13 197.05 85.06 194.99 C 79.60 192.88 73.74 189.18 67.75 191.69 C 62.10 194.85 57.56 199.68 51.94 202.86 C 47.12 203.68 41.80 202.01 38.46 198.36 C 35.51 195.36 32.28 192.51 30.03 188.94 C 28.49 183.67 32.88 179.47 35.64 175.55 C 38.90 170.81 44.25 166.30 43.01 159.89 C 41.83 154.29 38.81 149.27 36.91 143.89 C 35.61 139.94 32.68 136.42 28.59 135.21 C 23.18 133.96 17.62 133.63 12.15 132.72 C 8.03 132.03 4.42 128.37 4.27 124.11 C 3.94 119.45 3.82 114.74 4.37 110.10 C 4.75 106.93 7.14 104.27 9.90 102.86 C 16.49 100.96 23.62 101.50 30.10 99.16 C 35.16 97.08 36.75 91.47 38.67 86.88 C 40.83 81.11 44.88 75.04 42.29 68.70 C 39.44 63.69 35.45 59.44 32.19 54.70 C 29.49 51.34 29.65 45.84 32.86 42.85 C 35.83 39.82 38.84 36.83 41.85 33.83 C 44.68 30.78 49.76 30.43 53.14 32.77 C 57.49 35.69 61.46 39.15 65.78 42.12 C 69.25 44.62 74.09 44.59 77.91 42.92 C 82.58 40.90 87.35 39.13 92.01 37.09 C 95.38 35.62 98.08 32.58 98.94 28.98 C 100.32 23.04 100.26 16.83 101.88 10.94 Z"
     id="path6"
     style="color:#000000;fill:#87de87;fill-opacity:1;fill-rule:nonzero;stroke-width:1;stroke-linecap:butt;stroke-linejoin:miter;stroke-miterlimit:4;stroke-opacity:1;stroke-dasharray:none;stroke-dashoffset:0;marker:none;visibility:visible;display:inline;overflow:visible;enable-background:accumulate" />
  <path
     fill="#fffffe"
     d=" M 104.02 50.49 C 115.99 47.84 128.36 50.28 139.92 53.70 C 154.12 58.62 166.48 68.11 175.26 80.27 C 174.34 81.50 173.67 82.87 173.24 84.35 C 174.56 83.93 175.90 83.52 177.23 83.10 C 181.96 92.37 186.38 102.41 185.76 113.06 C 185.57 118.36 186.33 123.82 184.73 128.97 C 183.76 132.98 182.56 136.95 180.84 140.72 C 172.85 159.10 156.00 172.52 137.10 178.44 C 131.15 179.78 125.18 181.54 119.02 181.35 C 115.00 181.31 110.97 181.45 106.95 181.26 C 89.03 179.32 71.66 170.95 59.66 157.38 C 56.00 153.28 53.18 148.55 50.21 143.95 C 51.12 143.73 52.93 143.29 53.83 143.07 C 53.79 144.13 53.69 146.25 53.64 147.31 C 54.48 147.16 56.17 146.86 57.01 146.71 C 58.92 146.60 61.42 147.96 62.98 146.74 C 64.80 143.95 60.59 144.56 58.96 144.11 C 59.01 143.96 59.13 143.65 59.19 143.49 C 60.51 143.06 63.58 144.25 63.18 142.00 C 62.03 140.41 59.60 141.64 57.95 141.22 C 57.53 142.78 57.11 144.34 56.55 145.86 C 56.53 144.74 56.48 142.50 56.45 141.39 C 54.59 141.36 52.72 141.32 50.85 141.28 C 50.69 141.95 50.37 143.28 50.21 143.95 C 49.10 141.19 49.42 138.18 50.54 135.48 C 50.64 137.26 50.71 139.04 50.76 140.82 L 52.50 140.10 C 52.59 139.89 52.77 139.47 52.86 139.26 C 52.70 138.99 52.38 138.44 52.23 138.17 C 53.02 137.56 53.82 136.95 54.61 136.34 C 54.67 137.64 54.69 138.95 54.67 140.25 C 57.56 139.29 60.55 140.13 63.46 140.44 C 63.38 139.66 63.22 138.12 63.15 137.35 C 60.70 137.56 58.08 137.49 56.17 139.34 C 56.34 137.71 56.50 136.08 56.66 134.45 C 53.30 134.58 49.93 134.55 46.57 134.59 C 41.91 120.41 42.87 104.72 48.64 91.00 C 56.32 73.31 72.04 60.07 89.99 53.57 C 90.66 53.43 91.99 53.16 92.66 53.02 C 96.32 51.67 100.14 50.83 104.02 50.49 Z"
     id="path8" />
  <path
     fill="#1d4a9b"
     d=" M 156.14 81.48 C 159.44 81.50 162.74 81.56 166.04 81.48 C 165.81 82.37 165.58 83.26 165.35 84.16 C 162.82 83.50 159.93 83.00 157.61 84.54 C 157.11 83.52 156.62 82.50 156.14 81.48 Z"
     id="path10"
     style="color:#000000;fill:#87de87;fill-opacity:1;fill-rule:nonzero;stroke-width:1;stroke-linecap:butt;stroke-linejoin:miter;stroke-miterlimit:4;stroke-opacity:1;stroke-dasharray:none;stroke-dashoffset:0;marker:none;visibility:visible;display:inline;overflow:visible;enable-background:accumulate" />
  <path
     fill="#1d4a9b"
     d=" M 166.40 83.72 C 165.90 80.10 170.02 81.69 172.16 81.58 C 172.29 82.11 172.55 83.17 172.68 83.71 C 170.59 83.69 168.49 83.70 166.40 83.72 Z"
     id="path12"
     style="color:#000000;fill:#87de87;fill-opacity:1;fill-rule:nonzero;stroke-width:1;stroke-linecap:butt;stroke-linejoin:miter;stroke-miterlimit:4;stroke-opacity:1;stroke-dasharray:none;stroke-dashoffset:0;marker:none;visibility:visible;display:inline;overflow:visible;enable-background:accumulate" />
  <path
     fill="#1d4a9b"
     d=" M 155.79 85.42 C 159.17 85.24 162.67 85.87 165.91 84.56 C 165.91 85.53 165.93 86.50 165.95 87.47 C 163.40 86.19 160.47 86.34 157.89 87.38 C 157.18 86.73 156.48 86.07 155.79 85.42 Z"
     id="path14"
     style="color:#000000;fill:#87de87;fill-opacity:1;fill-rule:nonzero;stroke-width:1;stroke-linecap:butt;stroke-linejoin:miter;stroke-miterlimit:4;stroke-opacity:1;stroke-dasharray:none;stroke-dashoffset:0;marker:none;visibility:visible;display:inline;overflow:visible;enable-background:accumulate" />
  <path
     fill="#1d4a9b"
     d=" M 167.03 87.53 C 167.05 86.50 167.06 85.47 167.08 84.43 C 170.10 85.67 173.39 85.36 176.57 85.56 C 173.89 87.70 170.00 85.81 167.03 87.53 Z"
     id="path16"
     style="color:#000000;fill:#87de87;fill-opacity:1;fill-rule:nonzero;stroke-width:1;stroke-linecap:butt;stroke-linejoin:miter;stroke-miterlimit:4;stroke-opacity:1;stroke-dasharray:none;stroke-dashoffset:0;marker:none;visibility:visible;display:inline;overflow:visible;enable-background:accumulate" />
  <path
     fill="#1d4a9b"
     d=" M 163.60 91.87 C 163.53 90.35 163.56 88.83 163.70 87.32 C 166.78 87.67 165.21 91.18 165.83 93.17 C 167.36 91.90 166.56 89.88 166.85 88.21 C 168.65 87.86 170.47 87.68 172.29 87.46 C 172.32 89.45 172.36 91.45 172.46 93.45 C 170.04 93.41 167.62 93.39 165.21 93.29 C 165.71 96.95 166.12 100.64 166.05 104.34 C 163.68 104.20 161.30 103.92 159.00 103.31 C 159.10 104.48 158.97 105.62 158.63 106.72 L 157.95 107.05 C 156.43 107.69 159.17 108.07 159.02 109.02 C 159.37 110.64 159.20 112.32 159.27 113.97 C 158.53 113.76 157.05 113.35 156.30 113.15 C 156.42 111.22 156.53 109.17 155.44 107.48 C 152.02 105.17 147.15 107.44 143.18 106.97 C 141.49 103.92 146.00 103.64 147.62 105.23 C 147.26 104.23 146.53 102.24 146.17 101.25 C 147.72 101.06 149.26 101.13 150.81 101.46 C 150.20 100.08 149.66 98.68 149.20 97.25 C 150.45 97.66 152.96 98.49 154.21 98.90 C 153.75 97.82 152.82 95.66 152.36 94.58 C 153.84 94.64 155.33 94.72 156.82 94.81 C 155.16 92.63 157.19 89.36 159.58 91.43 C 160.92 91.56 162.26 91.70 163.60 91.87 Z"
     id="path18"
     style="color:#000000;fill:#87de87;fill-opacity:1;fill-rule:nonzero;stroke-width:1;stroke-linecap:butt;stroke-linejoin:miter;stroke-miterlimit:4;stroke-opacity:1;stroke-dasharray:none;stroke-dashoffset:0;marker:none;visibility:visible;display:inline;overflow:visible;enable-background:accumulate" />
  <path
     fill="#1d4a9b"
     d=" M 173.85 87.00 C 176.66 88.07 175.27 91.35 175.70 93.59 L 173.49 93.36 C 173.60 91.24 173.72 89.12 173.85 87.00 Z"
     id="path20"
     style="color:#000000;fill:#87de87;fill-opacity:1;fill-rule:nonzero;stroke-width:1;stroke-linecap:butt;stroke-linejoin:miter;stroke-miterlimit:4;stroke-opacity:1;stroke-dasharray:none;stroke-dashoffset:0;marker:none;visibility:visible;display:inline;overflow:visible;enable-background:accumulate" />
  <path
     fill="#1d4a9b"
     d=" M 64.79 90.28 C 65.42 90.85 66.05 91.43 66.69 92.00 C 67.55 91.46 68.42 90.91 69.29 90.37 C 69.37 90.69 69.52 91.34 69.60 91.67 C 72.61 91.42 75.63 91.45 78.64 91.22 C 80.84 91.24 83.17 91.86 85.21 90.73 C 85.58 91.08 86.34 91.79 86.72 92.14 C 86.51 94.30 86.39 96.47 86.11 98.63 C 88.20 98.34 90.31 98.13 92.41 97.84 C 92.35 98.60 92.23 100.12 92.17 100.88 C 93.33 100.81 94.49 100.75 95.66 100.69 C 95.47 100.58 95.10 100.35 94.92 100.24 C 94.11 99.41 93.61 98.39 93.43 97.19 C 97.83 97.26 96.21 101.70 96.23 104.45 C 94.78 104.48 93.33 104.38 91.91 104.08 C 90.28 103.67 90.81 101.54 90.47 100.33 C 87.93 100.65 85.35 100.57 82.81 100.29 C 82.65 100.61 82.31 101.23 82.15 101.55 C 81.37 101.03 80.60 100.51 79.82 100.00 C 79.44 100.39 78.67 101.18 78.29 101.58 C 78.07 101.23 77.64 100.53 77.42 100.17 C 75.25 100.57 72.94 100.43 70.94 101.51 C 70.89 100.43 70.85 99.34 70.80 98.25 C 72.36 98.26 74.01 98.35 75.38 97.44 C 74.26 97.54 72.01 97.73 70.88 97.82 C 70.82 96.41 70.79 95.00 70.78 93.60 C 69.23 93.62 67.68 93.59 66.13 93.52 C 66.33 94.99 66.51 96.48 66.65 97.96 C 65.95 97.81 64.56 97.50 63.86 97.35 C 63.95 96.05 64.08 94.76 64.26 93.47 C 62.58 93.59 60.91 93.65 59.23 93.68 C 59.21 93.90 59.15 94.35 59.12 94.57 C 60.52 94.45 61.93 94.38 63.33 94.35 C 63.38 95.18 63.46 96.85 63.51 97.68 C 61.51 97.66 59.51 97.69 57.51 97.60 C 57.35 95.53 57.35 93.46 57.40 91.39 C 59.69 91.27 61.99 91.36 64.26 91.72 C 64.39 91.36 64.66 90.64 64.79 90.28 Z"
     id="path22"
     style="color:#000000;fill:#87de87;fill-opacity:1;fill-rule:nonzero;stroke-width:1;stroke-linecap:butt;stroke-linejoin:miter;stroke-miterlimit:4;stroke-opacity:1;stroke-dasharray:none;stroke-dashoffset:0;marker:none;visibility:visible;display:inline;overflow:visible;enable-background:accumulate" />
  <path
     fill="#1d4a9b"
     d=" M 103.31 91.96 C 103.90 91.38 104.50 90.80 105.10 90.22 C 105.35 90.70 105.86 91.67 106.11 92.15 C 106.50 91.77 107.27 91.02 107.66 90.64 C 109.15 90.72 110.64 90.77 112.13 90.92 C 113.22 93.37 112.33 96.17 112.37 98.76 C 112.70 98.76 113.36 98.77 113.68 98.78 C 113.54 97.45 113.43 96.12 113.36 94.78 C 114.12 94.69 115.65 94.51 116.42 94.41 C 116.35 95.43 116.20 97.45 116.12 98.46 C 116.85 98.16 118.30 97.57 119.02 97.27 C 119.12 97.77 119.31 98.75 119.41 99.24 C 119.27 100.78 119.25 102.32 119.35 103.87 C 117.38 104.13 115.40 104.13 113.42 104.19 C 113.44 103.26 113.48 101.40 113.50 100.47 C 115.12 100.63 116.74 100.71 118.37 100.71 C 116.41 100.22 114.38 100.12 112.38 99.88 C 112.46 101.29 112.53 102.71 112.60 104.12 C 110.63 103.90 108.67 104.02 106.71 104.24 C 106.75 103.24 106.82 101.26 106.86 100.26 C 108.15 100.63 109.43 101.00 110.72 101.37 L 111.10 100.40 C 109.78 100.18 107.54 101.00 107.16 99.20 C 108.31 98.77 109.48 98.39 110.67 98.06 C 110.73 96.51 110.76 94.96 110.80 93.41 C 108.47 93.53 106.13 93.60 103.80 93.71 C 104.46 94.02 105.77 94.62 106.43 94.93 C 106.15 99.01 106.25 103.10 106.04 107.19 C 103.58 108.19 103.01 106.03 103.53 104.14 C 103.50 103.68 103.44 102.76 103.41 102.30 C 103.46 101.36 103.50 100.42 103.52 99.48 C 103.53 96.97 103.51 94.46 103.31 91.96 Z"
     id="path24"
     style="color:#000000;fill:#87de87;fill-opacity:1;fill-rule:nonzero;stroke-width:1;stroke-linecap:butt;stroke-linejoin:miter;stroke-miterlimit:4;stroke-opacity:1;stroke-dasharray:none;stroke-dashoffset:0;marker:none;visibility:visible;display:inline;overflow:visible;enable-background:accumulate" />
  <path
     fill="#1d4a9b"
     d=" M 54.38 91.79 C 56.06 91.28 56.62 91.82 56.08 93.43 C 54.40 93.95 53.84 93.40 54.38 91.79 Z"
     id="path26"
     style="color:#000000;fill:#87de87;fill-opacity:1;fill-rule:nonzero;stroke-width:1;stroke-linecap:butt;stroke-linejoin:miter;stroke-miterlimit:4;stroke-opacity:1;stroke-dasharray:none;stroke-dashoffset:0;marker:none;visibility:visible;display:inline;overflow:visible;enable-background:accumulate" />
  <path
     fill="#1d4a9b"
     d=" M 87.51 92.12 C 90.66 90.63 87.62 95.52 87.51 92.12 Z"
     id="path28"
     style="color:#000000;fill:#87de87;fill-opacity:1;fill-rule:nonzero;stroke-width:1;stroke-linecap:butt;stroke-linejoin:miter;stroke-miterlimit:4;stroke-opacity:1;stroke-dasharray:none;stroke-dashoffset:0;marker:none;visibility:visible;display:inline;overflow:visible;enable-background:accumulate" />
  <path
     fill="#1d4a9b"
     d=" M 50.41 94.71 C 52.39 94.55 54.37 94.31 56.36 94.22 C 56.52 96.20 56.68 98.17 56.83 100.15 C 53.29 99.25 49.15 101.93 46.21 99.28 C 46.89 98.79 48.25 97.80 48.93 97.31 C 49.44 97.78 50.47 98.71 50.99 99.17 C 50.80 97.68 50.60 96.20 50.41 94.71 Z"
     id="path30"
     style="color:#000000;fill:#87de87;fill-opacity:1;fill-rule:nonzero;stroke-width:1;stroke-linecap:butt;stroke-linejoin:miter;stroke-miterlimit:4;stroke-opacity:1;stroke-dasharray:none;stroke-dashoffset:0;marker:none;visibility:visible;display:inline;overflow:visible;enable-background:accumulate" />
  <path
     fill="#1d4a9b"
     d=" M 67.40 98.39 C 67.57 96.97 65.55 94.44 68.01 94.22 C 72.11 93.69 69.80 98.45 70.11 100.86 C 69.18 100.71 67.33 100.40 66.40 100.25 C 65.85 100.72 65.30 101.19 64.76 101.66 C 64.63 101.28 64.38 100.51 64.26 100.12 C 62.20 100.49 60.12 100.80 58.10 101.38 C 57.72 100.34 57.34 99.30 56.98 98.26 C 59.08 98.26 61.18 98.27 63.28 98.35 C 64.65 98.36 66.02 98.41 67.40 98.39 Z"
     id="path32"
     style="color:#000000;fill:#87de87;fill-opacity:1;fill-rule:nonzero;stroke-width:1;stroke-linecap:butt;stroke-linejoin:miter;stroke-miterlimit:4;stroke-opacity:1;stroke-dasharray:none;stroke-dashoffset:0;marker:none;visibility:visible;display:inline;overflow:visible;enable-background:accumulate" />
  <path
     fill="#1d4a9b"
     d=" M 89.32 97.41 C 86.74 98.29 86.72 93.71 89.31 94.59 C 90.19 95.53 90.19 96.47 89.32 97.41 Z"
     id="path34"
     style="color:#000000;fill:#87de87;fill-opacity:1;fill-rule:nonzero;stroke-width:1;stroke-linecap:butt;stroke-linejoin:miter;stroke-miterlimit:4;stroke-opacity:1;stroke-dasharray:none;stroke-dashoffset:0;marker:none;visibility:visible;display:inline;overflow:visible;enable-background:accumulate" />
  <path
     fill="#1d4a9b"
     d=" M 91.49 97.47 C 90.48 96.49 90.51 95.56 91.58 94.68 C 93.19 95.67 93.16 96.61 91.49 97.47 Z"
     id="path36"
     style="color:#000000;fill:#87de87;fill-opacity:1;fill-rule:nonzero;stroke-width:1;stroke-linecap:butt;stroke-linejoin:miter;stroke-miterlimit:4;stroke-opacity:1;stroke-dasharray:none;stroke-dashoffset:0;marker:none;visibility:visible;display:inline;overflow:visible;enable-background:accumulate" />
  <path
     fill="#1d4a9b"
     d=" M 106.84 96.11 C 107.22 95.75 107.98 95.03 108.36 94.67 C 110.70 95.66 107.57 98.60 106.84 96.11 Z"
     id="path38"
     style="color:#000000;fill:#87de87;fill-opacity:1;fill-rule:nonzero;stroke-width:1;stroke-linecap:butt;stroke-linejoin:miter;stroke-miterlimit:4;stroke-opacity:1;stroke-dasharray:none;stroke-dashoffset:0;marker:none;visibility:visible;display:inline;overflow:visible;enable-background:accumulate" />
  <path
     fill="#1d4a9b"
     d=" M 170.33 100.52 C 170.75 98.28 169.12 94.67 172.30 94.05 C 172.33 96.11 172.34 98.18 172.39 100.25 C 171.87 100.31 170.85 100.45 170.33 100.52 Z"
     id="path40"
     style="color:#000000;fill:#87de87;fill-opacity:1;fill-rule:nonzero;stroke-width:1;stroke-linecap:butt;stroke-linejoin:miter;stroke-miterlimit:4;stroke-opacity:1;stroke-dasharray:none;stroke-dashoffset:0;marker:none;visibility:visible;display:inline;overflow:visible;enable-background:accumulate" />
  <path
     fill="#1d4a9b"
     d=" M 173.73 93.98 C 176.47 94.59 175.49 97.48 175.57 99.47 C 175.77 100.57 174.16 100.31 173.62 100.78 C 173.63 98.51 173.66 96.24 173.73 93.98 Z"
     id="path42"
     style="color:#000000;fill:#87de87;fill-opacity:1;fill-rule:nonzero;stroke-width:1;stroke-linecap:butt;stroke-linejoin:miter;stroke-miterlimit:4;stroke-opacity:1;stroke-dasharray:none;stroke-dashoffset:0;marker:none;visibility:visible;display:inline;overflow:visible;enable-background:accumulate" />
  <path
     fill="#1d4a9b"
     d=" M 47.96 101.40 C 49.35 100.41 50.73 102.76 49.41 103.65 C 48.03 104.65 46.56 102.27 47.96 101.40 Z"
     id="path44"
     style="color:#000000;fill:#87de87;fill-opacity:1;fill-rule:nonzero;stroke-width:1;stroke-linecap:butt;stroke-linejoin:miter;stroke-miterlimit:4;stroke-opacity:1;stroke-dasharray:none;stroke-dashoffset:0;marker:none;visibility:visible;display:inline;overflow:visible;enable-background:accumulate" />
  <path
     fill="#1d4a9b"
     d=" M 50.07 101.16 C 51.80 100.84 53.53 100.58 55.26 100.24 C 55.90 101.51 56.45 102.81 56.95 104.14 C 54.93 104.18 52.91 104.26 50.89 104.19 C 50.68 103.43 50.28 101.92 50.07 101.16 Z"
     id="path46"
     style="color:#000000;fill:#87de87;fill-opacity:1;fill-rule:nonzero;stroke-width:1;stroke-linecap:butt;stroke-linejoin:miter;stroke-miterlimit:4;stroke-opacity:1;stroke-dasharray:none;stroke-dashoffset:0;marker:none;visibility:visible;display:inline;overflow:visible;enable-background:accumulate" />
  <path
     fill="#1d4a9b"
     d=" M 87.49 101.31 C 88.08 101.34 89.26 101.40 89.86 101.43 C 90.95 104.72 85.00 104.39 87.49 101.31 Z"
     id="path48"
     style="color:#000000;fill:#87de87;fill-opacity:1;fill-rule:nonzero;stroke-width:1;stroke-linecap:butt;stroke-linejoin:miter;stroke-miterlimit:4;stroke-opacity:1;stroke-dasharray:none;stroke-dashoffset:0;marker:none;visibility:visible;display:inline;overflow:visible;enable-background:accumulate" />
  <path
     fill="#1d4a9b"
     d=" M 120.19 101.20 L 120.41 100.46 C 121.16 100.82 122.66 101.54 123.41 101.90 C 123.11 103.80 121.59 104.88 119.78 103.83 C 119.88 103.17 120.09 101.86 120.19 101.20 Z"
     id="path50"
     style="color:#000000;fill:#87de87;fill-opacity:1;fill-rule:nonzero;stroke-width:1;stroke-linecap:butt;stroke-linejoin:miter;stroke-miterlimit:4;stroke-opacity:1;stroke-dasharray:none;stroke-dashoffset:0;marker:none;visibility:visible;display:inline;overflow:visible;enable-background:accumulate" />
  <path
     fill="#1d4a9b"
     d=" M 119.59 104.55 C 121.61 104.60 123.64 104.50 125.64 104.17 C 125.81 104.72 126.15 105.83 126.33 106.38 C 124.43 107.18 122.31 107.10 120.33 107.54 C 120.06 106.54 119.82 105.55 119.59 104.55 Z"
     id="path52"
     style="color:#000000;fill:#87de87;fill-opacity:1;fill-rule:nonzero;stroke-width:1;stroke-linecap:butt;stroke-linejoin:miter;stroke-miterlimit:4;stroke-opacity:1;stroke-dasharray:none;stroke-dashoffset:0;marker:none;visibility:visible;display:inline;overflow:visible;enable-background:accumulate" />
  <path
     fill="#1d4a9b"
     d=" M 47.38 105.02 C 48.37 103.52 50.95 105.10 49.77 106.60 C 48.79 108.03 46.15 106.51 47.38 105.02 Z"
     id="path54"
     style="color:#000000;fill:#87de87;fill-opacity:1;fill-rule:nonzero;stroke-width:1;stroke-linecap:butt;stroke-linejoin:miter;stroke-miterlimit:4;stroke-opacity:1;stroke-dasharray:none;stroke-dashoffset:0;marker:none;visibility:visible;display:inline;overflow:visible;enable-background:accumulate" />
  <path
     fill="#1d4a9b"
     d=" M 50.55 104.83 C 52.65 104.70 54.74 104.72 56.84 104.70 C 57.72 108.47 48.50 108.70 50.55 104.83 Z"
     id="path56"
     style="color:#000000;fill:#87de87;fill-opacity:1;fill-rule:nonzero;stroke-width:1;stroke-linecap:butt;stroke-linejoin:miter;stroke-miterlimit:4;stroke-opacity:1;stroke-dasharray:none;stroke-dashoffset:0;marker:none;visibility:visible;display:inline;overflow:visible;enable-background:accumulate" />
  <path
     fill="#1d4a9b"
     d=" M 86.87 104.57 C 89.22 104.06 91.57 104.76 93.54 106.08 C 91.49 107.20 89.13 107.55 86.82 107.38 C 86.83 106.67 86.86 105.27 86.87 104.57 Z"
     id="path58"
     style="color:#000000;fill:#87de87;fill-opacity:1;fill-rule:nonzero;stroke-width:1;stroke-linecap:butt;stroke-linejoin:miter;stroke-miterlimit:4;stroke-opacity:1;stroke-dasharray:none;stroke-dashoffset:0;marker:none;visibility:visible;display:inline;overflow:visible;enable-background:accumulate" />
  <path
     fill="#1d4a9b"
     d=" M 93.85 105.18 C 95.56 104.64 96.17 105.16 95.68 106.74 C 93.97 107.26 93.36 106.75 93.85 105.18 Z"
     id="path60"
     style="color:#000000;fill:#87de87;fill-opacity:1;fill-rule:nonzero;stroke-width:1;stroke-linecap:butt;stroke-linejoin:miter;stroke-miterlimit:4;stroke-opacity:1;stroke-dasharray:none;stroke-dashoffset:0;marker:none;visibility:visible;display:inline;overflow:visible;enable-background:accumulate" />
  <path
     fill="#1d4a9b"
     d=" M 106.64 104.77 C 108.66 104.52 110.70 104.52 112.73 104.47 C 112.67 105.28 112.56 106.89 112.50 107.69 C 112.60 109.64 112.68 111.58 112.66 113.53 C 110.92 113.18 107.41 114.84 107.17 112.16 C 108.43 111.76 109.71 111.43 111.02 111.19 C 110.89 111.13 110.64 111.02 110.51 110.96 C 108.48 110.66 106.50 109.79 106.45 107.44 C 107.57 107.56 109.81 107.79 110.93 107.91 L 110.96 106.93 C 109.05 106.74 105.20 108.10 106.64 104.77 Z"
     id="path62"
     style="color:#000000;fill:#87de87;fill-opacity:1;fill-rule:nonzero;stroke-width:1;stroke-linecap:butt;stroke-linejoin:miter;stroke-miterlimit:4;stroke-opacity:1;stroke-dasharray:none;stroke-dashoffset:0;marker:none;visibility:visible;display:inline;overflow:visible;enable-background:accumulate" />
  <path
     fill="#1d4a9b"
     d=" M 113.51 107.12 C 111.50 103.07 119.94 103.90 119.67 107.50 C 117.61 107.43 115.56 107.31 113.51 107.12 Z"
     id="path64"
     style="color:#000000;fill:#87de87;fill-opacity:1;fill-rule:nonzero;stroke-width:1;stroke-linecap:butt;stroke-linejoin:miter;stroke-miterlimit:4;stroke-opacity:1;stroke-dasharray:none;stroke-dashoffset:0;marker:none;visibility:visible;display:inline;overflow:visible;enable-background:accumulate" />
  <path
     fill="#1d4a9b"
     d=" M 166.44 107.26 C 163.92 106.93 159.53 108.27 159.42 104.43 C 161.85 105.10 166.27 103.39 166.44 107.26 Z"
     id="path66"
     style="color:#000000;fill:#87de87;fill-opacity:1;fill-rule:nonzero;stroke-width:1;stroke-linecap:butt;stroke-linejoin:miter;stroke-miterlimit:4;stroke-opacity:1;stroke-dasharray:none;stroke-dashoffset:0;marker:none;visibility:visible;display:inline;overflow:visible;enable-background:accumulate" />
  <path
     fill="#1d4a9b"
     d=" M 139.58 110.64 C 138.73 107.29 141.77 107.41 143.90 107.89 C 143.06 109.07 142.85 111.16 141.01 111.10 C 140.65 110.98 139.94 110.75 139.58 110.64 Z"
     id="path68"
     style="color:#000000;fill:#87de87;fill-opacity:1;fill-rule:nonzero;stroke-width:1;stroke-linecap:butt;stroke-linejoin:miter;stroke-miterlimit:4;stroke-opacity:1;stroke-dasharray:none;stroke-dashoffset:0;marker:none;visibility:visible;display:inline;overflow:visible;enable-background:accumulate" />
  <path
     fill="#1d4a9b"
     d=" M 47.46 113.95 C 47.71 111.73 45.51 106.45 49.58 107.72 C 53.63 108.70 47.73 109.53 48.34 111.53 L 48.92 111.86 C 49.44 112.20 50.49 112.88 51.01 113.21 L 48.52 113.55 C 48.45 113.66 48.30 113.88 48.23 113.99 C 51.71 114.72 49.70 118.78 50.08 121.26 C 52.34 121.07 54.61 120.91 56.88 120.70 C 56.48 122.06 55.96 123.39 55.31 124.65 C 53.69 124.17 52.04 123.83 50.39 123.47 C 49.63 123.74 48.86 124.01 48.10 124.28 C 48.63 124.37 49.70 124.55 50.23 124.64 C 50.22 127.03 50.33 129.41 50.18 131.80 C 49.38 131.49 47.80 130.87 47.00 130.56 C 47.11 129.79 47.33 128.25 47.44 127.48 C 47.32 125.04 47.33 122.59 47.57 120.16 L 47.10 119.85 C 47.28 117.88 47.35 115.91 47.46 113.95 Z"
     id="path70"
     style="color:#000000;fill:#87de87;fill-opacity:1;fill-rule:nonzero;stroke-width:1;stroke-linecap:butt;stroke-linejoin:miter;stroke-miterlimit:4;stroke-opacity:1;stroke-dasharray:none;stroke-dashoffset:0;marker:none;visibility:visible;display:inline;overflow:visible;enable-background:accumulate" />
  <path
     fill="#1d4a9b"
     d=" M 51.14 108.56 C 53.75 107.24 52.69 112.47 50.72 110.34 C 50.83 109.90 51.04 109.00 51.14 108.56 Z"
     id="path72"
     style="color:#000000;fill:#87de87;fill-opacity:1;fill-rule:nonzero;stroke-width:1;stroke-linecap:butt;stroke-linejoin:miter;stroke-miterlimit:4;stroke-opacity:1;stroke-dasharray:none;stroke-dashoffset:0;marker:none;visibility:visible;display:inline;overflow:visible;enable-background:accumulate" />
  <path
     fill="#1d4a9b"
     d=" M 54.42 108.01 L 56.42 107.38 C 56.47 109.47 56.53 111.57 56.59 113.66 C 54.88 113.16 52.23 114.56 51.16 112.70 C 51.45 111.26 53.68 111.97 54.75 111.54 C 54.66 110.36 54.55 109.19 54.42 108.01 Z"
     id="path74"
     style="color:#000000;fill:#87de87;fill-opacity:1;fill-rule:nonzero;stroke-width:1;stroke-linecap:butt;stroke-linejoin:miter;stroke-miterlimit:4;stroke-opacity:1;stroke-dasharray:none;stroke-dashoffset:0;marker:none;visibility:visible;display:inline;overflow:visible;enable-background:accumulate" />
  <path
     fill="#1d4a9b"
     d=" M 89.66 110.69 C 86.91 112.04 86.16 106.99 89.40 107.87 C 90.23 108.69 90.31 109.63 89.66 110.69 Z"
     id="path76"
     style="color:#000000;fill:#87de87;fill-opacity:1;fill-rule:nonzero;stroke-width:1;stroke-linecap:butt;stroke-linejoin:miter;stroke-miterlimit:4;stroke-opacity:1;stroke-dasharray:none;stroke-dashoffset:0;marker:none;visibility:visible;display:inline;overflow:visible;enable-background:accumulate" />
  <path
     fill="#1d4a9b"
     d=" M 91.15 108.19 C 93.42 108.08 92.63 110.46 92.61 111.96 C 92.84 111.96 93.31 111.97 93.54 111.98 C 93.43 110.61 93.37 109.24 93.36 107.87 C 94.11 107.72 95.61 107.43 96.36 107.28 C 96.38 109.39 96.37 111.50 96.38 113.61 C 94.86 113.56 93.33 113.53 91.81 113.52 C 91.91 113.81 92.10 114.38 92.19 114.67 C 93.58 114.59 94.97 114.50 96.35 114.40 C 96.36 116.44 96.37 118.49 96.40 120.54 C 93.01 120.04 89.59 120.42 86.19 120.36 C 87.19 119.23 88.22 118.12 89.28 117.04 C 89.62 117.52 90.31 118.47 90.65 118.94 C 90.69 118.39 90.77 117.29 90.81 116.74 C 89.28 117.00 87.75 117.20 86.21 117.36 C 85.68 113.26 89.57 115.58 91.13 114.02 C 90.13 112.64 88.01 113.84 86.63 113.40 L 87.00 111.51 C 88.10 111.62 89.19 111.72 90.29 111.82 C 90.51 110.59 90.79 109.38 91.15 108.19 Z"
     id="path78"
     style="color:#000000;fill:#87de87;fill-opacity:1;fill-rule:nonzero;stroke-width:1;stroke-linecap:butt;stroke-linejoin:miter;stroke-miterlimit:4;stroke-opacity:1;stroke-dasharray:none;stroke-dashoffset:0;marker:none;visibility:visible;display:inline;overflow:visible;enable-background:accumulate" />
  <path
     fill="#1d4a9b"
     d=" M 103.57 107.95 C 104.21 107.90 105.49 107.78 106.13 107.73 C 106.15 109.78 106.18 111.84 106.22 113.90 C 105.46 113.74 103.95 113.44 103.19 113.28 C 103.35 111.51 103.39 109.72 103.57 107.95 Z"
     id="path80"
     style="color:#000000;fill:#87de87;fill-opacity:1;fill-rule:nonzero;stroke-width:1;stroke-linecap:butt;stroke-linejoin:miter;stroke-miterlimit:4;stroke-opacity:1;stroke-dasharray:none;stroke-dashoffset:0;marker:none;visibility:visible;display:inline;overflow:visible;enable-background:accumulate" />
  <path
     fill="#1d4a9b"
     d=" M 116.19 108.03 C 117.04 108.01 118.74 107.97 119.59 107.96 C 119.44 108.71 119.14 110.21 118.99 110.97 C 118.36 110.86 117.09 110.64 116.45 110.53 C 116.38 109.91 116.25 108.65 116.19 108.03 Z"
     id="path82"
     style="color:#000000;fill:#87de87;fill-opacity:1;fill-rule:nonzero;stroke-width:1;stroke-linecap:butt;stroke-linejoin:miter;stroke-miterlimit:4;stroke-opacity:1;stroke-dasharray:none;stroke-dashoffset:0;marker:none;visibility:visible;display:inline;overflow:visible;enable-background:accumulate" />
  <path
     fill="#1d4a9b"
     d=" M 119.82 113.58 C 120.45 111.86 118.16 107.78 121.09 107.86 C 122.74 108.58 122.33 110.89 123.00 112.26 C 123.57 110.78 123.36 108.65 124.91 107.80 C 127.48 107.73 125.81 111.12 126.59 112.59 C 126.83 110.90 126.74 109.20 126.71 107.50 C 127.44 107.65 128.91 107.95 129.64 108.10 C 129.63 109.27 129.58 110.43 129.50 111.60 C 130.44 111.16 131.37 110.74 132.32 110.31 C 132.41 111.40 132.50 112.48 132.59 113.57 C 128.33 113.37 124.08 113.48 119.82 113.58 Z"
     id="path84"
     style="color:#000000;fill:#87de87;fill-opacity:1;fill-rule:nonzero;stroke-width:1;stroke-linecap:butt;stroke-linejoin:miter;stroke-miterlimit:4;stroke-opacity:1;stroke-dasharray:none;stroke-dashoffset:0;marker:none;visibility:visible;display:inline;overflow:visible;enable-background:accumulate" />
  <path
     fill="#1d4a9b"
     d=" M 143.45 111.87 C 143.54 110.00 143.91 108.17 145.47 106.92 C 145.59 108.56 145.60 110.20 145.56 111.84 C 145.85 111.95 146.44 112.18 146.73 112.29 C 146.69 110.78 146.69 109.27 146.73 107.76 C 148.67 107.87 150.60 108.12 152.54 108.30 C 152.49 108.88 152.41 110.06 152.37 110.65 C 151.26 110.51 150.15 110.36 149.04 110.22 C 149.19 111.01 149.50 112.59 149.66 113.38 C 144.93 113.22 140.20 113.46 135.47 113.30 C 136.07 111.15 137.64 109.67 139.42 111.77 C 140.76 111.83 142.10 111.85 143.45 111.87 Z"
     id="path86"
     style="color:#000000;fill:#87de87;fill-opacity:1;fill-rule:nonzero;stroke-width:1;stroke-linecap:butt;stroke-linejoin:miter;stroke-miterlimit:4;stroke-opacity:1;stroke-dasharray:none;stroke-dashoffset:0;marker:none;visibility:visible;display:inline;overflow:visible;enable-background:accumulate" />
  <path
     fill="#1d4a9b"
     d=" M 160.29 108.22 C 161.77 107.12 162.97 109.65 161.86 110.66 C 160.57 111.38 159.28 109.17 160.29 108.22 Z"
     id="path88"
     style="color:#000000;fill:#87de87;fill-opacity:1;fill-rule:nonzero;stroke-width:1;stroke-linecap:butt;stroke-linejoin:miter;stroke-miterlimit:4;stroke-opacity:1;stroke-dasharray:none;stroke-dashoffset:0;marker:none;visibility:visible;display:inline;overflow:visible;enable-background:accumulate" />
  <path
     fill="#1d4a9b"
     d=" M 163.27 111.43 C 163.72 110.24 163.51 108.43 164.91 107.85 C 167.72 107.85 165.53 111.85 166.19 113.55 C 164.27 113.57 162.36 113.61 160.44 113.68 C 160.41 113.29 160.33 112.53 160.29 112.15 C 161.27 111.86 162.26 111.62 163.27 111.43 Z"
     id="path90"
     style="color:#000000;fill:#87de87;fill-opacity:1;fill-rule:nonzero;stroke-width:1;stroke-linecap:butt;stroke-linejoin:miter;stroke-miterlimit:4;stroke-opacity:1;stroke-dasharray:none;stroke-dashoffset:0;marker:none;visibility:visible;display:inline;overflow:visible;enable-background:accumulate" />
  <path
     fill="#1d4a9b"
     d=" M 50.50 114.53 C 52.52 114.51 54.55 114.48 56.57 114.42 C 56.52 116.38 56.50 118.33 56.49 120.29 C 54.65 120.38 52.81 120.54 50.98 120.75 C 50.90 118.67 50.74 116.60 50.50 114.53 Z"
     id="path92"
     style="color:#000000;fill:#87de87;fill-opacity:1;fill-rule:nonzero;stroke-width:1;stroke-linecap:butt;stroke-linejoin:miter;stroke-miterlimit:4;stroke-opacity:1;stroke-dasharray:none;stroke-dashoffset:0;marker:none;visibility:visible;display:inline;overflow:visible;enable-background:accumulate" />
  <path
     fill="#1d4a9b"
     d=" M 103.30 114.56 C 106.44 114.55 109.58 114.54 112.72 114.43 C 112.66 116.39 112.61 118.34 112.60 120.31 C 110.79 119.70 107.02 121.90 106.84 119.02 C 106.82 118.34 106.77 116.98 106.75 116.30 C 103.22 115.11 104.73 118.19 105.28 119.92 L 105.28 120.89 C 101.86 120.53 103.94 116.66 103.30 114.56 Z"
     id="path94"
     style="color:#000000;fill:#87de87;fill-opacity:1;fill-rule:nonzero;stroke-width:1;stroke-linecap:butt;stroke-linejoin:miter;stroke-miterlimit:4;stroke-opacity:1;stroke-dasharray:none;stroke-dashoffset:0;marker:none;visibility:visible;display:inline;overflow:visible;enable-background:accumulate" />
  <path
     fill="#1d4a9b"
     d=" M 122.66 114.61 C 126.02 114.53 129.39 114.55 132.76 114.46 C 132.43 118.78 132.70 123.17 131.72 127.42 C 132.08 128.18 132.44 128.95 132.80 129.73 C 131.19 129.67 129.59 129.62 127.99 129.56 C 128.65 130.62 129.31 131.68 129.98 132.73 C 126.90 133.62 123.66 133.27 120.50 133.39 C 120.42 132.86 120.25 131.80 120.17 131.28 C 122.65 131.46 125.15 131.63 127.64 131.50 C 127.42 130.85 126.99 129.55 126.77 128.90 C 126.89 127.40 127.00 125.89 127.21 124.40 C 128.07 124.45 129.80 124.55 130.67 124.60 C 130.62 122.34 130.73 120.09 130.75 117.83 C 131.04 116.54 130.58 116.02 129.36 116.26 C 129.02 117.72 129.76 119.06 130.34 120.34 C 129.40 120.33 127.52 120.30 126.58 120.28 C 126.67 119.46 126.85 117.82 126.94 117.00 C 126.11 117.14 124.45 117.43 123.62 117.57 C 123.38 116.83 122.90 115.35 122.66 114.61 Z"
     id="path96"
     style="color:#000000;fill:#87de87;fill-opacity:1;fill-rule:nonzero;stroke-width:1;stroke-linecap:butt;stroke-linejoin:miter;stroke-miterlimit:4;stroke-opacity:1;stroke-dasharray:none;stroke-dashoffset:0;marker:none;visibility:visible;display:inline;overflow:visible;enable-background:accumulate" />
  <path
     fill="#1d4a9b"
     d=" M 133.28 114.41 C 135.51 114.52 137.73 114.82 139.96 114.97 C 141.81 114.85 143.66 114.67 145.51 114.49 C 145.57 115.11 145.69 116.34 145.75 116.96 C 144.54 116.73 143.34 116.50 142.14 116.27 C 142.34 117.53 142.54 118.81 142.74 120.08 C 142.16 120.12 141.01 120.19 140.44 120.23 C 140.45 118.75 140.25 117.30 139.86 115.89 C 138.77 117.20 139.53 119.17 139.16 120.71 C 138.43 120.47 136.97 119.99 136.23 119.75 C 135.81 118.37 137.20 117.48 137.80 116.42 C 137.31 116.45 136.33 116.51 135.84 116.54 C 135.54 117.71 135.18 118.86 134.77 120.00 L 134.18 120.93 C 133.61 118.80 133.39 116.60 133.28 114.41 Z"
     id="path98"
     style="color:#000000;fill:#87de87;fill-opacity:1;fill-rule:nonzero;stroke-width:1;stroke-linecap:butt;stroke-linejoin:miter;stroke-miterlimit:4;stroke-opacity:1;stroke-dasharray:none;stroke-dashoffset:0;marker:none;visibility:visible;display:inline;overflow:visible;enable-background:accumulate" />
  <path
     fill="#1d4a9b"
     d=" M 156.36 114.64 C 159.63 114.42 162.91 114.52 166.19 114.44 C 166.18 116.04 166.15 117.64 166.10 119.24 C 166.49 121.76 163.41 120.20 162.21 120.01 C 162.33 120.54 162.57 121.60 162.69 122.12 C 163.72 124.36 160.81 124.01 159.56 123.84 C 158.77 123.77 157.19 123.63 156.41 123.56 C 156.40 122.87 156.37 121.50 156.36 120.81 C 157.17 120.95 158.77 121.23 159.58 121.37 C 159.63 119.04 161.76 118.44 163.68 118.13 C 163.68 117.87 163.69 117.36 163.70 117.11 C 162.49 117.19 161.28 117.29 160.08 117.40 C 159.90 116.99 159.53 116.17 159.34 115.76 C 159.25 117.50 159.17 119.26 159.03 121.00 C 154.83 121.12 156.74 116.97 156.36 114.64 Z"
     id="path100"
     style="color:#000000;fill:#87de87;fill-opacity:1;fill-rule:nonzero;stroke-width:1;stroke-linecap:butt;stroke-linejoin:miter;stroke-miterlimit:4;stroke-opacity:1;stroke-dasharray:none;stroke-dashoffset:0;marker:none;visibility:visible;display:inline;overflow:visible;enable-background:accumulate" />
  <path
     fill="#1d4a9b"
     d=" M 87.55 123.52 C 85.16 120.76 90.87 120.44 89.81 123.44 C 89.25 123.46 88.12 123.50 87.55 123.52 Z"
     id="path102"
     style="color:#000000;fill:#87de87;fill-opacity:1;fill-rule:nonzero;stroke-width:1;stroke-linecap:butt;stroke-linejoin:miter;stroke-miterlimit:4;stroke-opacity:1;stroke-dasharray:none;stroke-dashoffset:0;marker:none;visibility:visible;display:inline;overflow:visible;enable-background:accumulate" />
  <path
     fill="#1d4a9b"
     d=" M 91.15 121.18 C 93.30 121.27 92.69 123.36 92.38 124.85 C 93.62 124.61 94.86 124.43 96.12 124.30 C 96.24 125.04 96.49 126.51 96.62 127.24 C 93.26 127.09 89.90 127.29 86.55 127.35 C 86.70 126.60 87.01 125.10 87.17 124.35 C 88.27 124.40 89.36 124.49 90.46 124.63 C 90.59 123.46 90.82 122.31 91.15 121.18 Z"
     id="path104"
     style="color:#000000;fill:#87de87;fill-opacity:1;fill-rule:nonzero;stroke-width:1;stroke-linecap:butt;stroke-linejoin:miter;stroke-miterlimit:4;stroke-opacity:1;stroke-dasharray:none;stroke-dashoffset:0;marker:none;visibility:visible;display:inline;overflow:visible;enable-background:accumulate" />
  <path
     fill="#1d4a9b"
     d=" M 93.98 121.31 C 95.44 120.15 97.20 122.60 95.66 123.63 C 94.23 124.76 92.42 122.31 93.98 121.31 Z"
     id="path106"
     style="color:#000000;fill:#87de87;fill-opacity:1;fill-rule:nonzero;stroke-width:1;stroke-linecap:butt;stroke-linejoin:miter;stroke-miterlimit:4;stroke-opacity:1;stroke-dasharray:none;stroke-dashoffset:0;marker:none;visibility:visible;display:inline;overflow:visible;enable-background:accumulate" />
  <path
     fill="#1d4a9b"
     d=" M 104.17 121.33 C 105.57 120.73 106.11 121.26 105.80 122.91 C 104.06 123.67 103.51 123.14 104.17 121.33 Z"
     id="path108"
     style="color:#000000;fill:#87de87;fill-opacity:1;fill-rule:nonzero;stroke-width:1;stroke-linecap:butt;stroke-linejoin:miter;stroke-miterlimit:4;stroke-opacity:1;stroke-dasharray:none;stroke-dashoffset:0;marker:none;visibility:visible;display:inline;overflow:visible;enable-background:accumulate" />
  <path
     fill="#1d4a9b"
     d=" M 106.79 122.08 C 106.66 119.25 110.89 121.72 112.53 120.76 C 112.53 122.93 112.54 125.10 112.56 127.27 C 110.18 126.61 106.40 128.56 105.65 124.99 C 107.55 124.79 109.46 124.60 111.36 124.32 C 109.87 123.54 107.78 123.56 106.79 122.08 Z"
     id="path110"
     style="color:#000000;fill:#87de87;fill-opacity:1;fill-rule:nonzero;stroke-width:1;stroke-linecap:butt;stroke-linejoin:miter;stroke-miterlimit:4;stroke-opacity:1;stroke-dasharray:none;stroke-dashoffset:0;marker:none;visibility:visible;display:inline;overflow:visible;enable-background:accumulate" />
  <path
     fill="#1d4a9b"
     d=" M 132.79 121.45 C 135.25 121.37 137.72 121.37 140.18 121.59 C 139.22 124.28 137.21 123.41 135.36 122.42 C 135.49 123.97 135.61 125.53 135.71 127.08 C 135.11 126.86 133.91 126.41 133.31 126.18 C 133.62 125.56 134.24 124.30 134.54 123.67 C 134.10 123.12 133.23 122.00 132.79 121.45 Z"
     id="path112"
     style="color:#000000;fill:#87de87;fill-opacity:1;fill-rule:nonzero;stroke-width:1;stroke-linecap:butt;stroke-linejoin:miter;stroke-miterlimit:4;stroke-opacity:1;stroke-dasharray:none;stroke-dashoffset:0;marker:none;visibility:visible;display:inline;overflow:visible;enable-background:accumulate" />
  <path
     fill="#1d4a9b"
     d=" M 163.79 121.30 C 165.27 120.16 166.87 122.67 165.45 123.70 C 163.98 124.85 162.30 122.30 163.79 121.30 Z"
     id="path114"
     style="color:#000000;fill:#87de87;fill-opacity:1;fill-rule:nonzero;stroke-width:1;stroke-linecap:butt;stroke-linejoin:miter;stroke-miterlimit:4;stroke-opacity:1;stroke-dasharray:none;stroke-dashoffset:0;marker:none;visibility:visible;display:inline;overflow:visible;enable-background:accumulate" />
  <path
     fill="#1d4a9b"
     d=" M 50.95 127.73 C 50.89 126.50 50.93 125.28 51.08 124.07 C 53.19 124.46 55.32 124.88 57.28 125.80 C 56.48 126.33 54.87 127.38 54.07 127.91 L 54.29 126.90 C 53.46 127.11 51.79 127.52 50.95 127.73 Z"
     id="path116"
     style="color:#000000;fill:#87de87;fill-opacity:1;fill-rule:nonzero;stroke-width:1;stroke-linecap:butt;stroke-linejoin:miter;stroke-miterlimit:4;stroke-opacity:1;stroke-dasharray:none;stroke-dashoffset:0;marker:none;visibility:visible;display:inline;overflow:visible;enable-background:accumulate" />
  <path
     fill="#1d4a9b"
     d=" M 103.93 124.77 C 105.56 124.31 106.09 124.91 105.51 126.55 C 103.84 126.98 103.32 126.39 103.93 124.77 Z"
     id="path118"
     style="color:#000000;fill:#87de87;fill-opacity:1;fill-rule:nonzero;stroke-width:1;stroke-linecap:butt;stroke-linejoin:miter;stroke-miterlimit:4;stroke-opacity:1;stroke-dasharray:none;stroke-dashoffset:0;marker:none;visibility:visible;display:inline;overflow:visible;enable-background:accumulate" />
  <path
     fill="#1d4a9b"
     d=" M 157.02 124.79 C 158.64 124.23 159.19 124.79 158.68 126.47 C 157.04 126.99 156.49 126.43 157.02 124.79 Z"
     id="path120"
     style="color:#000000;fill:#87de87;fill-opacity:1;fill-rule:nonzero;stroke-width:1;stroke-linecap:butt;stroke-linejoin:miter;stroke-miterlimit:4;stroke-opacity:1;stroke-dasharray:none;stroke-dashoffset:0;marker:none;visibility:visible;display:inline;overflow:visible;enable-background:accumulate" />
  <path
     fill="#1d4a9b"
     d=" M 158.82 124.64 C 161.27 124.56 163.72 124.46 166.17 124.57 C 166.17 125.17 166.16 126.39 166.16 126.99 C 163.56 126.99 159.15 128.50 158.82 124.64 Z"
     id="path122"
     style="color:#000000;fill:#87de87;fill-opacity:1;fill-rule:nonzero;stroke-width:1;stroke-linecap:butt;stroke-linejoin:miter;stroke-miterlimit:4;stroke-opacity:1;stroke-dasharray:none;stroke-dashoffset:0;marker:none;visibility:visible;display:inline;overflow:visible;enable-background:accumulate" />
  <path
     fill="#fffffe"
     d=" M 128.55 126.98 C 129.73 126.05 130.41 126.29 130.58 127.68 C 129.40 128.61 128.73 128.38 128.55 126.98 Z"
     id="path124"
     style="color:#000000;fill:#87de87;fill-opacity:1;fill-rule:nonzero;stroke-width:1;stroke-linecap:butt;stroke-linejoin:miter;stroke-miterlimit:4;stroke-opacity:1;stroke-dasharray:none;stroke-dashoffset:0;marker:none;visibility:visible;display:inline;overflow:visible;enable-background:accumulate" />
  <path
     fill="#1d4a9b"
     d=" M 50.78 130.36 C 51.17 129.74 51.96 128.50 52.35 127.88 C 54.43 128.54 52.04 132.13 50.78 130.36 Z"
     id="path126"
     style="color:#000000;fill:#87de87;fill-opacity:1;fill-rule:nonzero;stroke-width:1;stroke-linecap:butt;stroke-linejoin:miter;stroke-miterlimit:4;stroke-opacity:1;stroke-dasharray:none;stroke-dashoffset:0;marker:none;visibility:visible;display:inline;overflow:visible;enable-background:accumulate" />
  <path
     fill="#1d4a9b"
     d=" M 55.19 128.16 C 57.72 128.54 56.09 131.94 56.63 133.63 C 54.94 133.09 51.61 134.66 51.16 132.21 C 52.11 131.83 53.07 131.47 54.04 131.12 C 54.40 130.12 54.78 129.14 55.19 128.16 Z"
     id="path128"
     style="color:#000000;fill:#87de87;fill-opacity:1;fill-rule:nonzero;stroke-width:1;stroke-linecap:butt;stroke-linejoin:miter;stroke-miterlimit:4;stroke-opacity:1;stroke-dasharray:none;stroke-dashoffset:0;marker:none;visibility:visible;display:inline;overflow:visible;enable-background:accumulate" />
  <path
     fill="#1d4a9b"
     d=" M 89.64 130.62 C 87.01 132.06 86.12 127.01 89.29 127.82 C 90.27 128.65 90.38 129.58 89.64 130.62 Z"
     id="path130"
     style="color:#000000;fill:#87de87;fill-opacity:1;fill-rule:nonzero;stroke-width:1;stroke-linecap:butt;stroke-linejoin:miter;stroke-miterlimit:4;stroke-opacity:1;stroke-dasharray:none;stroke-dashoffset:0;marker:none;visibility:visible;display:inline;overflow:visible;enable-background:accumulate" />
  <path
     fill="#1d4a9b"
     d=" M 91.26 128.22 C 92.72 128.30 92.22 130.79 92.81 131.75 C 92.94 131.79 93.21 131.85 93.34 131.88 C 93.80 130.57 93.36 128.49 94.91 127.83 C 98.02 127.46 95.77 131.80 96.40 133.57 C 93.16 133.46 89.91 133.46 86.66 133.47 L 87.00 131.50 C 88.11 131.61 89.21 131.70 90.32 131.78 C 90.47 130.54 90.79 129.35 91.26 128.22 Z"
     id="path132"
     style="color:#000000;fill:#87de87;fill-opacity:1;fill-rule:nonzero;stroke-width:1;stroke-linecap:butt;stroke-linejoin:miter;stroke-miterlimit:4;stroke-opacity:1;stroke-dasharray:none;stroke-dashoffset:0;marker:none;visibility:visible;display:inline;overflow:visible;enable-background:accumulate" />
  <path
     fill="#1d4a9b"
     d=" M 103.27 127.73 C 103.99 127.64 105.44 127.46 106.16 127.37 C 105.79 129.51 106.04 131.65 106.25 133.78 C 105.50 133.67 104.01 133.44 103.26 133.33 C 103.34 131.46 103.34 129.60 103.27 127.73 Z"
     id="path134"
     style="color:#000000;fill:#87de87;fill-opacity:1;fill-rule:nonzero;stroke-width:1;stroke-linecap:butt;stroke-linejoin:miter;stroke-miterlimit:4;stroke-opacity:1;stroke-dasharray:none;stroke-dashoffset:0;marker:none;visibility:visible;display:inline;overflow:visible;enable-background:accumulate" />
  <path
     fill="#1d4a9b"
     d=" M 106.62 129.39 C 107.07 126.32 110.61 128.17 112.67 127.70 C 112.54 131.46 112.50 135.22 112.31 138.99 C 114.14 138.15 116.04 137.50 118.05 137.26 C 117.56 136.65 116.57 135.43 116.08 134.83 C 119.24 134.68 122.41 134.70 125.58 134.59 C 125.64 135.16 125.77 136.30 125.84 136.87 C 124.63 136.63 123.43 136.39 122.22 136.15 C 122.41 137.54 122.60 138.93 122.79 140.33 C 119.51 140.99 120.60 137.10 119.49 135.24 C 119.38 136.96 119.32 138.68 119.34 140.41 C 116.40 139.98 113.26 138.98 110.45 140.49 C 110.47 139.62 110.50 137.88 110.52 137.01 C 110.23 137.05 109.67 137.13 109.38 137.17 C 109.57 138.17 109.75 139.18 109.94 140.18 C 109.11 140.21 107.45 140.28 106.62 140.31 C 106.67 138.40 106.65 136.48 106.75 134.57 C 108.13 134.55 109.52 134.56 110.90 134.61 C 110.91 134.32 110.93 133.73 110.94 133.43 C 109.59 133.31 107.32 134.18 107.16 132.20 C 108.18 131.77 109.20 131.38 110.24 131.01 C 110.35 130.77 110.57 130.29 110.68 130.05 C 109.35 130.13 107.37 130.97 106.62 129.39 Z"
     id="path136"
     style="color:#000000;fill:#87de87;fill-opacity:1;fill-rule:nonzero;stroke-width:1;stroke-linecap:butt;stroke-linejoin:miter;stroke-miterlimit:4;stroke-opacity:1;stroke-dasharray:none;stroke-dashoffset:0;marker:none;visibility:visible;display:inline;overflow:visible;enable-background:accumulate" />
  <path
     fill="#1d4a9b"
     d=" M 123.62 128.12 C 124.42 126.92 126.54 128.19 125.63 129.42 C 124.83 130.53 122.67 129.34 123.62 128.12 Z"
     id="path138"
     style="color:#000000;fill:#87de87;fill-opacity:1;fill-rule:nonzero;stroke-width:1;stroke-linecap:butt;stroke-linejoin:miter;stroke-miterlimit:4;stroke-opacity:1;stroke-dasharray:none;stroke-dashoffset:0;marker:none;visibility:visible;display:inline;overflow:visible;enable-background:accumulate" />
  <path
     fill="#1d4a9b"
     d=" M 156.32 127.52 C 157.00 127.54 158.37 127.56 159.05 127.57 C 159.25 129.57 159.33 131.58 159.47 133.59 C 158.68 133.54 157.09 133.45 156.30 133.40 C 156.36 131.44 156.37 129.48 156.32 127.52 Z"
     id="path140"
     style="color:#000000;fill:#87de87;fill-opacity:1;fill-rule:nonzero;stroke-width:1;stroke-linecap:butt;stroke-linejoin:miter;stroke-miterlimit:4;stroke-opacity:1;stroke-dasharray:none;stroke-dashoffset:0;marker:none;visibility:visible;display:inline;overflow:visible;enable-background:accumulate" />
  <path
     fill="#1d4a9b"
     d=" M 159.55 127.47 C 160.32 127.60 161.87 127.86 162.64 127.99 C 162.80 129.81 162.80 131.64 162.72 133.47 C 162.03 133.49 160.64 133.53 159.95 133.56 C 159.75 131.53 159.67 129.50 159.55 127.47 Z"
     id="path142"
     style="color:#000000;fill:#87de87;fill-opacity:1;fill-rule:nonzero;stroke-width:1;stroke-linecap:butt;stroke-linejoin:miter;stroke-miterlimit:4;stroke-opacity:1;stroke-dasharray:none;stroke-dashoffset:0;marker:none;visibility:visible;display:inline;overflow:visible;enable-background:accumulate" />
  <path
     fill="#1d4a9b"
     d=" M 163.25 128.09 C 163.97 127.91 165.40 127.53 166.11 127.34 C 166.14 129.50 166.16 131.65 166.17 133.81 C 165.41 133.66 163.90 133.37 163.14 133.22 C 163.08 131.51 163.07 129.79 163.25 128.09 Z"
     id="path144"
     style="color:#000000;fill:#87de87;fill-opacity:1;fill-rule:nonzero;stroke-width:1;stroke-linecap:butt;stroke-linejoin:miter;stroke-miterlimit:4;stroke-opacity:1;stroke-dasharray:none;stroke-dashoffset:0;marker:none;visibility:visible;display:inline;overflow:visible;enable-background:accumulate" />
  <path
     fill="#1d4a9b"
     d=" M 47.47 132.16 C 48.03 132.16 49.15 132.17 49.71 132.17 C 50.25 133.73 46.90 133.97 47.47 132.16 Z"
     id="path146"
     style="color:#000000;fill:#87de87;fill-opacity:1;fill-rule:nonzero;stroke-width:1;stroke-linecap:butt;stroke-linejoin:miter;stroke-miterlimit:4;stroke-opacity:1;stroke-dasharray:none;stroke-dashoffset:0;marker:none;visibility:visible;display:inline;overflow:visible;enable-background:accumulate" />
  <path
     fill="#1d4a9b"
     d=" M 86.78 134.57 C 89.94 134.56 93.10 134.55 96.27 134.46 C 96.38 136.09 96.51 137.72 96.66 139.35 L 98.12 136.89 C 98.46 137.33 99.13 138.23 99.46 138.67 C 101.40 136.96 102.59 137.07 103.03 139.00 C 102.48 140.37 101.32 140.57 99.57 139.62 C 99.20 139.89 98.45 140.44 98.08 140.72 L 97.24 139.48 C 96.27 139.73 94.34 140.24 93.38 140.49 C 93.47 139.11 93.56 137.74 93.66 136.37 C 93.39 136.37 92.85 136.38 92.58 136.38 C 92.56 137.88 92.53 139.39 92.48 140.89 C 89.77 140.46 90.89 137.52 90.33 135.73 C 89.96 137.18 89.70 138.65 89.26 140.07 C 87.62 140.20 85.98 140.32 84.34 140.44 C 84.35 139.30 84.36 138.16 84.38 137.03 C 85.25 137.65 86.11 138.27 86.97 138.90 C 86.92 137.82 86.83 135.65 86.78 134.57 Z"
     id="path148"
     style="color:#000000;fill:#87de87;fill-opacity:1;fill-rule:nonzero;stroke-width:1;stroke-linecap:butt;stroke-linejoin:miter;stroke-miterlimit:4;stroke-opacity:1;stroke-dasharray:none;stroke-dashoffset:0;marker:none;visibility:visible;display:inline;overflow:visible;enable-background:accumulate" />
  <path
     fill="#1d4a9b"
     d=" M 103.15 134.55 C 103.95 134.54 105.57 134.52 106.37 134.51 C 105.69 136.18 106.83 139.18 104.96 140.12 C 103.10 138.96 103.49 136.41 103.15 134.55 Z"
     id="path150"
     style="color:#000000;fill:#87de87;fill-opacity:1;fill-rule:nonzero;stroke-width:1;stroke-linecap:butt;stroke-linejoin:miter;stroke-miterlimit:4;stroke-opacity:1;stroke-dasharray:none;stroke-dashoffset:0;marker:none;visibility:visible;display:inline;overflow:visible;enable-background:accumulate" />
  <path
     fill="#1d4a9b"
     d=" M 156.41 134.57 C 159.48 134.39 162.55 134.49 165.63 134.33 L 166.29 136.34 C 164.74 136.26 163.20 136.22 161.66 136.19 C 162.03 136.56 162.78 137.29 163.15 137.66 L 163.66 137.54 C 165.21 136.63 166.81 138.83 166.62 140.25 C 164.20 140.20 161.78 140.16 159.36 140.09 C 159.67 138.72 159.98 137.35 160.31 135.99 L 159.23 136.07 C 159.09 138.38 159.48 140.84 158.82 143.04 C 158.21 143.09 156.99 143.19 156.38 143.23 C 156.38 142.31 156.40 141.39 156.44 140.47 C 156.36 138.50 156.30 136.53 156.41 134.57 Z"
     id="path152"
     style="color:#000000;fill:#87de87;fill-opacity:1;fill-rule:nonzero;stroke-width:1;stroke-linecap:butt;stroke-linejoin:miter;stroke-miterlimit:4;stroke-opacity:1;stroke-dasharray:none;stroke-dashoffset:0;marker:none;visibility:visible;display:inline;overflow:visible;enable-background:accumulate" />
  <path
     fill="#1d4a9b"
     d=" M 64.26 140.47 C 64.35 139.25 64.45 138.03 64.55 136.81 C 65.14 137.31 66.31 138.31 66.90 138.81 C 67.53 138.32 68.81 137.35 69.45 136.87 C 69.55 138.08 69.64 139.29 69.73 140.50 C 67.90 139.72 66.08 139.71 64.26 140.47 Z"
     id="path154"
     style="color:#000000;fill:#87de87;fill-opacity:1;fill-rule:nonzero;stroke-width:1;stroke-linecap:butt;stroke-linejoin:miter;stroke-miterlimit:4;stroke-opacity:1;stroke-dasharray:none;stroke-dashoffset:0;marker:none;visibility:visible;display:inline;overflow:visible;enable-background:accumulate" />
  <path
     fill="#1d4a9b"
     d=" M 70.45 137.49 C 74.72 137.97 79.00 137.79 83.28 137.58 C 83.28 138.23 83.29 139.55 83.30 140.21 C 80.57 140.28 77.84 140.03 75.11 140.18 C 73.65 140.22 72.19 140.23 70.73 140.21 C 70.66 139.53 70.52 138.17 70.45 137.49 Z"
     id="path156"
     style="color:#000000;fill:#87de87;fill-opacity:1;fill-rule:nonzero;stroke-width:1;stroke-linecap:butt;stroke-linejoin:miter;stroke-miterlimit:4;stroke-opacity:1;stroke-dasharray:none;stroke-dashoffset:0;marker:none;visibility:visible;display:inline;overflow:visible;enable-background:accumulate" />
  <path
     fill="#1d4a9b"
     d=" M 50.85 141.28 C 52.72 141.32 54.59 141.36 56.45 141.39 C 56.48 142.50 56.53 144.74 56.55 145.86 C 57.11 144.34 57.53 142.78 57.95 141.22 C 59.60 141.64 62.03 140.41 63.18 142.00 C 63.58 144.25 60.51 143.06 59.19 143.49 C 59.13 143.65 59.01 143.96 58.96 144.11 C 60.59 144.56 64.80 143.95 62.98 146.74 C 61.42 147.96 58.92 146.60 57.01 146.71 C 56.17 146.86 54.48 147.16 53.64 147.31 C 53.69 146.25 53.79 144.13 53.83 143.07 C 52.93 143.29 51.12 143.73 50.21 143.95 C 50.37 143.28 50.69 141.95 50.85 141.28 Z"
     id="path158"
     style="color:#000000;fill:#87de87;fill-opacity:1;fill-rule:nonzero;stroke-width:1;stroke-linecap:butt;stroke-linejoin:miter;stroke-miterlimit:4;stroke-opacity:1;stroke-dasharray:none;stroke-dashoffset:0;marker:none;visibility:visible;display:inline;overflow:visible;enable-background:accumulate" />
  <path
     fill="#1d4a9b"
     d=" M 64.10 141.35 C 68.30 141.45 72.50 141.40 76.71 141.37 C 76.07 143.08 77.14 146.28 75.01 147.06 C 72.81 146.37 73.48 143.49 75.26 142.62 C 74.62 142.64 73.35 142.66 72.71 142.68 C 72.53 144.03 72.24 145.36 71.87 146.68 C 71.56 146.70 70.94 146.73 70.64 146.75 C 69.35 147.17 66.40 148.37 66.51 145.85 C 66.85 143.27 69.47 144.38 71.11 144.55 C 70.95 143.94 70.63 142.73 70.47 142.12 C 69.69 145.18 67.59 142.66 66.40 142.19 C 65.84 143.69 67.76 148.03 64.92 147.03 C 63.29 146.63 64.14 144.58 64.20 143.46 C 64.16 142.75 64.13 142.05 64.10 141.35 Z"
     id="path160"
     style="color:#000000;fill:#87de87;fill-opacity:1;fill-rule:nonzero;stroke-width:1;stroke-linecap:butt;stroke-linejoin:miter;stroke-miterlimit:4;stroke-opacity:1;stroke-dasharray:none;stroke-dashoffset:0;marker:none;visibility:visible;display:inline;overflow:visible;enable-background:accumulate" />
  <path
     fill="#1d4a9b"
     d=" M 77.49 141.28 C 79.78 141.78 83.98 139.90 83.80 143.75 C 82.66 143.81 81.52 143.85 80.38 143.88 L 80.11 141.69 C 79.80 142.40 79.17 143.82 78.86 144.53 C 80.65 144.65 82.44 144.78 84.23 144.88 C 84.30 143.69 84.32 142.49 84.34 141.30 C 90.52 141.13 96.93 142.30 102.95 140.56 C 102.93 141.56 102.91 142.55 102.89 143.55 C 98.45 142.90 93.68 144.35 89.50 142.40 C 89.59 143.91 89.72 145.41 89.69 146.92 C 87.36 146.98 85.03 146.78 82.70 146.69 C 83.02 148.96 83.29 151.23 83.55 153.51 C 82.62 153.52 80.77 153.55 79.84 153.57 C 79.79 152.03 79.92 150.51 80.00 148.98 C 79.22 149.96 79.68 152.59 78.21 152.80 C 77.36 151.17 77.40 149.24 76.99 147.48 C 78.03 147.57 80.11 147.75 81.16 147.84 C 80.86 147.54 80.28 146.93 79.98 146.62 C 79.43 146.80 78.31 147.15 77.75 147.32 C 77.71 145.30 77.62 143.29 77.49 141.28 Z"
     id="path162"
     style="color:#000000;fill:#87de87;fill-opacity:1;fill-rule:nonzero;stroke-width:1;stroke-linecap:butt;stroke-linejoin:miter;stroke-miterlimit:4;stroke-opacity:1;stroke-dasharray:none;stroke-dashoffset:0;marker:none;visibility:visible;display:inline;overflow:visible;enable-background:accumulate" />
  <path
     fill="#1d4a9b"
     d=" M 106.44 142.04 C 105.67 144.74 102.12 141.52 104.97 140.95 C 105.34 141.23 106.08 141.77 106.44 142.04 Z"
     id="path164"
     style="color:#000000;fill:#87de87;fill-opacity:1;fill-rule:nonzero;stroke-width:1;stroke-linecap:butt;stroke-linejoin:miter;stroke-miterlimit:4;stroke-opacity:1;stroke-dasharray:none;stroke-dashoffset:0;marker:none;visibility:visible;display:inline;overflow:visible;enable-background:accumulate" />
  <path
     fill="#1d4a9b"
     d=" M 106.50 141.36 C 108.46 141.36 110.42 141.36 112.38 141.31 C 112.46 143.15 112.64 144.98 112.63 146.82 C 109.51 147.06 106.39 146.84 103.27 146.84 C 103.31 146.06 103.40 144.49 103.44 143.70 C 104.79 143.99 106.10 144.41 107.38 144.91 C 107.16 144.02 106.72 142.25 106.50 141.36 Z"
     id="path166"
     style="color:#000000;fill:#87de87;fill-opacity:1;fill-rule:nonzero;stroke-width:1;stroke-linecap:butt;stroke-linejoin:miter;stroke-miterlimit:4;stroke-opacity:1;stroke-dasharray:none;stroke-dashoffset:0;marker:none;visibility:visible;display:inline;overflow:visible;enable-background:accumulate" />
  <path
     fill="#1d4a9b"
     d=" M 112.59 141.60 C 114.97 141.95 119.42 139.65 119.74 143.48 C 117.33 143.06 113.95 144.48 112.59 141.60 Z"
     id="path168"
     style="color:#000000;fill:#87de87;fill-opacity:1;fill-rule:nonzero;stroke-width:1;stroke-linecap:butt;stroke-linejoin:miter;stroke-miterlimit:4;stroke-opacity:1;stroke-dasharray:none;stroke-dashoffset:0;marker:none;visibility:visible;display:inline;overflow:visible;enable-background:accumulate" />
  <path
     fill="#1d4a9b"
     d=" M 159.48 143.16 C 158.40 139.39 163.30 141.18 165.41 140.91 L 166.45 143.11 C 164.13 143.19 161.80 143.43 159.48 143.16 Z"
     id="path170"
     style="color:#000000;fill:#87de87;fill-opacity:1;fill-rule:nonzero;stroke-width:1;stroke-linecap:butt;stroke-linejoin:miter;stroke-miterlimit:4;stroke-opacity:1;stroke-dasharray:none;stroke-dashoffset:0;marker:none;visibility:visible;display:inline;overflow:visible;enable-background:accumulate" />
  <path
     fill="#fffffe"
     d=" M 109.33 143.13 C 112.27 141.60 109.40 146.57 109.33 143.13 Z"
     id="path172"
     style="color:#000000;fill:#87de87;fill-opacity:1;fill-rule:nonzero;stroke-width:1;stroke-linecap:butt;stroke-linejoin:miter;stroke-miterlimit:4;stroke-opacity:1;stroke-dasharray:none;stroke-dashoffset:0;marker:none;visibility:visible;display:inline;overflow:visible;enable-background:accumulate" />
  <path
     fill="#1d4a9b"
     d=" M 155.75 146.66 C 156.27 145.32 156.97 142.45 158.81 144.18 C 159.02 144.90 159.46 146.33 159.67 147.05 C 158.69 146.95 156.73 146.75 155.75 146.66 Z"
     id="path174"
     style="color:#000000;fill:#87de87;fill-opacity:1;fill-rule:nonzero;stroke-width:1;stroke-linecap:butt;stroke-linejoin:miter;stroke-miterlimit:4;stroke-opacity:1;stroke-dasharray:none;stroke-dashoffset:0;marker:none;visibility:visible;display:inline;overflow:visible;enable-background:accumulate" />
  <path
     fill="#1d4a9b"
     d=" M 159.70 143.46 C 160.73 143.73 161.77 144.02 162.81 144.32 C 164.01 144.12 165.22 143.95 166.44 143.79 C 166.38 144.52 166.26 145.99 166.20 146.72 C 164.04 146.76 161.88 146.78 159.72 146.81 C 159.71 145.97 159.70 144.29 159.70 143.46 Z"
     id="path176"
     style="color:#000000;fill:#87de87;fill-opacity:1;fill-rule:nonzero;stroke-width:1;stroke-linecap:butt;stroke-linejoin:miter;stroke-miterlimit:4;stroke-opacity:1;stroke-dasharray:none;stroke-dashoffset:0;marker:none;visibility:visible;display:inline;overflow:visible;enable-background:accumulate" />
  <path
     fill="#1d4a9b"
     d=" M 57.30 147.42 C 63.01 147.64 68.83 148.37 74.49 147.29 C 75.13 147.76 76.40 148.70 77.03 149.17 C 75.34 149.79 73.54 150.01 71.80 150.45 C 68.95 150.15 65.73 151.20 63.22 149.41 C 63.00 149.81 62.55 150.61 62.33 151.01 C 61.78 150.75 60.68 150.24 60.13 149.98 C 59.49 150.17 58.19 150.55 57.54 150.74 C 57.48 149.91 57.36 148.25 57.30 147.42 Z"
     id="path178"
     style="color:#000000;fill:#87de87;fill-opacity:1;fill-rule:nonzero;stroke-width:1;stroke-linecap:butt;stroke-linejoin:miter;stroke-miterlimit:4;stroke-opacity:1;stroke-dasharray:none;stroke-dashoffset:0;marker:none;visibility:visible;display:inline;overflow:visible;enable-background:accumulate" />
  <path
     fill="#1d4a9b"
     d=" M 73.78 151.85 C 74.40 149.87 77.15 152.60 75.18 153.24 C 74.83 152.89 74.13 152.20 73.78 151.85 Z"
     id="path180"
     style="color:#000000;fill:#87de87;fill-opacity:1;fill-rule:nonzero;stroke-width:1;stroke-linecap:butt;stroke-linejoin:miter;stroke-miterlimit:4;stroke-opacity:1;stroke-dasharray:none;stroke-dashoffset:0;marker:none;visibility:visible;display:inline;overflow:visible;enable-background:accumulate" />
  <path
     fill="#1d4a9b"
     d=" M 84.12 154.00 C 83.08 151.71 85.51 148.48 86.82 152.05 C 86.43 152.67 85.63 153.91 85.24 154.53 C 87.17 154.62 90.17 153.35 90.24 156.42 C 88.87 156.26 87.51 156.09 86.14 155.91 C 86.24 157.43 86.32 158.96 86.37 160.48 C 85.69 160.34 84.33 160.06 83.65 159.92 C 83.54 157.94 83.73 155.95 84.12 154.00 Z"
     id="path182"
     style="color:#000000;fill:#87de87;fill-opacity:1;fill-rule:nonzero;stroke-width:1;stroke-linecap:butt;stroke-linejoin:miter;stroke-miterlimit:4;stroke-opacity:1;stroke-dasharray:none;stroke-dashoffset:0;marker:none;visibility:visible;display:inline;overflow:visible;enable-background:accumulate" />
  <path
     fill="#1d4a9b"
     d=" M 77.37 155.31 C 78.81 154.71 81.83 154.26 82.61 155.83 C 81.42 156.45 77.20 157.28 77.37 155.31 Z"
     id="path184"
     style="color:#000000;fill:#87de87;fill-opacity:1;fill-rule:nonzero;stroke-width:1;stroke-linecap:butt;stroke-linejoin:miter;stroke-miterlimit:4;stroke-opacity:1;stroke-dasharray:none;stroke-dashoffset:0;marker:none;visibility:visible;display:inline;overflow:visible;enable-background:accumulate" />
  <path
     fill="#1d4a9b"
     d=" M 80.88 157.40 C 82.23 156.46 83.63 158.77 82.43 159.71 C 81.05 160.71 79.59 158.34 80.88 157.40 Z"
     id="path186"
     style="color:#000000;fill:#87de87;fill-opacity:1;fill-rule:nonzero;stroke-width:1;stroke-linecap:butt;stroke-linejoin:miter;stroke-miterlimit:4;stroke-opacity:1;stroke-dasharray:none;stroke-dashoffset:0;marker:none;visibility:visible;display:inline;overflow:visible;enable-background:accumulate" />
  <path
     fill="#1d4a9b"
     d=" M 87.05 156.38 C 88.18 156.72 89.33 157.06 90.46 157.42 C 91.41 157.40 92.35 157.40 93.30 157.40 C 93.37 158.07 93.51 159.42 93.57 160.09 C 91.22 160.13 88.87 160.13 86.52 160.12 C 86.65 159.18 86.92 157.32 87.05 156.38 Z"
     id="path188"
     style="color:#000000;fill:#87de87;fill-opacity:1;fill-rule:nonzero;stroke-width:1;stroke-linecap:butt;stroke-linejoin:miter;stroke-miterlimit:4;stroke-opacity:1;stroke-dasharray:none;stroke-dashoffset:0;marker:none;visibility:visible;display:inline;overflow:visible;enable-background:accumulate" />
</svg>
