<?xml version="1.0" encoding="UTF-8" standalone="no"?>
<svg
   xmlns:dc="http://purl.org/dc/elements/1.1/"
   xmlns:cc="http://creativecommons.org/ns#"
   xmlns:rdf="http://www.w3.org/1999/02/22-rdf-syntax-ns#"
   xmlns:svg="http://www.w3.org/2000/svg"
   xmlns="http://www.w3.org/2000/svg"
   xmlns:sodipodi="http://sodipodi.sourceforge.net/DTD/sodipodi-0.dtd"
   xmlns:inkscape="http://www.inkscape.org/namespaces/inkscape"
   width="500pt"
   height="500pt"
   viewBox="0 0 500 500"
   version="1.1"
   id="svg2"
   inkscape:version="0.48.4 r9939"
   sodipodi:docname="sink_high.svg">
  <metadata
     id="metadata20">
    <rdf:RDF>
      <cc:Work
         rdf:about="">
        <dc:format>image/svg+xml</dc:format>
        <dc:type
           rdf:resource="http://purl.org/dc/dcmitype/StillImage" />
      </cc:Work>
    </rdf:RDF>
  </metadata>
  <defs
     id="defs18" />
  <sodipodi:namedview
     pagecolor="#ffffff"
     bordercolor="#666666"
     borderopacity="1"
     objecttolerance="10"
     gridtolerance="10"
     guidetolerance="10"
     inkscape:pageopacity="0"
     inkscape:pageshadow="2"
     inkscape:window-width="640"
     inkscape:window-height="480"
     id="namedview16"
     showgrid="false"
     inkscape:zoom="0.3776"
     inkscape:cx="312.5"
     inkscape:cy="312.5"
     inkscape:window-x="0"
     inkscape:window-y="0"
     inkscape:window-maximized="0"
     inkscape:current-layer="svg2" />
  <path
     fill="#fdfefe"
     d=" M 0.00 0.00 L 500.00 0.00 L 500.00 500.00 L 0.00 500.00 L 0.00 0.00 Z"
     id="path4" />
  <path
     fill="#1e4b9c"
     d=" M 238.52 27.81 C 281.01 24.22 324.40 32.49 362.61 51.40 C 411.01 75.11 450.69 116.00 472.88 165.12 C 490.72 204.19 497.54 248.22 492.28 290.85 C 487.35 331.86 471.33 371.46 446.37 404.37 C 424.22 433.77 395.02 457.74 361.97 473.92 C 324.62 492.25 282.38 500.46 240.88 497.38 C 198.14 494.34 156.33 479.36 121.40 454.53 C 99.93 439.36 81.05 420.56 65.80 399.15 C 42.82 367.06 28.16 329.09 23.60 289.89 C 18.78 249.33 24.85 207.54 40.96 170.01 C 55.90 135.05 79.45 103.78 109.01 79.87 C 145.63 50.00 191.42 31.61 238.52 27.81 Z"
     id="path6"
     style="fill:#d40000" />
  <path
     fill="#fdfefe"
     d=" M 373.82 108.92 C 378.91 102.36 387.81 99.09 395.94 100.74 C 404.68 102.19 412.14 109.32 413.92 118.01 C 415.53 124.66 413.64 131.94 409.31 137.19 C 404.06 143.70 395.05 146.66 386.92 144.85 C 384.29 143.70 382.59 146.38 380.83 147.81 C 354.25 171.58 327.56 195.23 301.00 219.03 C 302.06 224.77 301.08 230.93 297.82 235.82 C 293.49 242.76 285.12 246.76 277.00 246.01 C 267.25 245.67 258.77 238.13 256.38 228.81 C 231.34 221.40 206.32 213.95 181.29 206.51 C 174.93 212.41 165.28 214.14 157.21 211.03 C 130.29 234.79 103.59 258.79 76.74 282.64 C 77.41 290.56 74.06 298.88 67.45 303.47 C 60.29 308.75 50.01 309.23 42.38 304.66 C 37.01 301.61 33.12 296.20 31.78 290.19 C 29.58 281.08 33.89 270.79 42.01 266.08 C 48.17 262.22 56.14 261.74 62.84 264.44 C 89.60 240.66 116.34 216.86 143.00 192.97 C 142.61 187.64 143.47 182.10 146.58 177.63 C 152.35 168.59 164.94 164.93 174.70 169.36 C 181.26 172.02 186.04 178.00 187.87 184.76 C 212.91 192.27 237.99 199.69 263.06 207.10 C 269.05 201.50 277.92 199.79 285.71 202.07 C 312.74 177.97 339.75 153.86 366.82 129.81 C 367.76 128.74 369.79 127.96 369.19 126.17 C 368.36 120.10 369.92 113.70 373.82 108.92 Z"
     id="path8" />
  <path
     fill="#fdfefe"
     d=" M 357.77 212.24 C 380.43 212.25 403.09 212.23 425.75 212.25 C 425.76 272.09 425.76 331.92 425.75 391.75 C 403.09 391.77 380.43 391.75 357.77 391.76 C 357.75 331.92 357.75 272.08 357.77 212.24 Z"
     id="path10" />
  <path
     fill="#fdfefe"
     d=" M 131.50 257.00 C 154.26 257.00 177.01 256.99 199.76 257.01 C 199.75 301.92 199.77 346.83 199.75 391.75 C 177.00 391.77 154.26 391.74 131.51 391.76 C 131.49 346.84 131.50 301.92 131.50 257.00 Z"
     id="path12" />
  <path
     fill="#fdfefe"
     d=" M 244.76 301.76 C 267.38 301.69 290.01 301.87 312.63 301.68 C 312.92 331.69 312.68 361.72 312.75 391.75 C 290.09 391.77 267.43 391.75 244.77 391.76 C 244.75 361.76 244.76 331.76 244.76 301.76 Z"
     id="path14" />
</svg>
