<?xml version="1.0" encoding="UTF-8" standalone="no"?>
<svg
   xmlns:dc="http://purl.org/dc/elements/1.1/"
   xmlns:cc="http://creativecommons.org/ns#"
   xmlns:rdf="http://www.w3.org/1999/02/22-rdf-syntax-ns#"
   xmlns:svg="http://www.w3.org/2000/svg"
   xmlns="http://www.w3.org/2000/svg"
   xmlns:sodipodi="http://sodipodi.sourceforge.net/DTD/sodipodi-0.dtd"
   xmlns:inkscape="http://www.inkscape.org/namespaces/inkscape"
   width="280pt"
   height="280pt"
   viewBox="0 0 280 280"
   version="1.1"
   id="svg2"
   inkscape:version="0.48.4 r9939"
   sodipodi:docname="source_high.svg">
  <metadata
     id="metadata30">
    <rdf:RDF>
      <cc:Work
         rdf:about="">
        <dc:format>image/svg+xml</dc:format>
        <dc:type
           rdf:resource="http://purl.org/dc/dcmitype/StillImage" />
      </cc:Work>
    </rdf:RDF>
  </metadata>
  <defs
     id="defs28" />
  <sodipodi:namedview
     pagecolor="#ffffff"
     bordercolor="#666666"
     borderopacity="1"
     objecttolerance="10"
     gridtolerance="10"
     guidetolerance="10"
     inkscape:pageopacity="0"
     inkscape:pageshadow="2"
     inkscape:window-width="640"
     inkscape:window-height="480"
     id="namedview26"
     showgrid="false"
     inkscape:zoom="0.67428571"
     inkscape:cx="175"
     inkscape:cy="175"
     inkscape:window-x="0"
     inkscape:window-y="0"
     inkscape:window-maximized="0"
     inkscape:current-layer="svg2" />
  <path
     fill="#fefffe"
     d=" M 0.00 0.00 L 280.00 0.00 L 280.00 134.63 C 278.57 106.96 269.20 79.66 252.59 57.42 C 232.16 29.49 200.95 9.76 167.02 3.04 C 136.30 -2.97 103.56 1.41 75.70 15.79 C 48.27 29.64 25.75 52.87 12.66 80.66 C 6.12 94.26 2.17 108.96 0.00 123.86 L 0.00 0.00 Z"
     id="path4" />
  <path
     fill="#1b4a9c"
     d=" M 75.70 15.79 C 103.56 1.41 136.30 -2.97 167.02 3.04 C 200.95 9.76 232.16 29.49 252.59 57.42 C 269.20 79.66 278.57 106.96 280.00 134.63 L 280.00 148.32 C 278.81 161.48 276.59 174.61 272.07 187.06 C 259.98 221.92 233.44 251.42 200.07 267.15 C 186.54 273.76 171.86 277.58 157.05 280.00 L 121.04 280.00 C 116.67 278.88 112.21 278.19 107.81 277.18 C 75.92 269.88 46.79 251.00 27.26 224.73 C 12.34 205.14 3.21 181.48 0.00 157.13 L 0.00 123.86 C 2.17 108.96 6.12 94.26 12.66 80.66 C 25.75 52.87 48.27 29.64 75.70 15.79 Z"
     id="path6"
     style="fill:#d40000" />
  <path
     fill="#fefffe"
     d=" M 125.41 37.63 C 139.58 36.16 154.15 37.08 167.75 41.54 C 191.04 48.38 211.59 63.86 224.87 84.15 C 235.80 100.95 242.07 120.91 242.01 141.00 C 242.34 169.98 229.69 198.78 208.34 218.33 C 188.90 236.28 162.45 246.57 135.96 245.99 C 102.85 245.77 70.44 228.48 51.73 201.18 C 39.37 183.40 32.54 161.69 33.00 140.00 C 33.23 108.11 49.23 76.82 74.85 57.87 C 89.53 46.83 107.20 39.87 125.41 37.63 Z"
     id="path8" />
  <path
     fill="#1b4a9c"
     d=" M 105.10 71.53 C 108.77 72.68 111.62 69.48 115.03 68.85 C 118.94 68.49 123.25 68.04 126.55 70.62 C 129.93 73.04 133.91 71.05 137.25 69.69 C 140.95 69.10 145.44 68.77 148.09 71.98 C 150.84 73.91 150.86 77.52 150.21 80.49 C 148.34 85.48 141.90 87.87 137.13 85.58 C 133.86 84.53 129.78 81.97 126.61 84.10 C 126.23 88.73 126.61 93.39 126.41 98.04 C 129.77 100.61 132.79 103.58 135.66 106.69 C 144.79 106.48 153.94 106.65 163.08 106.61 C 169.60 107.15 176.84 109.83 179.95 116.05 C 184.21 123.30 183.65 131.89 183.33 139.97 C 182.82 141.25 181.91 142.34 180.90 143.26 C 175.83 143.85 170.70 143.20 165.61 143.64 C 161.82 139.01 165.11 132.69 162.20 127.87 C 158.39 126.00 154.05 126.54 149.96 126.47 C 145.33 126.54 140.69 126.24 136.07 126.61 C 130.90 130.29 125.86 135.51 119.04 135.44 C 112.60 135.99 107.75 131.15 102.84 127.81 C 95.64 127.22 88.38 127.79 81.15 127.56 C 80.39 120.21 80.13 112.70 81.33 105.39 C 87.23 105.35 93.15 105.64 99.05 105.26 C 103.63 104.95 106.88 101.49 110.51 99.12 C 110.49 93.79 110.51 88.46 110.33 83.14 C 104.28 82.78 98.88 88.22 92.85 85.75 C 89.57 85.01 87.16 81.95 86.49 78.79 C 85.73 74.70 89.18 71.49 92.52 69.84 C 96.78 68.38 101.10 70.11 105.10 71.53 Z"
     id="path10"
     style="fill:#d40000" />
  <path
     fill="#1b4a9c"
     d=" M 60.58 96.37 C 65.99 95.14 73.24 93.74 77.11 98.84 C 78.99 100.30 78.38 102.88 78.55 104.95 C 78.44 113.64 78.75 122.34 78.40 131.01 C 76.01 135.86 70.08 137.78 65.00 137.41 C 62.74 137.48 60.42 135.36 60.65 133.03 C 60.59 120.81 60.81 108.59 60.58 96.37 Z"
     id="path12"
     style="fill:#d40000" />
  <path
     fill="#fefffe"
     d=" M 112.09 105.24 C 116.39 103.01 121.61 102.86 125.87 105.27 C 121.30 105.77 116.67 105.71 112.09 105.24 Z"
     id="path14" />
  <path
     fill="#1b4a9c"
     d=" M 160.56 146.91 C 160.90 146.56 161.56 145.88 161.89 145.53 C 169.82 145.06 177.77 145.57 185.71 145.31 C 186.89 149.85 186.42 154.55 186.51 159.18 C 183.01 159.49 179.50 159.73 175.99 159.60 C 170.78 159.39 165.43 160.27 160.37 158.60 C 160.54 154.70 160.33 150.80 160.56 146.91 Z"
     id="path16"
     style="fill:#d40000" />
  <path
     fill="#fefffe"
     d=" M 272.07 187.06 C 276.59 174.61 278.81 161.48 280.00 148.32 L 280.00 280.00 L 157.05 280.00 C 171.86 277.58 186.54 273.76 200.07 267.15 C 233.44 251.42 259.98 221.92 272.07 187.06 Z"
     id="path18" />
  <path
     fill="#fefffe"
     d=" M 0.00 157.13 C 3.21 181.48 12.34 205.14 27.26 224.73 C 46.79 251.00 75.92 269.88 107.81 277.18 C 112.21 278.19 116.67 278.88 121.04 280.00 L 0.00 280.00 L 0.00 157.13 Z"
     id="path20" />
  <path
     fill="#1b4a9c"
     d=" M 171.65 176.29 C 172.58 176.26 174.43 176.22 175.36 176.20 C 180.69 186.12 186.14 196.18 188.48 207.30 C 188.78 210.43 188.83 213.61 188.42 216.73 C 186.77 221.30 183.41 225.33 179.00 227.44 C 175.38 227.87 171.69 227.85 168.07 227.42 C 162.12 224.61 158.34 218.43 157.64 212.02 C 159.66 199.23 165.28 187.43 171.65 176.29 Z"
     id="path22"
     style="fill:#d40000" />
  <path
     fill="#fefffe"
     d=" M 175.02 221.60 C 177.95 219.94 180.68 217.91 183.02 215.46 C 181.96 217.40 181.00 219.39 180.17 221.44 C 178.45 221.49 176.73 221.54 175.02 221.60 Z"
     id="path24" />
</svg>
