<?xml version="1.0" encoding="UTF-8" ?>
<!DOCTYPE svg PUBLIC "-//W3C//DTD SVG 1.1//EN" "http://www.w3.org/Graphics/SVG/1.1/DTD/svg11.dtd">
<svg width="291pt" height="290pt" viewBox="0 0 291 290" version="1.1" xmlns="http://www.w3.org/2000/svg">
<path fill="#fffffe" d=" M 0.00 0.00 L 291.00 0.00 L 291.00 290.00 L 283.95 290.00 C 287.04 285.84 290.05 280.66 288.80 275.29 C 288.32 272.53 286.20 270.60 284.32 268.73 C 285.61 266.00 286.51 263.05 286.49 260.01 C 286.54 255.52 286.93 250.90 285.52 246.56 C 285.41 246.17 285.19 245.39 285.08 245.00 C 283.73 241.38 282.09 237.83 281.39 234.02 C 281.00 231.33 282.62 229.06 283.90 226.88 C 286.00 224.91 288.65 223.44 290.35 221.10 C 290.82 218.46 290.56 215.77 290.51 213.10 C 289.42 211.83 288.36 210.53 287.22 209.31 C 286.86 208.95 286.16 208.22 285.81 207.86 C 285.63 207.81 285.27 207.72 285.09 207.67 C 284.26 207.62 282.59 207.51 281.76 207.45 C 278.99 210.02 276.25 212.64 273.83 215.55 C 268.98 215.62 266.74 211.05 264.62 207.51 L 265.77 207.25 C 265.60 206.90 265.27 206.21 265.10 205.87 L 266.28 205.69 L 267.14 205.67 C 267.83 204.84 268.51 203.99 269.17 203.13 C 271.29 200.01 274.91 197.36 274.57 193.18 C 273.26 191.39 272.10 189.50 271.02 187.57 L 270.44 187.55 C 270.05 187.50 269.27 187.39 268.88 187.34 C 268.28 186.36 267.69 185.38 267.12 184.39 C 266.36 184.45 264.85 184.56 264.09 184.61 C 263.03 185.49 261.96 186.37 260.93 187.29 C 257.77 190.45 254.66 193.69 251.05 196.36 C 248.80 194.79 246.57 193.21 244.45 191.47 C 247.76 184.80 249.03 176.12 255.96 172.05 C 263.86 168.33 272.95 169.41 281.23 167.09 C 285.45 165.83 288.82 162.01 289.29 157.58 C 289.97 151.80 289.94 145.94 289.38 140.15 C 288.98 135.54 285.77 131.14 281.21 129.94 C 273.15 127.77 264.48 128.39 256.63 125.39 C 250.31 122.32 248.50 114.97 245.96 109.03 C 243.38 102.55 239.19 95.59 241.65 88.42 C 245.22 81.13 251.32 75.47 255.46 68.53 C 257.65 64.83 257.51 59.72 254.67 56.40 C 251.44 52.64 247.76 49.31 244.30 45.79 C 241.80 43.23 238.75 40.73 234.97 40.78 C 230.08 40.46 226.42 44.14 222.71 46.72 C 218.21 49.85 214.20 53.83 209.14 56.06 C 202.73 58.17 196.35 55.04 190.61 52.43 C 184.20 49.61 176.24 48.06 172.54 41.42 C 168.75 33.14 170.28 23.54 167.16 15.05 C 165.65 10.91 161.28 8.68 157.11 8.21 C 152.08 7.62 146.98 7.77 141.94 8.07 C 137.25 8.34 132.41 11.13 130.87 15.74 C 128.51 23.78 129.22 32.46 126.35 40.36 C 123.41 47.47 115.28 49.18 108.95 52.00 C 102.49 54.61 95.32 58.78 88.27 55.62 C 81.26 51.95 75.76 45.98 68.92 42.03 C 65.22 40.01 60.28 40.29 57.00 43.01 C 53.75 45.74 50.99 49.00 47.91 51.92 C 46.39 53.42 44.82 54.89 43.52 56.60 C 40.88 60.06 40.82 65.13 43.07 68.81 C 47.25 75.55 53.20 81.14 56.67 88.32 C 59.17 95.59 54.89 102.69 52.32 109.29 C 49.74 115.18 47.87 122.62 41.41 125.44 C 33.82 128.34 25.49 127.88 17.67 129.78 C 13.03 130.85 9.36 135.17 8.99 139.91 C 8.38 145.59 8.44 151.35 8.97 157.04 C 9.27 162.01 13.29 166.29 18.08 167.35 C 25.34 168.88 32.88 168.88 40.03 170.96 C 45.34 172.67 48.50 177.76 50.24 182.77 C 52.72 189.82 57.00 196.41 57.54 204.01 C 56.94 212.08 50.22 217.63 45.92 223.92 C 43.21 227.69 39.93 231.98 40.91 236.93 C 43.08 241.77 47.43 245.15 50.97 248.96 C 55.36 253.72 62.33 256.71 68.75 254.93 C 74.08 252.07 78.58 247.91 83.41 244.32 C 86.02 242.62 88.67 240.58 91.89 240.33 C 95.92 239.87 99.82 241.26 103.53 242.65 C 111.01 246.58 120.88 247.68 125.75 255.32 C 129.32 263.45 128.39 272.73 130.81 281.18 C 132.25 285.44 136.44 288.46 140.89 288.79 C 146.61 289.38 152.41 289.38 158.12 288.71 C 162.52 288.21 166.42 284.89 167.70 280.66 C 169.08 275.51 169.20 270.13 170.10 264.90 C 170.77 259.92 171.85 254.35 176.26 251.28 C 182.47 246.82 190.12 245.17 196.89 241.75 C 199.94 240.66 203.16 240.20 206.40 240.12 C 205.95 248.26 207.81 256.28 210.21 263.99 C 210.43 265.18 210.53 266.39 210.50 267.62 C 208.28 269.79 206.34 272.23 204.55 274.76 C 203.48 276.28 202.45 277.82 201.41 279.35 C 200.60 280.44 199.75 281.50 198.93 282.58 C 197.19 284.89 195.92 287.48 194.54 290.00 L 0.00 290.00 L 0.00 0.00 Z" />
<path fill="#1d4a9b" d=" M 130.87 15.74 C 132.41 11.13 137.25 8.34 141.94 8.07 C 146.98 7.77 152.08 7.62 157.11 8.21 C 161.28 8.68 165.65 10.91 167.16 15.05 C 170.28 23.54 168.75 33.14 172.54 41.42 C 176.24 48.06 184.20 49.61 190.61 52.43 C 196.35 55.04 202.73 58.17 209.14 56.06 C 214.20 53.83 218.21 49.85 222.71 46.72 C 226.42 44.14 230.08 40.46 234.97 40.78 C 238.75 40.73 241.80 43.23 244.30 45.79 C 247.76 49.31 251.44 52.64 254.67 56.40 C 257.51 59.72 257.65 64.83 255.46 68.53 C 251.32 75.47 245.22 81.13 241.65 88.42 C 239.19 95.59 243.38 102.55 245.96 109.03 C 248.50 114.97 250.31 122.32 256.63 125.39 C 264.48 128.39 273.15 127.77 281.21 129.94 C 285.77 131.14 288.98 135.54 289.38 140.15 C 289.94 145.94 289.97 151.80 289.29 157.58 C 288.82 162.01 285.45 165.83 281.23 167.09 C 272.95 169.41 263.86 168.33 255.96 172.05 C 249.03 176.12 247.76 184.80 244.45 191.47 C 244.30 191.83 243.99 192.55 243.83 192.91 C 237.33 187.99 228.47 188.81 221.36 191.88 C 222.29 190.62 223.18 189.32 224.07 188.03 C 228.04 181.56 231.22 174.61 233.34 167.31 C 236.48 158.19 235.75 148.47 235.74 139.00 C 235.42 127.09 230.39 116.02 225.14 105.56 C 223.42 106.06 221.71 106.56 219.99 107.05 C 220.83 105.32 221.70 103.60 222.57 101.88 C 215.59 92.41 207.00 84.10 197.03 77.82 L 196.77 77.54 C 183.35 69.09 167.67 64.83 151.96 63.55 C 143.49 62.84 135.07 64.37 126.76 65.83 C 105.04 70.30 85.21 83.29 72.33 101.33 C 58.30 120.84 54.37 147.07 61.76 169.90 C 65.98 169.87 70.19 169.80 74.40 169.72 C 74.24 172.48 74.46 175.58 72.18 177.59 C 72.02 175.79 71.88 173.99 71.77 172.18 C 71.01 172.78 70.25 173.38 69.49 173.99 C 69.17 175.16 69.32 177.72 67.37 176.91 C 66.70 175.11 66.70 173.16 66.39 171.29 C 65.62 174.17 65.37 177.19 66.01 180.13 C 72.08 192.56 81.38 203.34 92.62 211.39 C 108.41 222.37 127.60 229.03 146.95 228.35 C 164.92 228.98 182.87 223.61 197.97 213.95 C 202.58 210.91 206.91 207.48 211.03 203.81 L 211.21 203.43 C 212.52 202.11 213.98 200.93 215.20 199.51 C 213.73 203.79 211.43 207.88 211.24 212.50 C 211.18 212.92 211.07 213.76 211.02 214.18 C 210.33 213.79 209.59 213.56 208.85 213.30 C 209.59 216.45 209.00 219.64 208.20 222.71 C 206.45 228.34 206.33 234.27 206.40 240.12 C 203.16 240.20 199.94 240.66 196.89 241.75 C 190.12 245.17 182.47 246.82 176.26 251.28 C 171.85 254.35 170.77 259.92 170.10 264.90 C 169.20 270.13 169.08 275.51 167.70 280.66 C 166.42 284.89 162.52 288.21 158.12 288.71 C 152.41 289.38 146.61 289.38 140.89 288.79 C 136.44 288.46 132.25 285.44 130.81 281.18 C 128.39 272.73 129.32 263.45 125.75 255.32 C 120.88 247.68 111.01 246.58 103.53 242.65 C 99.82 241.26 95.92 239.87 91.89 240.33 C 88.67 240.58 86.02 242.62 83.41 244.32 C 78.58 247.91 74.08 252.07 68.75 254.93 C 62.33 256.71 55.36 253.72 50.97 248.96 C 47.43 245.15 43.08 241.77 40.91 236.93 C 39.93 231.98 43.21 227.69 45.92 223.92 C 50.22 217.63 56.94 212.08 57.54 204.01 C 57.00 196.41 52.72 189.82 50.24 182.77 C 48.50 177.76 45.34 172.67 40.03 170.96 C 32.88 168.88 25.34 168.88 18.08 167.35 C 13.29 166.29 9.27 162.01 8.97 157.04 C 8.44 151.35 8.38 145.59 8.99 139.91 C 9.36 135.17 13.03 130.85 17.67 129.78 C 25.49 127.88 33.82 128.34 41.41 125.44 C 47.87 122.62 49.74 115.18 52.32 109.29 C 54.89 102.69 59.17 95.59 56.67 88.32 C 53.20 81.14 47.25 75.55 43.07 68.81 C 40.82 65.13 40.88 60.06 43.52 56.60 C 44.82 54.89 46.39 53.42 47.91 51.92 C 50.99 49.00 53.75 45.74 57.00 43.01 C 60.28 40.29 65.22 40.01 68.92 42.03 C 75.76 45.98 81.26 51.95 88.27 55.62 C 95.32 58.78 102.49 54.61 108.95 52.00 C 115.28 49.18 123.41 47.47 126.35 40.36 C 129.22 32.46 128.51 23.78 130.87 15.74 Z" />
<path fill="#fffffe" d=" M 126.76 65.83 C 135.07 64.37 143.49 62.84 151.96 63.55 C 167.67 64.83 183.35 69.09 196.77 77.54 L 197.03 77.82 C 207.00 84.10 215.59 92.41 222.57 101.88 C 221.70 103.60 220.83 105.32 219.99 107.05 C 221.71 106.56 223.42 106.06 225.14 105.56 C 230.39 116.02 235.42 127.09 235.74 139.00 C 235.75 148.47 236.48 158.19 233.34 167.31 C 231.22 174.61 228.04 181.56 224.07 188.03 C 223.18 189.32 222.29 190.62 221.36 191.88 C 219.33 194.44 217.22 196.94 215.20 199.51 C 213.98 200.93 212.52 202.11 211.21 203.43 L 211.03 203.81 C 206.91 207.48 202.58 210.91 197.97 213.95 C 182.87 223.61 164.92 228.98 146.95 228.35 C 127.60 229.03 108.41 222.37 92.62 211.39 C 81.38 203.34 72.08 192.56 66.01 180.13 C 65.37 177.19 65.62 174.17 66.39 171.29 C 66.70 173.16 66.70 175.11 67.37 176.91 C 69.32 177.72 69.17 175.16 69.49 173.99 C 70.25 173.38 71.01 172.78 71.77 172.18 C 71.88 173.99 72.02 175.79 72.18 177.59 C 74.46 175.58 74.24 172.48 74.40 169.72 C 70.19 169.80 65.98 169.87 61.76 169.90 C 54.37 147.07 58.30 120.84 72.33 101.33 C 85.21 83.29 105.04 70.30 126.76 65.83 Z" />
<path fill="#1d4a9b" d=" M 211.22 106.22 C 211.64 102.11 215.87 103.62 218.67 103.52 C 218.86 104.20 219.24 105.57 219.43 106.26 C 216.70 106.27 213.96 106.28 211.22 106.22 Z" />
<path fill="#24509e" d=" M 198.78 103.53 C 202.90 103.52 207.02 103.52 211.14 103.50 C 210.93 104.31 210.51 105.93 210.30 106.74 C 206.99 105.99 203.58 105.94 200.33 106.97 C 199.81 105.82 199.30 104.67 198.78 103.53 Z" />
<path fill="#1d4a9b" d=" M 198.69 108.40 C 202.90 108.52 207.13 108.38 211.28 107.54 C 211.11 108.92 210.72 110.23 210.10 111.46 C 211.22 114.99 210.13 118.66 210.53 122.25 C 210.89 125.52 211.13 128.81 211.17 132.10 C 208.27 131.83 205.38 131.41 202.51 130.92 C 202.23 132.68 201.87 134.43 201.05 136.03 C 201.26 136.57 201.69 137.67 201.91 138.21 C 202.89 137.61 203.86 137.01 204.91 136.52 C 206.87 136.95 206.55 139.26 205.58 140.45 C 204.53 139.70 203.47 138.96 202.41 138.23 C 202.53 140.16 202.65 142.09 202.75 144.03 C 201.84 143.81 200.02 143.38 199.11 143.16 C 198.88 140.81 199.24 138.19 197.89 136.11 C 193.76 133.26 188.59 135.61 184.02 135.39 C 182.39 135.61 181.76 134.85 182.13 133.13 C 183.61 131.27 186.14 132.34 188.05 132.66 C 187.42 131.16 186.81 129.65 186.22 128.14 C 188.14 128.19 190.06 128.25 191.99 128.35 C 191.34 126.64 190.69 124.94 190.05 123.23 C 192.11 123.87 194.18 124.53 196.23 125.20 C 195.54 123.41 194.82 121.63 194.13 119.85 C 195.81 119.95 197.48 120.06 199.16 120.18 C 199.08 118.49 198.45 116.24 200.32 115.26 C 202.88 115.53 205.37 116.18 207.91 116.58 C 208.06 114.37 207.96 112.08 208.92 110.03 C 206.19 109.74 203.46 110.06 200.84 110.82 C 200.10 110.03 199.39 109.22 198.69 108.40 Z" />
<path fill="#1d4a9b" d=" M 212.40 107.39 C 216.26 108.30 220.23 108.48 224.17 108.68 C 220.50 110.61 216.20 109.79 212.27 110.71 C 212.30 109.88 212.37 108.22 212.40 107.39 Z" />
<path fill="#1d4a9b" d=" M 212.25 111.87 C 214.47 111.55 216.70 111.24 218.93 110.95 C 219.00 113.45 219.07 115.95 219.14 118.44 C 216.55 118.40 213.96 118.35 211.37 118.35 C 211.76 116.21 212.04 114.04 212.25 111.87 Z" />
<path fill="#1d4a9b" d=" M 221.03 110.13 C 223.86 112.33 223.56 116.39 222.24 119.36 C 223.14 122.07 224.50 126.91 220.64 127.77 C 220.55 124.77 220.53 121.74 221.38 118.83 C 219.77 116.19 220.93 112.98 221.03 110.13 Z" />
<path fill="#1d4a9b" d=" M 83.39 116.25 C 83.76 115.88 84.51 115.15 84.89 114.78 C 85.37 115.22 86.35 116.08 86.84 116.52 C 88.39 115.33 90.09 114.94 91.78 116.11 C 97.99 115.50 104.30 116.34 110.45 115.18 C 113.61 117.84 109.91 122.29 112.36 125.32 C 113.29 123.58 112.37 118.33 115.66 120.20 C 115.70 121.26 115.57 122.30 115.25 123.33 C 115.71 124.91 117.84 123.98 119.04 124.04 C 118.97 125.25 118.91 126.47 118.85 127.69 C 120.12 127.68 121.40 127.69 122.69 127.70 C 121.73 126.18 120.85 124.62 120.06 123.01 C 125.38 122.95 124.11 128.89 123.90 132.33 C 121.82 132.07 119.61 132.20 117.66 131.36 C 116.87 130.13 116.99 128.55 116.63 127.18 C 113.11 127.79 108.93 125.97 105.90 128.29 C 105.03 127.75 104.16 127.20 103.30 126.66 C 102.90 127.09 102.11 127.94 101.72 128.37 C 99.28 125.57 95.34 127.86 92.34 128.37 C 92.24 127.17 92.13 125.98 92.02 124.79 C 93.79 124.52 95.59 124.24 97.21 123.43 C 95.58 123.63 93.97 123.94 92.36 124.27 C 91.91 122.44 91.87 120.57 91.99 118.70 C 90.08 118.64 88.16 118.58 86.25 118.50 C 86.45 120.41 86.65 122.31 86.85 124.22 C 86.09 123.98 84.58 123.50 83.83 123.26 C 83.66 121.65 83.71 120.03 83.71 118.42 C 81.38 118.60 78.88 118.34 76.81 119.63 C 78.73 119.72 80.66 119.68 82.59 119.62 C 82.87 120.97 83.16 122.32 83.45 123.66 C 80.77 123.70 78.09 123.69 75.41 123.66 C 75.34 121.04 75.30 118.42 75.29 115.80 C 78.00 115.85 80.70 115.98 83.39 116.25 Z" />
<path fill="#1d4a9b" d=" M 132.63 116.66 C 133.36 115.99 134.11 115.36 134.88 114.74 C 135.27 115.23 136.04 116.20 136.43 116.68 C 136.85 116.25 137.69 115.39 138.10 114.96 C 140.06 115.07 142.03 115.19 143.99 115.31 C 144.49 118.71 144.24 122.14 144.11 125.56 C 146.63 124.78 145.13 121.92 145.37 120.05 C 146.30 119.96 148.16 119.78 149.10 119.69 C 148.97 121.34 148.85 123.00 148.72 124.65 C 149.99 124.18 151.27 123.71 152.55 123.25 C 152.74 126.01 152.74 128.79 152.66 131.56 C 150.26 131.69 147.87 131.82 145.47 131.98 C 145.44 130.41 145.41 128.84 145.38 127.28 C 146.98 127.39 148.58 127.49 150.19 127.57 C 148.19 127.08 146.17 126.70 144.15 126.35 C 144.18 128.13 144.22 129.92 144.28 131.71 C 141.86 131.72 139.44 131.77 137.03 131.90 C 137.01 130.29 136.98 128.68 136.96 127.08 C 138.68 127.49 140.40 127.91 142.12 128.34 L 142.20 127.16 C 140.70 127.14 139.20 127.11 137.70 127.06 C 138.13 125.04 140.31 124.90 141.80 124.01 C 142.05 122.15 142.04 120.27 142.11 118.41 C 139.38 118.51 136.64 118.64 133.92 118.87 C 135.77 120.10 137.78 121.25 140.06 120.51 C 140.52 122.87 137.91 122.86 136.34 123.32 C 135.92 127.66 137.33 132.56 135.14 136.46 C 134.61 136.08 133.57 135.33 133.04 134.95 C 132.56 128.87 133.33 122.74 132.63 116.66 Z" />
<path fill="#1d4a9b" d=" M 71.45 116.50 C 72.48 115.03 74.93 116.73 73.73 118.17 C 72.71 119.70 70.21 117.93 71.45 116.50 Z" />
<path fill="#1d4a9b" d=" M 113.05 116.47 C 114.66 115.91 115.19 116.46 114.64 118.10 C 113.02 118.66 112.49 118.11 113.05 116.47 Z" />
<path fill="#1d4a9b" d=" M 66.61 120.02 C 69.08 119.83 71.55 119.63 74.01 119.43 C 74.21 121.82 74.40 124.21 74.62 126.60 C 71.38 126.61 68.18 127.14 64.94 127.17 C 63.81 126.93 61.87 127.07 62.00 125.41 C 62.88 124.67 63.78 123.94 64.70 123.25 C 65.33 123.79 66.59 124.87 67.22 125.41 C 67.02 123.61 66.82 121.82 66.61 120.02 Z" />
<path fill="#1d4a9b" d=" M 86.85 119.80 C 88.32 119.67 89.80 119.56 91.27 119.48 C 91.52 122.18 91.40 124.88 91.24 127.58 C 89.03 127.42 86.52 126.52 84.72 128.33 C 82.83 125.43 78.88 128.30 76.15 128.34 C 75.71 127.06 75.28 125.78 74.84 124.50 C 79.19 124.53 83.54 124.60 87.89 124.63 C 87.54 123.02 87.19 121.41 86.85 119.80 Z" />
<path fill="#1d4a9b" d=" M 117.33 120.40 C 118.74 119.48 120.33 121.87 118.99 122.73 C 117.26 124.37 116.73 121.62 117.33 120.40 Z" />
<path fill="#1d4a9b" d=" M 216.59 121.46 C 217.05 120.76 217.96 119.36 218.42 118.66 C 219.10 121.49 219.09 124.41 219.06 127.30 C 215.35 127.81 216.48 123.71 216.59 121.46 Z" />
<path fill="#1d4a9b" d=" M 66.18 128.08 C 68.38 127.71 70.58 127.34 72.78 126.96 C 73.43 128.69 74.08 130.42 74.71 132.16 C 72.25 132.22 69.80 132.22 67.34 132.20 C 66.96 130.83 66.57 129.45 66.18 128.08 Z" />
<path fill="#1d4a9b" d=" M 153.92 127.15 C 155.32 127.83 156.73 128.51 158.13 129.21 C 157.14 131.00 155.55 132.15 153.50 132.46 C 153.59 130.68 153.74 128.91 153.92 127.15 Z" />
<path fill="#3961a8" d=" M 63.38 128.33 C 65.30 126.59 67.52 131.06 64.99 131.33 C 63.18 132.45 62.00 129.44 63.38 128.33 Z" />
<path fill="#1d4a9b" d=" M 112.55 128.46 C 113.91 128.30 115.29 128.49 116.65 128.64 C 116.15 129.98 115.28 130.91 114.03 131.44 C 112.05 131.39 111.98 129.96 112.55 128.46 Z" />
<path fill="#1d4a9b" d=" M 112.14 132.12 C 115.06 132.15 118.17 132.39 120.37 134.55 C 118.64 135.03 116.92 135.48 115.18 135.89 C 115.77 137.22 116.33 138.61 115.80 140.08 C 113.15 141.33 111.69 137.77 113.70 136.17 C 111.19 136.17 112.48 133.54 112.14 132.12 Z" />
<path fill="#1d4a9b" d=" M 153.09 132.49 C 155.64 132.29 158.20 132.14 160.76 132.02 C 161.01 132.91 161.26 133.80 161.51 134.69 C 159.02 135.23 156.52 135.71 154.04 136.25 C 153.80 135.31 153.33 133.43 153.09 132.49 Z" />
<path fill="#1d4a9b" d=" M 63.52 135.60 C 62.02 134.31 62.10 133.24 63.76 132.37 C 67.52 132.91 71.31 132.80 75.10 132.78 C 74.38 133.89 73.53 134.89 72.54 135.78 C 75.58 136.84 73.63 141.22 74.33 143.67 C 71.90 143.71 69.46 143.70 67.08 143.12 C 68.03 141.25 70.16 141.32 71.93 140.97 C 71.85 139.37 71.78 137.77 71.74 136.17 C 69.66 136.17 67.50 136.06 66.06 134.34 C 65.74 134.78 65.09 135.66 64.76 136.11 C 66.27 136.64 67.77 137.23 69.39 137.38 C 69.37 138.87 68.94 140.24 67.21 140.41 C 67.21 139.66 67.21 138.16 67.21 137.41 C 66.00 138.47 64.79 139.55 63.60 140.64 C 64.75 141.49 65.90 142.33 67.05 143.19 C 66.28 143.27 64.75 143.42 63.99 143.50 C 67.08 145.71 66.38 149.59 66.06 152.88 C 68.93 152.80 71.80 152.75 74.67 152.68 C 74.05 154.26 73.44 155.84 72.82 157.42 C 69.91 156.68 66.85 155.58 63.92 156.82 C 64.50 157.03 65.67 157.45 66.25 157.66 C 66.53 160.57 66.35 163.49 66.29 166.41 C 65.06 165.93 63.84 165.42 62.64 164.87 C 63.03 157.93 62.58 150.97 62.79 144.02 C 62.88 141.19 61.87 138.17 63.52 135.60 Z" />
<path fill="#1f4b9c" d=" M 121.14 133.29 C 122.82 132.74 123.38 133.26 122.83 134.86 C 121.16 135.42 120.60 134.89 121.14 133.29 Z" />
<path fill="#1d4a9b" d=" M 136.82 132.69 C 139.33 132.33 141.87 132.30 144.40 132.20 C 144.19 135.97 144.23 139.73 144.39 143.50 C 141.92 143.48 138.72 144.68 137.18 141.99 C 138.85 141.48 140.52 141.02 142.20 140.58 C 139.57 139.99 136.95 138.81 136.30 135.91 C 138.12 136.10 139.95 136.31 141.76 136.55 C 141.84 136.26 141.99 135.68 142.06 135.39 C 140.26 135.37 138.46 135.36 136.66 135.21 C 136.70 134.58 136.78 133.32 136.82 132.69 Z" />
<path fill="#1d4a9b" d=" M 145.52 135.42 C 144.29 134.23 145.44 132.21 147.04 132.29 C 149.80 131.76 152.76 133.30 153.43 136.12 C 150.79 135.95 148.13 135.87 145.52 135.42 Z" />
<path fill="#1d4a9b" d=" M 202.43 132.35 C 205.80 132.51 210.42 131.48 211.99 135.39 L 210.06 135.66 C 212.10 137.87 211.23 140.94 211.18 143.61 C 208.66 143.65 206.14 143.68 203.62 143.64 C 203.66 141.38 206.05 141.50 207.51 140.80 C 208.12 139.02 208.90 137.32 209.90 135.73 C 206.97 135.85 203.44 135.73 202.43 132.35 Z" />
<path fill="#1d4a9b" d=" M 120.26 136.49 C 121.51 136.23 122.76 135.96 124.01 135.69 C 124.02 138.34 124.03 140.99 124.05 143.64 C 122.00 143.61 119.96 143.59 117.92 143.68 C 119.39 145.62 122.00 144.60 124.06 144.72 C 123.95 148.69 124.05 152.77 123.18 156.63 C 121.20 156.87 120.23 156.02 120.26 154.10 C 121.02 153.58 122.52 152.53 123.27 152.00 C 119.32 152.02 115.36 152.01 111.41 152.06 C 112.64 150.70 113.87 149.35 115.11 148.00 C 115.58 148.55 116.53 149.66 117.01 150.22 C 116.97 149.55 116.90 148.21 116.87 147.54 C 114.93 147.84 112.98 148.10 111.03 148.35 C 110.90 144.57 114.86 145.06 117.43 144.47 C 116.07 142.64 113.57 143.67 111.67 143.42 C 111.54 140.32 114.37 141.29 116.38 141.32 C 117.11 139.77 116.52 136.60 119.05 136.97 C 119.39 138.52 119.45 140.11 119.56 141.70 C 119.79 141.68 120.25 141.65 120.48 141.63 C 120.41 139.92 120.34 138.20 120.26 136.49 Z" />
<path fill="#1d4a9b" d=" M 161.96 136.03 C 163.18 136.27 164.40 136.52 165.62 136.76 C 165.55 138.19 165.49 139.62 165.43 141.06 C 166.61 140.57 167.78 140.07 168.96 139.59 C 169.06 140.58 169.25 142.56 169.35 143.55 C 164.11 143.52 158.87 143.43 153.64 143.64 C 153.34 141.66 153.01 139.69 152.63 137.73 C 152.56 138.38 152.44 139.68 152.38 140.33 C 151.56 140.20 149.94 139.95 149.12 139.82 C 149.05 139.02 148.89 137.44 148.82 136.64 C 151.13 136.69 153.46 136.65 155.76 136.94 C 156.43 138.47 156.90 140.08 157.36 141.69 C 158.08 140.06 158.18 135.18 161.09 136.79 C 161.31 138.53 161.38 140.28 161.51 142.03 C 161.69 140.03 161.81 138.03 161.96 136.03 Z" />
<path fill="#1d4a9b" d=" M 133.02 136.58 C 133.81 136.55 135.40 136.50 136.19 136.47 C 136.26 138.98 136.31 141.49 136.36 144.01 C 135.10 143.76 133.84 143.52 132.58 143.28 C 132.72 141.04 132.87 138.81 133.02 136.58 Z" />
<path fill="#26519f" d=" M 177.71 140.22 C 178.05 138.66 177.80 136.27 180.06 136.27 C 180.93 136.29 182.66 136.33 183.52 136.36 C 182.57 138.95 180.82 141.39 177.71 140.22 Z" />
<path fill="#1d4a9b" d=" M 182.61 141.60 C 183.25 139.55 183.31 136.99 185.31 135.69 C 185.81 137.91 184.76 140.79 186.74 142.49 C 186.93 140.45 186.99 138.40 187.05 136.35 C 189.45 136.58 191.84 136.80 194.24 137.02 C 194.19 137.75 194.09 139.21 194.04 139.94 C 192.65 139.78 191.26 139.62 189.88 139.46 C 190.07 140.43 190.45 142.38 190.64 143.35 C 184.65 143.30 178.65 143.40 172.66 143.17 C 173.48 141.95 174.40 140.79 175.54 139.85 C 177.61 141.37 180.13 141.57 182.61 141.60 Z" />
<path fill="#1d4a9b" d=" M 66.68 144.82 C 69.21 144.76 71.74 144.72 74.28 144.66 C 74.25 147.15 74.21 149.63 74.19 152.11 C 71.89 152.16 69.60 152.23 67.31 152.31 C 67.11 149.81 66.88 147.32 66.68 144.82 Z" />
<path fill="#1d4a9b" d=" M 132.80 144.84 C 136.69 144.79 140.58 144.74 144.47 144.68 C 144.42 147.12 144.37 149.57 144.32 152.01 C 142.09 152.10 139.87 152.25 137.65 152.35 C 137.33 150.52 137.07 148.67 136.83 146.82 C 136.16 146.85 134.81 146.92 134.14 146.95 C 134.40 148.77 134.68 150.58 134.94 152.40 C 136.36 153.90 135.96 155.99 133.65 155.86 C 133.93 152.12 132.04 148.62 132.80 144.84 Z" />
<path fill="#1d4a9b" d=" M 156.94 144.91 C 161.13 144.85 165.32 144.79 169.51 144.72 C 169.32 150.15 169.20 155.60 168.26 160.96 C 168.69 161.91 169.13 162.86 169.57 163.81 C 167.58 163.74 165.60 163.67 163.61 163.61 C 164.42 164.94 165.23 166.28 166.04 167.61 C 162.18 168.24 158.24 168.63 154.33 168.26 C 154.15 167.64 153.80 166.42 153.62 165.80 C 156.73 165.92 159.84 166.01 162.95 166.04 C 161.96 163.18 162.17 160.15 162.50 157.19 C 163.97 157.25 165.45 157.31 166.92 157.37 C 166.94 153.93 166.96 150.49 166.98 147.05 C 166.46 147.09 165.42 147.19 164.89 147.23 C 165.36 148.85 165.84 150.47 166.33 152.08 C 164.82 152.05 163.30 152.01 161.79 151.98 C 161.94 150.64 162.09 149.30 162.24 147.96 C 160.82 148.14 159.41 148.34 158.00 148.53 C 157.65 147.32 157.29 146.12 156.94 144.91 Z" />
<path fill="#1d4a9b" d=" M 170.13 144.66 C 175.20 145.25 180.31 145.48 185.38 144.77 C 185.52 145.79 185.66 146.81 185.81 147.83 C 184.29 147.55 182.78 147.28 181.27 147.00 C 181.50 148.59 181.73 150.19 181.96 151.79 C 181.29 151.82 179.95 151.89 179.27 151.93 C 178.98 150.12 178.69 148.32 178.24 146.55 C 177.75 148.51 177.59 150.54 177.44 152.56 C 176.10 152.07 174.77 151.59 173.43 151.11 C 174.17 149.75 174.93 148.39 175.70 147.04 C 175.13 147.13 174.01 147.30 173.44 147.39 C 172.80 149.25 172.08 151.08 171.25 152.87 C 170.70 150.15 170.38 147.41 170.13 144.66 Z" />
<path fill="#1d4a9b" d=" M 199.03 144.94 C 203.12 144.79 207.21 144.71 211.31 144.72 C 211.25 147.26 211.21 149.80 211.17 152.33 C 209.57 152.23 207.97 152.14 206.37 152.05 C 206.67 153.49 206.97 154.93 207.27 156.38 C 204.54 156.56 201.80 156.39 199.08 156.14 C 199.07 155.27 199.04 153.53 199.02 152.66 C 200.25 152.75 201.48 152.76 202.71 152.69 C 204.13 150.51 206.66 149.77 208.69 148.34 C 206.63 148.23 204.53 148.28 202.61 147.43 C 202.55 148.99 202.66 150.63 201.90 152.06 C 197.58 153.34 199.27 147.37 199.03 144.94 Z" />
<path fill="#1d4a9b" d=" M 112.44 155.00 C 111.32 153.85 113.72 153.04 114.57 153.39 C 115.50 153.96 116.12 154.82 116.44 155.97 C 115.21 155.55 112.87 156.76 112.44 155.00 Z" />
<path fill="#1d4a9b" d=" M 136.75 152.86 C 139.24 152.70 141.74 152.79 144.24 152.90 C 144.24 155.47 144.26 158.05 144.28 160.62 C 140.48 161.08 136.85 159.66 133.08 159.73 C 133.22 159.18 133.50 158.07 133.65 157.51 C 136.49 157.86 139.35 157.60 142.11 156.91 C 140.07 155.95 137.14 155.59 136.75 152.86 Z" />
<path fill="#2853a0" d=" M 208.33 153.23 C 210.41 151.35 212.45 156.01 209.88 156.65 C 207.96 157.07 206.56 154.27 208.33 153.23 Z" />
<path fill="#1c499a" d=" M 116.58 157.35 C 116.95 155.75 117.36 154.16 117.79 152.58 C 119.56 153.75 119.39 155.81 119.34 157.62 C 121.01 157.42 122.68 157.24 124.36 157.10 C 124.18 158.13 123.81 160.17 123.62 161.20 C 124.52 163.60 124.11 166.15 123.92 168.63 C 119.83 168.55 115.74 168.56 111.65 168.42 C 111.24 165.16 114.60 166.51 116.35 166.25 C 116.86 164.64 117.37 163.03 117.94 161.44 C 118.60 163.09 119.22 164.77 119.80 166.46 C 120.54 164.35 121.21 162.13 122.99 160.63 C 120.22 160.71 117.44 160.72 114.66 160.66 C 116.21 162.05 117.06 165.44 113.99 165.32 C 112.30 164.31 112.60 162.51 113.55 161.12 C 111.06 161.08 112.52 158.56 112.28 157.18 C 113.71 157.23 115.14 157.29 116.58 157.35 Z" />
<path fill="#1d4a9b" d=" M 169.97 153.35 C 173.01 153.39 176.04 153.46 179.07 153.73 C 177.75 156.47 175.04 155.81 172.77 154.96 C 172.92 156.79 173.06 158.63 173.21 160.46 C 172.49 160.22 171.06 159.73 170.35 159.48 C 171.46 157.44 171.69 155.20 169.97 153.35 Z" />
<path fill="#1d4a9b" d=" M 67.39 156.67 C 69.92 157.23 72.46 157.82 74.90 158.70 C 73.36 161.34 69.73 160.55 67.22 161.21 C 67.27 159.70 67.33 158.18 67.39 156.67 Z" />
<path fill="#1d4a9b" d=" M 199.64 158.03 C 200.55 156.40 203.26 158.00 201.98 159.51 C 201.03 161.01 198.47 159.53 199.64 158.03 Z" />
<path fill="#1e4b9b" d=" M 202.01 157.45 C 205.09 157.33 208.19 157.32 211.28 157.32 C 211.28 158.10 211.27 159.65 211.27 160.43 C 208.01 160.55 202.95 161.96 202.01 157.45 Z" />
<path fill="#fffffe" d=" M 164.39 160.00 C 165.44 158.47 167.81 160.34 166.64 161.75 C 165.61 163.29 163.27 161.38 164.39 160.00 Z" />
<path fill="#1d4a9b" d=" M 132.64 161.35 C 133.80 161.18 134.96 161.02 136.12 160.85 C 136.08 163.49 136.16 166.12 136.33 168.75 C 135.10 168.61 133.87 168.49 132.65 168.37 C 132.65 166.03 132.65 163.69 132.64 161.35 Z" />
<path fill="#1d4a9b" d=" M 158.41 161.35 C 159.90 160.75 161.72 162.18 160.52 163.69 C 158.93 164.61 156.59 162.84 158.41 161.35 Z" />
<path fill="#1d4a9b" d=" M 198.99 161.06 C 199.83 161.06 201.51 161.07 202.35 161.07 C 202.55 163.59 202.73 166.11 202.91 168.63 C 201.92 168.57 199.93 168.45 198.94 168.39 C 198.95 165.95 198.97 163.50 198.99 161.06 Z" />
<path fill="#1d4a9b" d=" M 202.98 160.99 C 204.39 161.23 205.80 161.48 207.22 161.73 C 207.25 163.96 207.25 166.20 207.24 168.43 C 206.31 168.48 204.45 168.57 203.52 168.61 C 203.34 166.07 203.17 163.53 202.98 160.99 Z" />
<path fill="#1d4a9b" d=" M 207.80 161.71 C 208.93 161.42 210.06 161.13 211.20 160.85 C 211.23 163.52 211.26 166.19 211.30 168.86 C 210.40 168.70 208.61 168.38 207.71 168.22 C 207.72 166.05 207.75 163.88 207.80 161.71 Z" />
<path fill="#3e64a9" d=" M 67.46 164.94 C 66.77 163.71 68.40 161.43 69.79 162.16 C 70.71 163.46 68.92 165.76 67.46 164.94 Z" />
<path fill="#1d4a9b" d=" M 72.65 161.77 C 75.30 163.03 74.01 166.30 74.31 168.60 C 71.90 168.49 69.09 169.27 67.27 167.21 C 69.98 166.39 72.09 164.67 72.65 161.77 Z" />
<path fill="#1d4a9b" d=" M 137.24 161.99 C 139.32 160.49 142.06 161.47 144.42 161.35 C 144.25 166.00 144.11 170.64 143.96 175.29 C 146.27 174.48 148.60 173.74 150.97 173.10 C 150.23 172.13 149.51 171.15 148.78 170.17 C 152.75 170.05 156.73 169.95 160.70 170.06 C 160.72 170.73 160.75 172.08 160.77 172.76 C 159.32 172.44 157.86 172.13 156.42 171.83 C 156.62 173.69 156.82 175.56 157.00 177.43 C 153.90 177.18 153.85 173.98 153.11 171.67 C 152.93 173.48 152.80 175.29 152.65 177.11 C 149.01 176.41 145.25 175.92 141.62 176.95 C 141.66 175.63 141.70 174.32 141.74 173.01 C 141.39 173.03 140.69 173.08 140.33 173.11 C 140.51 174.41 140.70 175.71 140.88 177.01 C 139.88 177.01 137.87 177.00 136.86 176.99 C 136.84 174.62 136.84 172.25 136.84 169.88 C 138.81 169.88 140.79 169.86 142.76 169.75 C 141.57 168.12 139.38 168.57 137.69 168.01 C 137.91 165.97 140.82 165.74 142.26 164.55 C 140.34 164.18 135.67 165.38 137.24 161.99 Z" />
<path fill="#1d4a9b" d=" M 63.16 166.94 C 64.04 165.83 66.77 166.87 65.50 168.28 C 64.63 169.37 61.94 168.34 63.16 166.94 Z" />
<path fill="#1d4a9b" d=" M 112.04 169.88 C 116.01 169.81 119.99 169.76 123.96 169.72 C 124.06 171.63 124.16 173.54 124.21 175.45 C 125.38 174.08 126.68 172.02 127.91 174.68 C 129.58 173.88 131.64 172.52 132.47 175.13 C 131.85 177.37 129.36 176.61 127.63 176.69 C 125.17 176.42 122.70 176.34 120.33 177.15 C 120.43 175.50 120.54 173.85 120.64 172.21 C 120.31 172.17 119.66 172.11 119.33 172.08 C 119.26 174.07 119.18 176.06 119.06 178.05 C 116.58 176.82 116.78 173.99 116.51 171.67 C 116.04 173.35 115.58 175.05 115.11 176.73 C 113.07 176.88 111.04 177.04 109.01 177.20 C 109.01 175.81 109.01 174.41 109.00 173.02 C 110.09 173.69 111.18 174.36 112.27 175.03 C 112.20 173.31 112.12 171.59 112.04 169.88 Z" />
<path fill="#1d4a9b" d=" M 132.42 169.82 C 133.38 169.81 135.29 169.80 136.25 169.79 C 135.94 172.28 136.74 175.48 134.31 177.11 C 133.17 174.83 132.70 172.33 132.42 169.82 Z" />
<path fill="#1d4a9b" d=" M 199.05 169.88 C 202.87 169.82 206.72 169.40 210.54 169.76 C 210.80 170.31 211.32 171.43 211.59 171.99 C 209.62 172.00 207.65 172.00 205.69 172.09 C 206.91 173.31 208.61 173.41 210.19 173.80 C 211.28 174.46 211.59 175.84 212.28 176.84 C 209.12 176.95 205.97 176.85 202.82 176.75 C 203.19 174.91 203.56 173.08 203.91 171.24 C 203.58 171.50 202.92 172.02 202.59 172.28 C 202.60 175.00 202.53 177.72 202.40 180.43 C 201.56 180.48 199.89 180.58 199.05 180.63 C 199.10 177.04 199.03 173.46 199.05 169.88 Z" />
<path fill="#1d4a9b" d=" M 75.01 174.49 C 77.48 173.95 79.98 173.53 82.50 173.25 C 82.63 174.54 82.76 175.84 82.89 177.15 C 80.30 176.81 77.70 176.55 75.09 176.49 C 75.07 175.99 75.03 174.99 75.01 174.49 Z" />
<path fill="#1d4a9b" d=" M 84.24 172.71 C 85.21 173.49 86.17 174.28 87.14 175.06 C 88.23 174.36 89.32 173.65 90.41 172.94 C 90.52 174.25 90.63 175.57 90.74 176.89 C 88.47 176.65 86.18 176.64 83.90 176.91 C 84.02 175.51 84.13 174.11 84.24 172.71 Z" />
<path fill="#1d4a9b" d=" M 91.64 173.55 C 96.96 174.00 102.31 173.87 107.64 173.62 C 107.67 174.43 107.71 176.07 107.73 176.88 C 102.48 176.86 97.23 176.84 91.98 176.91 C 91.90 176.07 91.72 174.39 91.64 173.55 Z" />
<path fill="#1d4a9b" d=" M 67.22 178.26 C 69.50 177.72 71.86 178.25 74.17 178.16 C 74.24 179.54 74.32 180.93 74.39 182.31 C 74.98 180.90 75.45 179.44 76.02 178.03 C 78.20 178.40 82.22 176.86 82.86 179.87 C 81.61 181.54 78.95 180.87 77.14 181.57 C 79.03 182.35 82.56 181.34 83.19 183.98 C 82.56 184.80 81.75 185.42 80.76 185.82 C 77.33 185.38 73.92 184.86 70.54 186.04 C 70.52 184.23 70.57 182.43 70.56 180.63 C 69.65 180.88 67.84 181.38 66.94 181.63 C 67.01 180.79 67.15 179.10 67.22 178.26 Z" />
<path fill="#1d4a9b" d=" M 100.42 178.31 C 103.35 178.49 108.04 177.02 108.54 181.28 C 107.05 181.36 105.55 181.43 104.06 181.48 L 103.70 179.06 C 103.17 180.13 102.66 181.22 102.15 182.31 C 104.37 182.46 106.59 182.61 108.81 182.77 C 108.86 181.27 108.92 179.76 108.98 178.26 C 116.74 178.23 124.62 179.26 132.27 177.44 C 132.25 178.32 132.20 180.08 132.18 180.97 C 126.60 180.76 120.93 181.42 115.45 180.01 C 115.55 181.77 115.63 183.53 115.71 185.30 C 112.79 185.25 109.87 185.16 106.95 185.03 C 107.30 187.85 107.65 190.68 108.01 193.50 C 106.45 193.54 104.89 193.59 103.32 193.63 C 103.41 191.72 103.52 189.82 103.67 187.92 C 103.08 189.70 102.39 191.46 101.33 193.02 C 100.63 190.70 100.15 188.34 99.75 185.96 C 101.45 186.13 103.16 186.30 104.86 186.49 C 104.61 186.11 104.10 185.37 103.84 184.99 C 103.07 185.17 101.53 185.53 100.76 185.71 C 100.65 183.24 100.54 180.78 100.42 178.31 Z" />
<path fill="#1d4a9b" d=" M 133.44 177.95 C 136.93 178.93 140.54 178.26 144.09 178.21 C 144.18 180.54 144.28 182.88 144.36 185.22 C 140.47 185.30 136.57 185.28 132.68 185.20 C 132.72 184.22 132.80 182.27 132.83 181.29 C 134.48 181.75 136.13 182.22 137.78 182.69 C 137.58 181.83 137.18 180.09 136.98 179.22 C 135.53 181.31 133.35 180.39 133.44 177.95 Z" />
<path fill="#1d4a9b" d=" M 203.06 177.83 C 206.17 177.77 210.53 176.51 211.82 180.39 C 209.37 180.66 206.75 180.37 204.55 181.67 C 206.91 181.94 209.28 181.75 211.64 181.52 C 211.55 182.39 211.39 184.15 211.31 185.03 C 206.88 185.07 202.44 185.48 198.03 184.94 C 198.98 183.60 199.32 181.50 201.09 181.02 C 201.64 181.80 202.73 183.35 203.28 184.13 C 203.22 182.03 203.14 179.93 203.06 177.83 Z" />
<path fill="#1d4a9b" d=" M 83.73 178.49 L 86.30 178.03 C 86.23 179.57 86.22 181.11 86.23 182.65 C 88.24 182.08 90.31 181.95 92.38 182.10 C 92.27 181.52 92.04 180.37 91.92 179.79 C 91.48 180.14 90.61 180.84 90.17 181.19 C 89.19 180.67 88.21 180.16 87.23 179.67 C 87.66 178.45 88.59 178.03 90.01 178.40 C 93.14 178.34 96.27 178.41 99.40 178.36 C 99.08 181.07 99.47 184.25 96.96 186.06 C 95.25 184.06 95.61 181.86 96.98 179.83 C 96.34 179.90 95.05 180.05 94.40 180.12 C 94.13 181.68 93.85 183.24 93.58 184.80 C 90.39 185.84 87.01 185.91 83.75 185.12 C 83.80 182.91 83.74 180.69 83.73 178.49 Z" />
<path fill="#2e57a2" d=" M 144.20 178.86 C 147.41 178.54 152.23 176.70 153.63 180.93 C 150.41 180.90 146.46 181.87 144.20 178.86 Z" />
<path fill="#9aaed1" d=" M 140.22 180.22 C 141.84 179.64 142.39 180.18 141.86 181.83 C 140.23 182.39 139.68 181.86 140.22 180.22 Z" />
<path fill="#3e3e3e" d=" M 260.93 187.29 C 261.96 186.37 263.03 185.49 264.09 184.61 C 264.85 184.56 266.36 184.45 267.12 184.39 C 267.69 185.38 268.28 186.36 268.88 187.34 C 269.27 187.39 270.05 187.50 270.44 187.55 C 269.78 187.86 268.48 188.47 267.83 188.77 L 267.55 188.92 L 267.14 186.96 C 265.85 187.88 264.57 188.81 263.31 189.77 C 262.58 189.48 261.10 188.91 260.36 188.62 C 260.86 188.56 261.86 188.45 262.36 188.39 L 263.17 188.02 C 262.61 187.83 261.49 187.47 260.93 187.29 Z" />
<path fill="#1d4a9b" d=" M 75.30 185.63 C 82.41 187.19 89.68 186.22 96.88 186.06 C 97.76 186.60 99.67 187.04 98.74 188.41 C 94.97 189.73 90.90 189.96 86.94 189.62 C 84.94 189.50 82.77 188.39 81.01 189.94 C 80.44 189.78 79.31 189.45 78.74 189.29 C 77.90 189.45 76.21 189.77 75.37 189.93 C 75.35 188.85 75.32 186.70 75.30 185.63 Z" />
<path fill="#9b9b9b" d=" M 251.05 196.36 C 254.66 193.69 257.77 190.45 260.93 187.29 C 261.49 187.47 262.61 187.83 263.17 188.02 L 262.36 188.39 C 261.86 188.45 260.86 188.56 260.36 188.62 C 261.10 188.91 262.58 189.48 263.31 189.77 C 260.23 193.05 256.92 196.10 253.72 199.26 C 253.61 198.89 253.38 198.15 253.27 197.77 C 252.13 197.65 251.00 197.55 249.87 197.47 C 248.59 196.51 247.32 195.54 246.04 194.60 C 245.30 194.03 244.56 193.47 243.83 192.91 C 243.99 192.55 244.30 191.83 244.45 191.47 C 246.57 193.21 248.80 194.79 251.05 196.36 Z" />
<path fill="#ebeaea" d=" M 263.31 189.77 C 264.57 188.81 265.85 187.88 267.14 186.96 L 267.55 188.92 C 267.72 191.04 269.35 193.63 267.38 195.35 C 263.60 199.60 259.71 203.81 255.32 207.46 C 251.91 210.37 249.24 214.02 246.10 217.21 C 244.92 216.88 243.74 216.56 242.56 216.25 C 242.49 214.78 242.43 213.31 242.39 211.84 C 245.12 208.43 247.95 205.09 251.07 202.01 C 251.95 201.09 252.84 200.19 253.72 199.26 C 256.92 196.10 260.23 193.05 263.31 189.77 Z" />
<path fill="#595959" d=" M 267.83 188.77 C 268.48 188.47 269.78 187.86 270.44 187.55 L 271.02 187.57 C 272.10 189.50 273.26 191.39 274.57 193.18 C 274.91 197.36 271.29 200.01 269.17 203.13 L 268.23 202.42 C 268.08 201.88 267.78 200.81 267.63 200.27 C 268.93 198.09 270.34 195.99 271.78 193.90 C 270.46 192.19 269.14 190.48 267.83 188.77 Z" />
<path fill="#aaaaaa" d=" M 267.55 188.92 L 267.83 188.77 C 269.14 190.48 270.46 192.19 271.78 193.90 C 270.34 195.99 268.93 198.09 267.63 200.27 L 267.22 200.96 C 267.47 201.32 267.98 202.05 268.23 202.42 L 269.17 203.13 C 268.51 203.99 267.83 204.84 267.14 205.67 L 266.28 205.69 C 265.70 205.40 264.54 204.81 263.96 204.52 C 261.68 205.92 259.56 207.56 257.48 209.24 L 257.38 209.47 C 253.95 213.09 250.62 216.92 246.31 219.54 C 244.98 218.53 243.64 217.52 242.56 216.25 C 243.74 216.56 244.92 216.88 246.10 217.21 C 249.24 214.02 251.91 210.37 255.32 207.46 C 259.71 203.81 263.60 199.60 267.38 195.35 C 269.35 193.63 267.72 191.04 267.55 188.92 Z" />
<path fill="#1d4a9b" d=" M 97.94 193.28 C 94.84 193.69 95.50 188.47 98.25 190.74 C 99.05 191.76 98.94 192.61 97.94 193.28 Z" />
<path fill="#1d4a9b" d=" M 108.11 201.57 C 108.67 197.50 107.60 192.96 109.85 189.31 C 110.45 189.79 111.64 190.76 112.24 191.24 C 111.57 192.41 110.88 193.57 110.19 194.73 C 112.66 194.66 115.87 193.95 116.72 197.10 C 114.92 196.93 113.12 196.75 111.33 196.54 C 111.33 198.42 111.34 200.32 111.34 202.21 C 110.53 202.05 108.92 201.73 108.11 201.57 Z" />
<path fill="#241e2c" d=" M 221.36 191.88 C 228.47 188.81 237.33 187.99 243.83 192.91 L 245.10 194.48 C 241.61 196.86 238.63 193.14 235.22 192.60 C 232.27 192.14 229.22 192.09 226.29 192.66 C 223.68 194.01 221.76 196.37 219.98 198.64 C 216.48 202.86 213.48 207.49 211.24 212.50 C 211.43 207.88 213.73 203.79 215.20 199.51 C 217.22 196.94 219.33 194.44 221.36 191.88 Z" />
<path fill="#d38684" d=" M 219.98 198.64 C 221.76 196.37 223.68 194.01 226.29 192.66 C 229.22 192.09 232.27 192.14 235.22 192.60 C 238.63 193.14 241.61 196.86 245.10 194.48 L 243.83 192.91 C 244.56 193.47 245.30 194.03 246.04 194.60 C 245.46 194.84 244.31 195.34 243.73 195.59 L 244.89 196.55 C 244.46 196.29 243.60 195.75 243.17 195.48 C 241.15 196.39 239.09 197.34 236.85 197.48 C 235.90 193.27 230.96 194.95 227.86 194.60 C 226.43 195.63 225.00 196.67 223.56 197.68 C 223.29 197.87 222.75 198.26 222.47 198.45 C 222.39 199.41 222.33 200.38 222.30 201.36 C 220.65 202.46 219.00 203.55 217.40 204.72 C 218.41 202.76 219.17 200.69 219.98 198.64 Z" />
<path fill="#1d4a9b" d=" M 100.30 195.53 C 102.65 195.17 105.24 194.71 107.13 196.52 C 105.04 196.94 102.93 197.25 100.79 197.31 C 100.67 196.86 100.42 195.98 100.30 195.53 Z" />
<path fill="#bc2f29" d=" M 223.56 197.68 C 225.00 196.67 226.43 195.63 227.86 194.60 C 230.96 194.95 235.90 193.27 236.85 197.48 C 234.20 197.54 231.50 197.55 228.97 198.43 C 226.74 201.76 226.16 205.76 226.25 209.69 C 223.09 206.25 225.01 201.72 226.57 198.05 C 225.82 197.96 224.31 197.77 223.56 197.68 Z" />
<path fill="#3c3131" d=" M 243.73 195.59 C 244.31 195.34 245.46 194.84 246.04 194.60 C 247.32 195.54 248.59 196.51 249.87 197.47 C 251.00 197.55 252.13 197.65 253.27 197.77 C 253.38 198.15 253.61 198.89 253.72 199.26 C 252.84 200.19 251.95 201.09 251.07 202.01 L 250.51 201.59 C 248.63 199.91 246.88 198.10 244.89 196.55 L 243.73 195.59 Z" />
<path fill="#c54844" d=" M 236.85 197.48 C 239.09 197.34 241.15 196.39 243.17 195.48 C 243.60 195.75 244.46 196.29 244.89 196.55 C 246.88 198.10 248.63 199.91 250.51 201.59 C 248.34 202.22 246.20 203.59 243.86 203.05 C 239.94 198.98 234.27 198.65 228.97 198.43 C 231.50 197.55 234.20 197.54 236.85 197.48 Z" />
<path fill="#1d4a9b" d=" M 104.50 198.47 C 106.20 197.19 107.70 199.52 107.04 201.12 C 105.36 202.72 102.97 199.98 104.50 198.47 Z" />
<path fill="#1d4a9b" d=" M 111.61 201.80 C 111.87 200.28 112.13 198.76 112.39 197.25 C 114.93 197.93 117.54 198.26 120.11 198.75 C 120.25 199.49 120.53 200.99 120.67 201.73 C 117.65 201.80 114.63 201.81 111.61 201.80 Z" />
<path fill="#c10e09" d=" M 222.47 198.45 C 222.75 198.26 223.29 197.87 223.56 197.68 C 224.31 197.77 225.82 197.96 226.57 198.05 C 225.01 201.72 223.09 206.25 226.25 209.69 C 226.65 212.42 227.30 215.12 228.36 217.66 C 228.24 218.39 228.01 219.83 227.90 220.55 C 226.81 219.72 225.72 218.90 224.62 218.09 C 224.25 212.44 221.53 207.14 222.30 201.36 C 222.33 200.38 222.39 199.41 222.47 198.45 Z" />
<path fill="#242424" d=" M 270.29 198.23 C 270.77 198.74 270.77 198.74 270.29 198.23 Z" />
<path fill="#6e4a54" d=" M 211.24 212.50 C 213.48 207.49 216.48 202.86 219.98 198.64 C 219.17 200.69 218.41 202.76 217.40 204.72 C 214.21 208.49 213.10 213.38 211.85 218.03 C 208.70 228.99 208.28 240.87 211.13 251.93 C 211.57 255.16 211.90 258.43 212.80 261.58 C 212.40 261.23 211.60 260.53 211.19 260.18 C 211.39 254.87 207.78 250.32 208.37 245.01 C 208.93 237.58 208.78 230.13 208.20 222.71 C 209.00 219.64 209.59 216.45 208.85 213.30 C 209.59 213.56 210.33 213.79 211.02 214.18 C 211.07 213.76 211.18 212.92 211.24 212.50 Z" />
<path fill="#d3918f" d=" M 226.25 209.69 C 226.16 205.76 226.74 201.76 228.97 198.43 C 234.27 198.65 239.94 198.98 243.86 203.05 C 242.63 205.62 241.01 207.98 239.66 210.49 C 239.33 213.14 240.03 215.79 240.37 218.40 C 238.19 216.15 236.75 213.37 236.57 210.21 C 236.29 214.39 231.57 216.64 232.08 220.98 C 232.03 222.38 232.04 223.78 232.12 225.18 C 230.83 222.69 229.51 220.21 228.36 217.66 C 227.30 215.12 226.65 212.42 226.25 209.69 Z" />
<path fill="#292929" d=" M 267.63 200.27 C 267.78 200.81 268.08 201.88 268.23 202.42 C 267.98 202.05 267.47 201.32 267.22 200.96 L 267.63 200.27 Z" />
<path fill="#db433d" d=" M 217.40 204.72 C 219.00 203.55 220.65 202.46 222.30 201.36 C 221.53 207.14 224.25 212.44 224.62 218.09 C 222.98 215.07 221.62 211.91 220.65 208.62 C 220.41 212.77 220.40 216.94 220.16 221.10 C 219.78 221.29 219.01 221.67 218.63 221.86 C 219.80 218.50 219.38 214.78 216.24 212.71 C 215.01 218.58 212.81 224.28 212.40 230.31 C 212.06 236.02 210.52 241.78 212.10 247.45 C 213.19 245.34 214.21 243.16 214.78 240.84 C 214.52 244.41 214.77 248.04 216.22 251.36 C 216.26 251.50 216.32 251.78 216.35 251.92 C 217.71 246.66 220.68 242.07 222.60 237.03 C 222.71 236.78 222.92 236.28 223.03 236.03 C 223.09 235.95 223.22 235.77 223.28 235.69 C 224.87 234.82 226.55 234.12 228.21 233.41 C 229.27 235.31 230.31 237.23 231.47 239.08 C 230.02 237.74 228.49 236.48 226.98 235.23 C 223.21 238.85 221.02 243.63 219.16 248.43 C 217.49 252.21 217.49 256.39 217.51 260.44 C 217.48 262.50 217.40 264.58 217.26 266.64 C 216.83 267.14 215.96 268.13 215.52 268.62 C 215.14 267.72 214.38 265.91 214.00 265.01 C 213.60 263.86 213.21 262.72 212.80 261.58 C 211.90 258.43 211.57 255.16 211.13 251.93 C 208.28 240.87 208.70 228.99 211.85 218.03 C 213.10 213.38 214.21 208.49 217.40 204.72 Z" />
<path fill="#9d7675" d=" M 243.86 203.05 C 246.20 203.59 248.34 202.22 250.51 201.59 L 251.07 202.01 C 247.95 205.09 245.12 208.43 242.39 211.84 C 242.43 213.31 242.49 214.78 242.56 216.25 C 243.64 217.52 244.98 218.53 246.31 219.54 C 246.00 222.01 247.70 223.41 249.73 224.41 L 250.09 225.20 C 250.67 222.80 251.16 220.32 252.44 218.16 C 252.85 220.17 253.24 222.18 253.62 224.20 L 255.33 224.54 C 253.02 226.09 250.34 226.94 247.55 226.37 C 244.84 224.01 242.47 221.30 240.37 218.40 C 240.03 215.79 239.33 213.14 239.66 210.49 C 241.01 207.98 242.63 205.62 243.86 203.05 Z" />
<path fill="#2a2a2a" d=" M 265.93 203.01 C 266.49 203.57 266.49 203.57 265.93 203.01 Z" />
<path fill="#3f2623" d=" M 257.48 209.24 C 259.56 207.56 261.68 205.92 263.96 204.52 C 264.54 204.81 265.70 205.40 266.28 205.69 L 265.10 205.87 C 265.27 206.21 265.60 206.90 265.77 207.25 L 264.62 207.51 C 264.21 207.60 263.39 207.80 262.98 207.90 C 264.69 211.78 268.11 214.54 270.44 218.02 C 271.25 217.58 272.06 217.15 272.87 216.70 C 273.93 216.26 275.00 215.84 276.08 215.43 C 275.66 216.65 275.25 217.87 274.77 219.06 C 273.74 220.35 272.70 221.63 271.70 222.94 C 271.44 223.11 270.93 223.44 270.67 223.61 C 269.18 223.96 267.68 224.27 266.19 224.63 C 268.88 221.92 266.93 218.45 264.85 216.09 C 262.90 213.56 260.34 211.27 256.93 211.34 C 257.05 210.87 257.27 209.94 257.38 209.47 L 257.48 209.24 Z" />
<path fill="#cbcbca" d=" M 262.98 207.90 C 263.39 207.80 264.21 207.60 264.62 207.51 C 266.74 211.05 268.98 215.62 273.83 215.55 L 272.87 216.70 C 272.06 217.15 271.25 217.58 270.44 218.02 C 268.11 214.54 264.69 211.78 262.98 207.90 Z" />
<path fill="#5b5b5b" d=" M 273.83 215.55 C 276.25 212.64 278.99 210.02 281.76 207.45 C 282.59 207.51 284.26 207.62 285.09 207.67 C 282.95 212.47 278.22 215.29 274.77 219.06 C 275.25 217.87 275.66 216.65 276.08 215.43 C 275.00 215.84 273.93 216.26 272.87 216.70 L 273.83 215.55 Z" />
<path fill="#e6e5e5" d=" M 285.09 207.67 C 285.27 207.72 285.63 207.81 285.81 207.86 C 286.16 208.22 286.86 208.95 287.22 209.31 C 286.61 209.37 285.39 209.48 284.78 209.54 C 285.58 212.13 286.68 214.61 287.46 217.21 C 286.31 219.48 283.80 220.26 281.56 221.00 C 281.45 222.19 281.36 223.38 281.17 224.57 C 279.86 225.38 278.56 226.20 277.25 227.01 C 274.16 230.35 271.45 234.04 268.10 237.14 C 267.78 237.88 267.46 238.62 267.14 239.37 C 265.48 239.79 263.83 240.22 262.18 240.66 C 261.56 239.77 260.94 238.89 260.32 238.01 C 260.29 231.43 266.80 227.99 270.67 223.61 C 270.93 223.44 271.44 223.11 271.70 222.94 C 272.70 221.63 273.74 220.35 274.77 219.06 C 278.22 215.29 282.95 212.47 285.09 207.67 Z" />
<path fill="#f9a49b" d=" M 220.65 208.62 C 221.62 211.91 222.98 215.07 224.62 218.09 C 228.28 226.24 232.28 234.39 237.60 241.57 C 237.64 242.40 237.72 244.04 237.76 244.86 C 236.51 244.06 235.26 243.27 234.03 242.45 C 233.18 241.32 232.33 240.20 231.47 239.08 C 230.31 237.23 229.27 235.31 228.21 233.41 C 226.55 234.12 224.87 234.82 223.28 235.69 C 224.45 232.94 227.20 232.49 229.83 232.18 C 227.84 228.07 225.64 224.08 223.28 220.17 C 222.52 220.39 221.76 220.60 221.01 220.83 L 220.16 221.10 C 220.40 216.94 220.41 212.77 220.65 208.62 Z" />
<path fill="#707070" d=" M 287.22 209.31 C 288.36 210.53 289.42 211.83 290.51 213.10 C 290.56 215.77 290.82 218.46 290.35 221.10 C 288.65 223.44 286.00 224.91 283.90 226.88 C 282.62 229.06 281.00 231.33 281.39 234.02 C 282.09 237.83 283.73 241.38 285.08 245.00 C 285.19 245.39 285.41 246.17 285.52 246.56 C 285.28 253.25 287.31 260.74 283.24 266.67 C 284.05 261.81 286.21 256.93 284.93 251.95 C 283.85 247.06 282.59 242.18 280.62 237.55 C 279.16 234.60 280.26 231.24 279.34 228.15 C 279.99 226.98 280.60 225.78 281.17 224.57 C 281.36 223.38 281.45 222.19 281.56 221.00 C 283.80 220.26 286.31 219.48 287.46 217.21 C 286.68 214.61 285.58 212.13 284.78 209.54 C 285.39 209.48 286.61 209.37 287.22 209.31 Z" />
<path fill="#d8a09d" d=" M 232.08 220.98 C 231.57 216.64 236.29 214.39 236.57 210.21 C 236.75 213.37 238.19 216.15 240.37 218.40 C 242.47 221.30 244.84 224.01 247.55 226.37 C 250.57 229.28 253.72 232.14 255.96 235.73 C 257.50 238.52 259.22 241.25 261.52 243.49 C 261.57 244.66 261.62 245.83 261.67 247.01 C 258.90 246.59 256.16 245.85 253.35 245.78 C 251.98 246.50 250.83 247.58 249.62 248.53 C 249.09 247.59 248.58 246.66 248.08 245.72 L 247.49 245.60 C 245.05 243.03 242.51 240.56 240.09 237.98 C 237.36 233.76 234.41 229.66 232.12 225.18 C 232.04 223.78 232.03 222.38 232.08 220.98 Z" />
<path fill="#7c5a5a" d=" M 246.31 219.54 C 250.62 216.92 253.95 213.09 257.38 209.47 C 257.27 209.94 257.05 210.87 256.93 211.34 C 256.71 212.33 256.48 213.32 256.22 214.30 C 255.00 215.63 253.70 216.88 252.44 218.16 C 251.16 220.32 250.67 222.80 250.09 225.20 L 249.73 224.41 C 247.70 223.41 246.00 222.01 246.31 219.54 Z" />
<path fill="#cc605c" d=" M 256.93 211.34 C 260.34 211.27 262.90 213.56 264.85 216.09 C 264.05 217.37 263.25 218.65 262.45 219.94 C 261.49 218.39 260.50 216.86 259.43 215.40 C 258.36 215.01 257.28 214.66 256.22 214.30 C 256.48 213.32 256.71 212.33 256.93 211.34 Z" />
<path fill="#dc120c" d=" M 216.24 212.71 C 219.38 214.78 219.80 218.50 218.63 221.86 C 216.58 228.00 215.01 234.35 214.78 240.84 C 214.21 243.16 213.19 245.34 212.10 247.45 C 210.52 241.78 212.06 236.02 212.40 230.31 C 212.81 224.28 215.01 218.58 216.24 212.71 Z" />
<path fill="#bc8583" d=" M 252.44 218.16 C 253.70 216.88 255.00 215.63 256.22 214.30 C 257.28 214.66 258.36 215.01 259.43 215.40 C 257.35 216.02 254.59 216.70 254.36 219.32 C 255.35 223.25 257.55 226.75 259.03 230.52 C 257.64 232.01 256.57 233.77 255.96 235.73 C 253.72 232.14 250.57 229.28 247.55 226.37 C 250.34 226.94 253.02 226.09 255.33 224.54 L 253.62 224.20 C 253.24 222.18 252.85 220.17 252.44 218.16 Z" />
<path fill="#e79e9c" d=" M 254.36 219.32 C 254.59 216.70 257.35 216.02 259.43 215.40 C 260.50 216.86 261.49 218.39 262.45 219.94 C 263.50 221.63 264.56 223.31 265.64 224.99 C 263.20 226.53 261.00 228.41 259.03 230.52 C 257.55 226.75 255.35 223.25 254.36 219.32 Z" />
<path fill="#ca443f" d=" M 264.85 216.09 C 266.93 218.45 268.88 221.92 266.19 224.63 L 265.64 224.99 C 264.56 223.31 263.50 221.63 262.45 219.94 C 263.25 218.65 264.05 217.37 264.85 216.09 Z" />
<path fill="#f82220" d=" M 224.62 218.09 C 225.72 218.90 226.81 219.72 227.90 220.55 C 228.01 219.83 228.24 218.39 228.36 217.66 C 229.51 220.21 230.83 222.69 232.12 225.18 C 234.41 229.66 237.36 233.76 240.09 237.98 C 238.50 239.09 238.60 240.86 238.97 242.54 L 237.60 241.57 C 232.28 234.39 228.28 226.24 224.62 218.09 Z" />
<path fill="#f9d2ce" d=" M 221.01 220.83 C 221.76 220.60 222.52 220.39 223.28 220.17 C 225.64 224.08 227.84 228.07 229.83 232.18 C 227.20 232.49 224.45 232.94 223.28 235.69 C 223.22 235.77 223.09 235.95 223.03 236.03 C 222.92 236.28 222.71 236.78 222.60 237.03 C 221.75 236.92 220.05 236.70 219.20 236.59 C 218.88 233.41 218.62 230.21 218.93 227.02 C 219.59 224.94 220.33 222.89 221.01 220.83 Z" />
<path fill="#ef6760" d=" M 220.16 221.10 L 221.01 220.83 C 220.33 222.89 219.59 224.94 218.93 227.02 C 215.93 234.80 215.80 243.15 216.22 251.36 C 214.77 248.04 214.52 244.41 214.78 240.84 C 215.01 234.35 216.58 228.00 218.63 221.86 C 219.01 221.67 219.78 221.29 220.16 221.10 Z" />
<path fill="#473e3d" d=" M 206.40 240.12 C 206.33 234.27 206.45 228.34 208.20 222.71 C 208.78 230.13 208.93 237.58 208.37 245.01 C 207.78 250.32 211.39 254.87 211.19 260.18 C 211.60 260.53 212.40 261.23 212.80 261.58 C 213.21 262.72 213.60 263.86 214.00 265.01 C 211.54 269.47 208.88 273.84 205.63 277.77 C 205.26 276.76 204.91 275.76 204.55 274.76 C 206.34 272.23 208.28 269.79 210.50 267.62 C 210.53 266.39 210.43 265.18 210.21 263.99 C 207.81 256.28 205.95 248.26 206.40 240.12 Z" />
<path fill="#926867" d=" M 266.19 224.63 C 267.68 224.27 269.18 223.96 270.67 223.61 C 266.80 227.99 260.29 231.43 260.32 238.01 C 260.94 238.89 261.56 239.77 262.18 240.66 C 262.88 241.72 263.46 242.83 264.10 243.93 C 267.34 241.95 269.99 239.23 272.62 236.51 C 272.94 236.87 273.60 237.58 273.93 237.93 C 271.92 240.85 270.48 244.11 269.32 247.45 C 268.47 247.44 267.61 247.43 266.76 247.43 C 264.99 246.15 263.20 244.89 261.52 243.49 C 259.22 241.25 257.50 238.52 255.96 235.73 C 256.57 233.77 257.64 232.01 259.03 230.52 C 261.00 228.41 263.20 226.53 265.64 224.99 L 266.19 224.63 Z" />
<path fill="#a99f9f" d=" M 277.25 227.01 C 278.56 226.20 279.86 225.38 281.17 224.57 C 280.60 225.78 279.99 226.98 279.34 228.15 C 278.06 229.81 276.71 231.42 275.49 233.12 C 275.19 233.59 274.59 234.53 274.29 235.00 C 274.20 235.73 274.02 237.20 273.93 237.93 C 273.60 237.58 272.94 236.87 272.62 236.51 C 269.99 239.23 267.34 241.95 264.10 243.93 C 263.46 242.83 262.88 241.72 262.18 240.66 C 263.83 240.22 265.48 239.79 267.14 239.37 C 267.46 238.62 267.78 237.88 268.10 237.14 C 271.45 234.04 274.16 230.35 277.25 227.01 Z" />
<path fill="#f8ada3" d=" M 216.22 251.36 C 215.80 243.15 215.93 234.80 218.93 227.02 C 218.62 230.21 218.88 233.41 219.20 236.59 C 220.05 236.70 221.75 236.92 222.60 237.03 C 220.68 242.07 217.71 246.66 216.35 251.92 C 216.32 251.78 216.26 251.50 216.22 251.36 Z" />
<path fill="#231313" d=" M 279.34 228.15 C 280.26 231.24 279.16 234.60 280.62 237.55 C 282.59 242.18 283.85 247.06 284.93 251.95 C 286.21 256.93 284.05 261.81 283.24 266.67 C 282.88 267.38 282.51 268.09 282.14 268.80 C 282.02 269.04 281.76 269.52 281.63 269.76 C 275.77 277.67 266.67 282.80 257.02 284.37 C 246.58 284.82 235.20 285.74 226.09 279.59 C 225.04 279.42 223.99 279.27 222.95 279.12 C 222.27 278.31 221.58 277.51 220.90 276.72 C 220.22 275.96 219.54 275.21 218.86 274.46 C 215.84 276.85 213.80 280.45 210.13 281.94 C 211.52 277.63 213.95 273.79 215.93 269.75 C 218.17 271.54 220.50 273.22 222.59 275.20 C 224.03 276.69 225.90 277.62 227.82 278.33 C 232.08 279.87 236.33 281.90 240.97 281.64 C 246.60 281.44 252.30 282.06 257.88 281.12 C 262.36 279.64 266.84 277.80 270.56 274.83 C 272.87 273.01 275.21 271.22 277.46 269.32 L 277.77 269.02 C 282.67 264.53 283.42 257.23 282.62 251.00 C 281.50 244.65 279.84 238.08 275.49 233.12 C 276.71 231.42 278.06 229.81 279.34 228.15 Z" />
<path fill="#610b07" d=" M 274.29 235.00 C 274.59 234.53 275.19 233.59 275.49 233.12 C 279.84 238.08 281.50 244.65 282.62 251.00 C 283.42 257.23 282.67 264.53 277.77 269.02 C 278.99 264.93 280.70 260.83 280.59 256.49 C 280.60 254.60 280.63 252.72 280.56 250.84 C 280.23 245.15 279.09 238.69 274.29 235.00 Z" />
<path fill="#f21511" d=" M 226.98 235.23 C 228.49 236.48 230.02 237.74 231.47 239.08 C 232.33 240.20 233.18 241.32 234.03 242.45 C 235.48 244.87 236.97 247.35 239.26 249.09 C 235.54 252.92 229.97 254.09 224.85 253.09 C 222.53 252.16 220.97 250.06 219.16 248.43 C 221.02 243.63 223.21 238.85 226.98 235.23 Z" />
<path fill="#a11b15" d=" M 273.93 237.93 C 274.02 237.20 274.20 235.73 274.29 235.00 C 279.09 238.69 280.23 245.15 280.56 250.84 C 276.53 247.48 277.69 241.35 273.93 237.93 Z" />
<path fill="#c5807d" d=" M 273.93 237.93 C 277.69 241.35 276.53 247.48 280.56 250.84 C 280.63 252.72 280.60 254.60 280.59 256.49 L 280.14 254.94 C 279.28 251.46 277.99 248.10 276.16 245.01 C 275.99 246.97 275.84 248.93 275.70 250.90 C 275.04 249.10 274.37 247.31 273.66 245.53 C 272.99 246.66 272.28 247.77 271.78 248.99 C 272.04 252.49 275.99 252.91 278.57 253.95 C 278.50 255.73 278.42 257.50 278.35 259.28 C 274.79 262.38 269.69 261.64 265.52 260.36 C 261.29 258.75 257.61 256.00 254.02 253.31 C 255.41 252.55 256.81 251.79 258.20 251.04 C 258.41 252.52 258.62 254.00 258.83 255.49 C 263.06 253.59 267.74 253.71 272.28 253.68 C 271.08 251.09 269.16 248.97 266.76 247.43 C 267.61 247.43 268.47 247.44 269.32 247.45 C 270.48 244.11 271.92 240.85 273.93 237.93 Z" />
<path fill="#e5130d" d=" M 238.97 242.54 C 238.60 240.86 238.50 239.09 240.09 237.98 C 241.67 243.62 246.74 247.06 250.32 251.38 C 246.08 254.21 242.08 257.60 237.14 259.15 C 233.80 260.22 230.49 261.46 227.02 262.02 C 223.79 262.08 220.66 261.05 217.51 260.44 C 217.49 256.39 217.49 252.21 219.16 248.43 C 220.97 250.06 222.53 252.16 224.85 253.09 C 229.97 254.09 235.54 252.92 239.26 249.09 C 240.41 249.45 241.57 249.79 242.74 250.12 C 241.99 247.37 240.97 244.64 238.97 242.54 Z" />
<path fill="#c34c49" d=" M 240.09 237.98 C 242.51 240.56 245.05 243.03 247.49 245.60 L 248.08 245.72 C 248.58 246.66 249.09 247.59 249.62 248.53 C 250.86 250.31 252.39 251.87 254.02 253.31 C 257.61 256.00 261.29 258.75 265.52 260.36 C 269.69 261.64 274.79 262.38 278.35 259.28 L 279.16 258.55 C 278.50 260.17 278.53 262.80 276.30 263.11 C 271.88 264.14 267.03 264.13 262.90 262.07 C 260.49 260.92 258.25 259.46 256.16 257.82 C 254.15 255.73 252.30 253.49 250.32 251.38 C 246.74 247.06 241.67 243.62 240.09 237.98 Z" />
<path fill="#f24d44" d=" M 237.60 241.57 L 238.97 242.54 C 240.97 244.64 241.99 247.37 242.74 250.12 C 241.57 249.79 240.41 249.45 239.26 249.09 C 236.97 247.35 235.48 244.87 234.03 242.45 C 235.26 243.27 236.51 244.06 237.76 244.86 C 237.72 244.04 237.64 242.40 237.60 241.57 Z" />
<path fill="#ce908d" d=" M 261.52 243.49 C 263.20 244.89 264.99 246.15 266.76 247.43 C 269.16 248.97 271.08 251.09 272.28 253.68 C 267.74 253.71 263.06 253.59 258.83 255.49 C 258.62 254.00 258.41 252.52 258.20 251.04 C 256.81 251.79 255.41 252.55 254.02 253.31 C 252.39 251.87 250.86 250.31 249.62 248.53 C 250.83 247.58 251.98 246.50 253.35 245.78 C 256.16 245.85 258.90 246.59 261.67 247.01 C 261.62 245.83 261.57 244.66 261.52 243.49 Z" />
<path fill="#aa706e" d=" M 275.70 250.90 C 275.84 248.93 275.99 246.97 276.16 245.01 C 277.99 248.10 279.28 251.46 280.14 254.94 C 279.84 256.15 279.51 257.35 279.16 258.55 L 278.35 259.28 C 278.42 257.50 278.50 255.73 278.57 253.95 C 275.99 252.91 272.04 252.49 271.78 248.99 C 272.28 247.77 272.99 246.66 273.66 245.53 C 274.37 247.31 275.04 249.10 275.70 250.90 Z" />
<path fill="#c4c4c3" d=" M 285.52 246.56 C 286.93 250.90 286.54 255.52 286.49 260.01 C 286.51 263.05 285.61 266.00 284.32 268.73 C 283.57 269.78 282.81 270.82 282.01 271.83 L 281.16 272.88 C 281.28 272.10 281.52 270.54 281.63 269.76 C 281.76 269.52 282.02 269.04 282.14 268.80 C 282.51 268.09 282.88 267.38 283.24 266.67 C 287.31 260.74 285.28 253.25 285.52 246.56 Z" />
<path fill="#d20e08" d=" M 237.14 259.15 C 242.08 257.60 246.08 254.21 250.32 251.38 C 252.30 253.49 254.15 255.73 256.16 257.82 C 251.62 255.96 249.40 261.65 245.36 262.47 C 236.26 264.99 226.84 269.15 217.26 266.64 C 217.40 264.58 217.48 262.50 217.51 260.44 C 220.66 261.05 223.79 262.08 227.02 262.02 C 230.49 261.46 233.80 260.22 237.14 259.15 Z" />
<path fill="#9d120e" d=" M 280.14 254.94 L 280.59 256.49 C 280.70 260.83 278.99 264.93 277.77 269.02 L 277.46 269.32 C 272.72 269.22 267.93 269.62 263.23 268.86 C 262.49 266.20 259.73 266.74 257.62 266.52 C 258.25 263.95 260.84 263.15 262.90 262.07 C 267.03 264.13 271.88 264.14 276.30 263.11 C 278.53 262.80 278.50 260.17 279.16 258.55 C 279.51 257.35 279.84 256.15 280.14 254.94 Z" />
<path fill="#be0a05" d=" M 245.36 262.47 C 249.40 261.65 251.62 255.96 256.16 257.82 C 258.25 259.46 260.49 260.92 262.90 262.07 C 256.09 261.06 250.88 266.07 244.72 267.81 C 238.08 270.03 230.89 269.98 224.39 272.70 C 223.63 272.53 222.88 272.36 222.12 272.20 C 222.26 273.20 222.42 274.20 222.59 275.20 C 220.50 273.22 218.17 271.54 215.93 269.75 C 215.83 269.47 215.62 268.91 215.52 268.62 C 215.96 268.13 216.83 267.14 217.26 266.64 C 226.84 269.15 236.26 264.99 245.36 262.47 Z" />
<path fill="#a10703" d=" M 244.72 267.81 C 250.88 266.07 256.09 261.06 262.90 262.07 C 260.84 263.15 258.25 263.95 257.62 266.52 C 259.73 266.74 262.49 266.20 263.23 268.86 C 258.08 270.49 252.80 273.79 251.31 279.33 C 245.03 279.05 238.62 279.90 232.46 278.37 C 229.18 277.49 226.63 275.14 224.39 272.70 C 230.89 269.98 238.08 270.03 244.72 267.81 Z" />
<path fill="#6a6a6a" d=" M 205.63 277.77 C 208.88 273.84 211.54 269.47 214.00 265.01 C 214.38 265.91 215.14 267.72 215.52 268.62 C 215.62 268.91 215.83 269.47 215.93 269.75 C 213.95 273.79 211.52 277.63 210.13 281.94 C 213.80 280.45 215.84 276.85 218.86 274.46 C 219.54 275.21 220.22 275.96 220.90 276.72 C 219.85 276.75 218.82 276.80 217.78 276.87 C 214.31 281.30 211.36 286.17 207.17 290.00 L 205.04 290.00 C 206.08 286.56 207.11 283.09 207.52 279.51 C 205.50 279.16 204.04 280.85 202.41 281.72 C 202.16 281.13 201.66 279.94 201.41 279.35 C 202.45 277.82 203.48 276.28 204.55 274.76 C 204.91 275.76 205.26 276.76 205.63 277.77 Z" />
<path fill="#880502" d=" M 251.31 279.33 C 252.80 273.79 258.08 270.49 263.23 268.86 C 267.93 269.62 272.72 269.22 277.46 269.32 C 275.21 271.22 272.87 273.01 270.56 274.83 C 264.37 272.95 260.12 279.50 254.14 279.30 C 253.44 279.30 252.02 279.32 251.31 279.33 Z" />
<path fill="#efefee" d=" M 284.32 268.73 C 286.20 270.60 288.32 272.53 288.80 275.29 C 290.05 280.66 287.04 285.84 283.95 290.00 L 275.60 290.00 C 278.20 288.15 281.04 286.07 281.98 282.86 C 283.05 279.26 282.39 275.47 282.01 271.83 C 282.81 270.82 283.57 269.78 284.32 268.73 Z" />
<path fill="#959595" d=" M 257.02 284.37 C 266.67 282.80 275.77 277.67 281.63 269.76 C 281.52 270.54 281.28 272.10 281.16 272.88 C 280.08 274.25 278.96 275.58 277.79 276.87 C 277.66 276.99 277.41 277.23 277.28 277.34 C 276.02 278.23 274.74 279.09 273.45 279.95 C 269.12 282.15 265.03 285.16 260.09 285.81 C 254.76 286.65 249.42 288.34 243.98 287.41 C 236.56 286.15 227.57 286.15 222.95 279.12 C 223.99 279.27 225.04 279.42 226.09 279.59 C 235.20 285.74 246.58 284.82 257.02 284.37 Z" />
<path fill="#902e29" d=" M 222.12 272.20 C 222.88 272.36 223.63 272.53 224.39 272.70 C 226.63 275.14 229.18 277.49 232.46 278.37 C 238.62 279.90 245.03 279.05 251.31 279.33 C 252.02 279.32 253.44 279.30 254.14 279.30 C 260.12 279.50 264.37 272.95 270.56 274.83 C 266.84 277.80 262.36 279.64 257.88 281.12 C 252.30 282.06 246.60 281.44 240.97 281.64 C 236.33 281.90 232.08 279.87 227.82 278.33 C 225.90 277.62 224.03 276.69 222.59 275.20 C 222.42 274.20 222.26 273.20 222.12 272.20 Z" />
<path fill="#e2e2e1" d=" M 281.16 272.88 L 282.01 271.83 C 282.39 275.47 283.05 279.26 281.98 282.86 C 281.04 286.07 278.20 288.15 275.60 290.00 L 268.52 290.00 C 271.25 288.35 274.06 286.67 276.21 284.27 C 277.90 282.37 277.27 279.64 277.28 277.34 C 277.41 277.23 277.66 276.99 277.79 276.87 C 278.96 275.58 280.08 274.25 281.16 272.88 Z" />
<path fill="#bcbcbc" d=" M 217.78 276.87 C 218.82 276.80 219.85 276.75 220.90 276.72 C 221.58 277.51 222.27 278.31 222.95 279.12 C 227.57 286.15 236.56 286.15 243.98 287.41 C 249.42 288.34 254.76 286.65 260.09 285.81 C 265.03 285.16 269.12 282.15 273.45 279.95 C 271.78 282.37 270.48 285.30 267.75 286.74 C 264.91 288.34 261.73 289.23 258.57 290.00 L 235.38 290.00 C 231.68 289.24 227.89 288.38 224.63 286.39 C 222.67 285.42 222.70 283.02 222.01 281.23 C 221.45 279.16 219.25 278.21 217.78 276.87 Z" />
<path fill="#cececd" d=" M 207.17 290.00 C 211.36 286.17 214.31 281.30 217.78 276.87 C 219.25 278.21 221.45 279.16 222.01 281.23 C 222.70 283.02 222.67 285.42 224.63 286.39 C 227.89 288.38 231.68 289.24 235.38 290.00 L 207.17 290.00 Z" />
<path fill="#cdcdcc" d=" M 273.45 279.95 C 274.74 279.09 276.02 278.23 277.28 277.34 C 277.27 279.64 277.90 282.37 276.21 284.27 C 274.06 286.67 271.25 288.35 268.52 290.00 L 258.57 290.00 C 261.73 289.23 264.91 288.34 267.75 286.74 C 270.48 285.30 271.78 282.37 273.45 279.95 Z" />
<path fill="#a1a1a1" d=" M 198.93 282.58 C 199.75 281.50 200.60 280.44 201.41 279.35 C 201.66 279.94 202.16 281.13 202.41 281.72 C 204.04 280.85 205.50 279.16 207.52 279.51 C 207.11 283.09 206.08 286.56 205.04 290.00 L 203.98 290.00 C 203.72 287.70 203.59 285.39 203.44 283.08 C 202.56 283.87 201.68 284.66 200.80 285.45 C 200.34 284.74 199.40 283.30 198.93 282.58 Z" />
<path fill="#cbcbca" d=" M 194.54 290.00 C 195.92 287.48 197.19 284.89 198.93 282.58 C 199.40 283.30 200.34 284.74 200.80 285.45 C 201.68 284.66 202.56 283.87 203.44 283.08 C 203.59 285.39 203.72 287.70 203.98 290.00 L 194.54 290.00 Z" />
</svg>
