<?xml version="1.0" encoding="UTF-8" standalone="no"?>
<!-- Created with Inkscape (http://www.inkscape.org/) -->

<svg
   xmlns:dc="http://purl.org/dc/elements/1.1/"
   xmlns:cc="http://creativecommons.org/ns#"
   xmlns:rdf="http://www.w3.org/1999/02/22-rdf-syntax-ns#"
   xmlns:svg="http://www.w3.org/2000/svg"
   xmlns="http://www.w3.org/2000/svg"
   xmlns:sodipodi="http://sodipodi.sourceforge.net/DTD/sodipodi-0.dtd"
   xmlns:inkscape="http://www.inkscape.org/namespaces/inkscape"
   width="95mm"
   height="95mm"
   viewBox="0 0 336.61417 336.61418"
   id="svg2"
   version="1.1"
   inkscape:version="0.91 r13725"
   sodipodi:docname="ReplaySink2.svg">
  <defs
     id="defs4">
    <clipPath
       clipPathUnits="userSpaceOnUse"
       id="clipPath3509">
      <rect
         style="fill:#0000ff;fill-rule:evenodd;stroke:#000000;stroke-width:0.80000001px;stroke-linecap:butt;stroke-linejoin:miter;stroke-opacity:1"
         id="rect3511"
         width="356.57144"
         height="278.85715"
         x="267.42856"
         y="291.42859" />
    </clipPath>
    <clipPath
       clipPathUnits="userSpaceOnUse"
       id="clipPath3517">
      <rect
         style="fill:#0000ff;fill-rule:evenodd;stroke:#000000;stroke-width:0.80000001px;stroke-linecap:butt;stroke-linejoin:miter;stroke-opacity:1"
         id="rect3519"
         width="277.14285"
         height="270.28571"
         x="288"
         y="290.28574" />
    </clipPath>
    <clipPath
       clipPathUnits="userSpaceOnUse"
       id="clipPath3533">
      <rect
         style="fill:#0000ff;fill-rule:evenodd;stroke:#000000;stroke-width:0.80000001px;stroke-linecap:butt;stroke-linejoin:miter;stroke-opacity:1"
         id="rect3535"
         width="272.57144"
         height="262.28571"
         x="286.85715"
         y="292.57144" />
    </clipPath>
    <clipPath
       clipPathUnits="userSpaceOnUse"
       id="clipPath3539">
      <rect
         style="fill:#0000ff;fill-rule:evenodd;stroke:#000000;stroke-width:0.80000001px;stroke-linecap:butt;stroke-linejoin:miter;stroke-opacity:1"
         id="rect3541"
         width="260"
         height="255.42856"
         x="297.14285"
         y="300" />
    </clipPath>
    <clipPath
       clipPathUnits="userSpaceOnUse"
       id="clipPath3628">
      <rect
         style="fill:#0000ff;fill-rule:evenodd;stroke:#000000;stroke-width:1px;stroke-linecap:butt;stroke-linejoin:miter;stroke-opacity:1"
         id="rect3630"
         width="366.42856"
         height="381.42856"
         x="200.71428"
         y="152.3622" />
    </clipPath>
    <clipPath
       clipPathUnits="userSpaceOnUse"
       id="clipPath3634">
      <rect
         style="fill:#0000ff;fill-rule:evenodd;stroke:#000000;stroke-width:1px;stroke-linecap:butt;stroke-linejoin:miter;stroke-opacity:1"
         id="rect3636"
         width="367.85715"
         height="370.71429"
         x="190.71428"
         y="168.07649" />
    </clipPath>
  </defs>
  <sodipodi:namedview
     id="base"
     pagecolor="#ffffff"
     bordercolor="#666666"
     borderopacity="1.0"
     inkscape:pageopacity="0.0"
     inkscape:pageshadow="2"
     inkscape:zoom="1.4"
     inkscape:cx="412.12417"
     inkscape:cy="184.8802"
     inkscape:document-units="px"
     inkscape:current-layer="layer1"
     showgrid="false"
     inkscape:window-width="1600"
     inkscape:window-height="1178"
     inkscape:window-x="1592"
     inkscape:window-y="-8"
     inkscape:window-maximized="1"
     inkscape:snap-bbox="true" />
  <metadata
     id="metadata7">
    <rdf:RDF>
      <cc:Work
         rdf:about="">
        <dc:format>image/svg+xml</dc:format>
        <dc:type
           rdf:resource="http://purl.org/dc/dcmitype/StillImage" />
        <dc:title></dc:title>
      </cc:Work>
    </rdf:RDF>
  </metadata>
  <g
     inkscape:label="Layer 1"
     inkscape:groupmode="layer"
     id="layer1"
     transform="translate(0,-715.74803)">
    <g
       id="g3585"
       clip-path="url(#clipPath3634)"
       transform="translate(-206.42856,521.42858)">
      <g
         id="g3543">
        <g
           id="g3418"
           transform="matrix(1.25,0,0,1.25,-157.14286,-174.78066)"
           clip-path="url(#clipPath3539)">
          <path
             id="path3338"
             d="M 0,0 992,0 992,1008 0,1008 0,0 Z"
             inkscape:connector-curvature="0"
             style="fill:#ffffff" />
          <path
             id="path3340"
             d="m 372.98,311.05 c 34.45,-14.95 75.68,-12.98 108.53,5.25 30.1,16.36 52.8,45.74 60.77,79.09 5.82,24.27 4.56,50.55 -4.97,73.71 0,-4.13 -0.05,-8.26 -0.52,-12.36 -3.01,0.72 -4.55,3.55 -6.4,5.75 -6.72,8.3 -13.48,16.58 -20.25,24.85 -0.67,-29.66 -0.09,-59.35 -0.29,-89.01 -11.86,0 -23.72,-0.01 -35.58,0 -0.01,19.76 0.01,39.53 -0.01,59.29 -5.49,0.66 -11.92,0.22 -16.18,4.38 -3.65,3.27 -3.97,8.51 -4.35,13.06 -0.5,13.75 -0.16,27.5 -0.18,41.25 0.03,7.61 -0.07,15.23 0.19,22.84 l 0.56,0.96 c 1.63,0.85 3.29,1.62 4.95,2.44 -2.2,0.68 -4.42,1.29 -6.64,1.88 -35.61,9.38 -75.15,1.57 -104.63,-20.45 -27.51,-20.1 -45.94,-52.1 -49.44,-86.01 -2.91,-25.48 2.65,-51.83 15.31,-74.11 13.21,-23.46 34.34,-42.31 59.13,-52.81 z"
             inkscape:connector-curvature="0"
             style="fill:#1e4b9c" />
          <path
             id="path3342"
             d="m 482.42,344.4 c 4.23,-6.13 14.16,-6.5 18.77,-0.64 5.64,6.1 2.14,17.34 -6.06,19.01 -2.62,1.42 -6,-1.21 -8.16,1.17 -14.17,12.55 -28.26,25.21 -42.42,37.77 0.05,2.81 0.15,5.82 -1.44,8.29 -3.38,6.73 -13.64,8.02 -18.79,2.68 -1.82,-1.57 -2.44,-4.01 -3.93,-5.81 -12.82,-3.9 -25.67,-7.76 -38.55,-11.41 -3.86,2.44 -8.51,3.98 -13,2.25 -14.1,12.45 -28.2,24.91 -42.16,37.53 0.5,6.66 -4.8,13.25 -11.68,13.2 -7.86,0.63 -14.56,-7.98 -11.77,-15.42 1.89,-6.6 9.86,-9.96 16.1,-7.43 14.04,-12.4 28.06,-24.84 41.96,-37.4 0.13,-2.51 0.17,-5.15 1.53,-7.36 2.95,-5.48 10.6,-7.81 16.03,-4.66 3.21,1.45 4.8,4.7 6.42,7.61 12.86,4.22 25.99,7.73 38.94,11.75 3.54,-2.77 8.06,-3.57 12.45,-2.81 14.39,-12.98 29.07,-25.66 43.33,-38.76 0.45,-3.26 0.04,-6.92 2.43,-9.56 z"
             inkscape:connector-curvature="0"
             style="fill:#fdfefe" />
          <path
             id="path3344"
             d="m 474.27,398.33 c 11.86,-0.01 23.72,0 35.58,0 0.2,29.66 -0.38,59.35 0.29,89.01 -1.4,1.74 -2.79,3.48 -4.23,5.19 -10.61,-0.04 -21.22,0.05 -31.83,-0.05 0.27,-5.36 0.03,-10.72 0.1,-16.07 0.08,-0.41 0.23,-1.23 0.31,-1.64 9.57,-1.13 19.2,-0.85 28.81,-1.17 0.12,-5.39 0.14,-10.78 0.26,-16.17 -4.65,-1.29 -9.47,-0.07 -14.2,-0.15 -5.04,-0.01 -10.07,0.03 -15.1,0.34 0.02,-19.76 0,-39.53 0.01,-59.29 z"
             inkscape:connector-curvature="0"
             style="fill:#fdfefe" />
          <path
             id="path3346"
             d="m 355.38,492.53 c 0,-23.6 -0.05,-47.2 0.02,-70.8 11.95,0.03 23.9,-0.01 35.85,0.02 0.03,23.58 0,47.16 0.01,70.74 -11.96,0.07 -23.92,0.01 -35.88,0.04 z"
             inkscape:connector-curvature="0"
             style="fill:#fdfefe" />
          <path
             id="path3348"
             d="m 414.8,445.35 c 11.91,-0.07 23.81,-0.05 35.72,-0.05 0.09,15.74 0.06,31.48 0.05,47.22 -11.93,-0.02 -23.85,0.05 -35.77,-0.03 0,-15.71 0.01,-31.43 0,-47.14 z"
             inkscape:connector-curvature="0"
             style="fill:#fdfefe" />
          <path
             id="path3350"
             d="m 458.08,462 c 4.26,-4.16 10.69,-3.72 16.18,-4.38 5.03,-0.31 10.06,-0.35 15.1,-0.34 -4.8,0.96 -9.61,1.88 -14.45,2.61 -4.65,0.62 -9.66,0.7 -13.73,3.33 -3.47,2.39 -4.3,6.88 -4.52,10.81 -0.33,6.86 -0.13,13.74 -0.08,20.62 -0.16,9.79 0.27,19.58 -0.06,29.37 -0.31,-2.59 -0.73,-5.17 -1.05,-7.76 l -1.92,0.05 c 0.02,-13.75 -0.32,-27.5 0.18,-41.25 0.38,-4.55 0.7,-9.79 4.35,-13.06 z"
             inkscape:connector-curvature="0"
             style="fill:#f18f04" />
          <path
             id="path3352"
             d="m 489.36,457.28 c 4.73,0.08 9.55,-1.14 14.2,0.15 -0.12,5.39 -0.14,10.78 -0.26,16.17 -9.61,0.32 -19.24,0.04 -28.81,1.17 -0.08,0.41 -0.23,1.23 -0.31,1.64 -1.83,6.25 -0.44,12.97 -2.83,19.1 -0.03,-1 -0.07,-2.99 -0.1,-3.99 0.18,-5.49 -0.4,-11.05 0.61,-16.48 0.33,-2.48 3.19,-2.66 5.13,-3.1 7.74,-1.05 15.57,-0.64 23.36,-0.77 0.07,-3.67 0.1,-7.33 0.08,-10.98 -8.49,-0.65 -17.02,-0.59 -25.52,-0.3 4.84,-0.73 9.65,-1.65 14.45,-2.61 z"
             inkscape:connector-curvature="0"
             style="fill:#ea8300" />
          <path
             id="path3354"
             d="m 530.39,462.49 c 1.85,-2.2 3.39,-5.03 6.4,-5.75 0.47,4.1 0.52,8.23 0.52,12.36 -0.1,10.82 0.3,21.65 0.2,32.47 -0.76,-0.06 -2.29,-0.19 -3.05,-0.26 -0.03,-0.81 -0.1,-2.45 -0.14,-3.27 0.18,-6.34 0.01,-12.67 0.07,-19.01 -0.04,-4.9 0.54,-9.93 -1.07,-14.65 -4.87,4.82 -8.9,10.39 -13.3,15.62 -4.34,5.45 -8.96,10.67 -13.21,16.2 4.33,0.07 8.67,0.05 13.01,0.02 0.53,7.29 0.67,14.64 0.15,21.94 -0.08,0.49 -0.23,1.45 -0.31,1.94 0.08,-4.17 -0.31,-8.33 -1.08,-12.42 -0.78,4.04 -1.06,8.14 -1.57,12.22 0.42,-5.28 0.18,-10.58 -0.09,-15.86 -0.08,-1.63 -0.14,-3.24 -0.18,-4.85 -4.68,-0.07 -9.36,0.22 -14.03,-0.14 -1.28,-2.73 1.97,-4.48 3.2,-6.52 1.44,-1.71 2.83,-3.45 4.23,-5.19 6.77,-8.27 13.53,-16.55 20.25,-24.85 z"
             inkscape:connector-curvature="0"
             style="fill:#d15f00" />
          <path
             id="path3356"
             d="m 461.18,463.22 c 4.07,-2.63 9.08,-2.71 13.73,-3.33 8.5,-0.29 17.03,-0.35 25.52,0.3 0.02,3.65 -0.01,7.31 -0.08,10.98 -7.79,0.13 -15.62,-0.28 -23.36,0.77 -1.94,0.44 -4.8,0.62 -5.13,3.1 -1.01,5.43 -0.43,10.99 -0.61,16.48 -0.59,1.43 -1.22,2.85 -1.84,4.26 -0.24,-1.54 -0.46,-3.07 -0.66,-4.61 0.5,-6.84 -0.98,-13.86 1.26,-20.51 0.49,-0.14 1.47,-0.42 1.97,-0.56 3.31,-0.96 6.75,-1.47 10.19,-1.72 1.82,-0.04 3.64,-0.09 5.47,-0.12 3.25,-0.06 6.51,-0.04 9.77,-0.04 0.01,-1.8 0.02,-3.59 0.04,-5.38 -3.28,-0.04 -6.56,-0.1 -9.84,-0.13 -3.39,-0.03 -6.78,0.01 -10.16,0.19 -3.1,0.2 -6.18,0.47 -9.26,0.86 -3.57,0.55 -6.92,2.67 -7.84,6.36 -0.4,1.96 -0.67,3.95 -0.84,5.95 -0.07,1.47 -0.1,2.95 -0.09,4.44 0.02,6.47 -0.21,12.93 0.02,19.4 -0.92,-1.78 -1.94,-3.5 -2.86,-5.26 -0.05,-6.88 -0.25,-13.76 0.08,-20.62 0.22,-3.93 1.05,-8.42 4.52,-10.81 z"
             inkscape:connector-curvature="0"
             style="fill:#fdeed7" />
          <path
             id="path3358"
             d="m 468.19,463.76 c 3.08,-0.39 6.16,-0.66 9.26,-0.86 0.25,1.53 0.52,3.06 0.78,4.6 1.3,0.31 2.62,0.6 3.94,0.88 -3.44,0.25 -6.88,0.76 -10.19,1.72 -1,-2.27 -2.21,-4.43 -3.79,-6.34 z"
             inkscape:connector-curvature="0"
             style="fill:#fcd89a" />
          <path
             id="path3360"
             d="m 477.45,462.9 c 3.38,-0.18 6.77,-0.22 10.16,-0.19 0,1.85 0.01,3.7 0.03,5.55 -1.83,0.03 -3.65,0.08 -5.47,0.12 -1.32,-0.28 -2.64,-0.57 -3.94,-0.88 -0.26,-1.54 -0.53,-3.07 -0.78,-4.6 z"
             inkscape:connector-curvature="0"
             style="fill:#f9cb83" />
          <path
             id="path3362"
             d="m 487.61,462.71 c 3.28,0.03 6.56,0.09 9.84,0.13 -0.02,1.79 -0.03,3.58 -0.04,5.38 -3.26,0 -6.52,-0.02 -9.77,0.04 -0.02,-1.85 -0.03,-3.7 -0.03,-5.55 z"
             inkscape:connector-curvature="0"
             style="fill:#f7bb68" />
          <path
             id="path3364"
             d="m 460.35,470.12 c 0.92,-3.69 4.27,-5.81 7.84,-6.36 1.58,1.91 2.79,4.07 3.79,6.34 -0.5,0.14 -1.48,0.42 -1.97,0.56 -3.2,1.03 -6.54,0.41 -9.66,-0.54 z"
             inkscape:connector-curvature="0"
             style="fill:#fee5b0" />
          <path
             id="path3366"
             d="m 533.32,464.38 c 1.61,4.72 1.03,9.75 1.07,14.65 -0.06,6.34 0.11,12.67 -0.07,19.01 -1.46,2.75 -1.94,5.83 -1.81,8.93 -0.02,-3.24 -0.47,-6.45 -1.02,-9.63 -0.12,-3.88 -0.12,-7.77 -0.13,-11.65 -0.01,-4.84 -0.03,-9.68 -0.09,-14.52 -6,7.19 -11.92,14.45 -17.86,21.68 -0.15,0.2 -0.47,0.59 -0.62,0.78 3.05,0.17 6.12,0.33 9.18,0.49 0.02,8.03 0.26,16.26 -2,24.04 0.52,-7.3 0.38,-14.65 -0.15,-21.94 -4.34,0.03 -8.68,0.05 -13.01,-0.02 4.25,-5.53 8.87,-10.75 13.21,-16.2 4.4,-5.23 8.43,-10.8 13.3,-15.62 z"
             inkscape:connector-curvature="0"
             style="fill:#fad8c1" />
          <path
             id="path3368"
             d="m 459.51,476.07 c 0.17,-2 0.44,-3.99 0.84,-5.95 3.12,0.95 6.46,1.57 9.66,0.54 -2.24,6.65 -0.76,13.67 -1.26,20.51 l -0.5,1.48 c -0.31,-3.64 -0.5,-7.29 -0.43,-10.95 0.01,-1.62 0.03,-3.24 0.07,-4.85 -2.8,-0.28 -5.59,-0.54 -8.38,-0.78 z"
             inkscape:connector-curvature="0"
             style="fill:#fbd590" />
          <path
             id="path3370"
             d="m 513.41,492.85 c 5.94,-7.23 11.86,-14.49 17.86,-21.68 0.06,4.84 0.08,9.68 0.09,14.52 -3.18,1.64 -6.28,3.42 -9.25,5.4 0.17,0.67 0.34,1.35 0.5,2.05 -3.07,-0.01 -6.14,-0.08 -9.2,-0.29 z"
             inkscape:connector-curvature="0"
             style="fill:#f08337" />
          <path
             id="path3372"
             d="m 459.51,476.07 c 2.79,0.24 5.58,0.5 8.38,0.78 -0.04,1.61 -0.06,3.23 -0.07,4.85 -2.85,-0.06 -5.67,-0.41 -8.4,-1.19 -0.01,-1.49 0.02,-2.97 0.09,-4.44 z"
             inkscape:connector-curvature="0"
             style="fill:#f8c069" />
          <path
             id="path3374"
             d="m 471.35,495.51 c 2.39,-6.13 1,-12.85 2.83,-19.1 -0.07,5.35 0.17,10.71 -0.1,16.07 -0.1,1.76 -0.21,3.52 -0.3,5.29 5.13,0.24 10.36,-0.48 15.39,0.84 -2.99,5 -7.19,9.1 -10.66,13.75 -1.34,0.04 -2.66,0.1 -3.99,0.16 3.17,-3.87 6.46,-7.64 9.48,-11.63 -4.31,-0.07 -8.61,-0.09 -12.91,-0.1 0.07,-1.77 0.15,-3.53 0.26,-5.28 z"
             inkscape:connector-curvature="0"
             style="fill:#da6d00" />
          <path
             id="path3376"
             d="m 459.42,480.51 c 2.73,0.78 5.55,1.13 8.4,1.19 -0.07,3.66 0.12,7.31 0.43,10.95 -0.1,3.72 -0.05,7.44 -0.11,11.17 l -0.62,0 c 0.01,-2.63 0.01,-5.25 -0.01,-7.87 -2.77,1.32 -5.46,2.82 -8.04,4.49 l -0.03,-0.53 c -0.23,-6.47 0,-12.93 -0.02,-19.4 z"
             inkscape:connector-curvature="0"
             style="fill:#f39a30" />
          <path
             id="path3378"
             d="m 522.11,491.09 c 2.97,-1.98 6.07,-3.76 9.25,-5.4 0.01,3.88 0.01,7.77 0.13,11.65 l 0,0.82 c -2.8,1.22 -5.42,2.81 -7.75,4.78 0.08,4.1 -0.12,8.2 -0.6,12.27 -0.57,-7.35 0.24,-14.74 -0.53,-22.07 -0.16,-0.7 -0.33,-1.38 -0.5,-2.05 z"
             inkscape:connector-curvature="0"
             style="fill:#ee7529" />
          <path
             id="path3380"
             d="m 468.25,492.65 0.5,-1.48 c 0.2,1.54 0.42,3.07 0.66,4.61 0.62,-1.41 1.25,-2.83 1.84,-4.26 0.03,1 0.07,2.99 0.1,3.99 -0.11,1.75 -0.19,3.51 -0.26,5.28 4.3,0.01 8.6,0.03 12.91,0.1 -3.02,3.99 -6.31,7.76 -9.48,11.63 -3.01,3.69 -6.09,7.33 -9.02,11.09 -2.9,3.69 -5.94,7.27 -8.92,10.9 -0.03,-3.5 -0.03,-6.99 -0.06,-10.49 0.33,-9.79 -0.1,-19.58 0.06,-29.37 0.92,1.76 1.94,3.48 2.86,5.26 l 0.03,0.53 c 0.26,8.55 -0.03,17.1 0.14,25.65 6.11,-7.36 12.1,-14.83 18.15,-22.25 -3.21,-0.03 -6.42,-0.03 -9.62,-0.02 0.06,-3.73 0.01,-7.45 0.11,-11.17 z"
             inkscape:connector-curvature="0"
             style="fill:#f9ccb2" />
          <path
             id="path3382"
             d="m 512.79,493.63 c 0.15,-0.19 0.47,-0.58 0.62,-0.78 3.06,0.21 6.13,0.28 9.2,0.29 0.77,7.33 -0.04,14.72 0.53,22.07 -0.13,1.55 -0.3,3.09 -0.46,4.65 0.01,3.25 -1.48,6.82 -4.98,7.56 -7.88,1.89 -16.08,1.1 -24.12,1.42 -0.04,1.76 -0.06,3.53 -0.08,5.3 9.93,-0.08 19.96,0.8 29.79,-0.97 2.89,-0.45 5.91,-1.92 6.93,-4.87 1.5,-4.62 1.15,-9.58 1.27,-14.38 0.01,-5.26 -0.11,-10.51 0,-15.76 l 0,-0.82 c 0.55,3.18 1,6.39 1.02,9.63 -0.13,-3.1 0.35,-6.18 1.81,-8.93 0.04,0.82 0.11,2.46 0.14,3.27 0.06,8.23 0.5,16.52 -0.59,24.69 -0.49,4.42 -3.45,8.7 -8,9.61 -11.53,2.72 -23.48,1.17 -35.2,1.65 -0.11,-2.31 -0.2,-4.61 -0.26,-6.9 0.03,-1.47 0.08,-2.92 0.14,-4.37 8.66,-0.59 17.48,0.43 26.03,-1.36 2.26,-0.3 3.02,-2.54 3.08,-4.53 0.08,-0.49 0.23,-1.45 0.31,-1.94 2.26,-7.78 2.02,-16.01 2,-24.04 -3.06,-0.16 -6.13,-0.32 -9.18,-0.49 z"
             inkscape:connector-curvature="0"
             style="fill:#f8c5b2" />
          <path
             id="path3384"
             d="m 474.08,492.48 c 10.61,0.1 21.22,0.01 31.83,0.05 -1.23,2.04 -4.48,3.79 -3.2,6.52 4.67,0.36 9.35,0.07 14.03,0.14 0.04,1.61 0.1,3.22 0.18,4.85 -0.29,0.32 -0.87,0.96 -1.16,1.28 -3.24,3.6 -6.48,7.21 -10.11,10.42 -3.42,-2.39 -7.81,-1.31 -11.7,-1.5 -5.97,-0.12 -11.83,1.71 -17.81,1.13 0.79,-1.01 1.58,-2.01 2.37,-3.01 3.47,-4.65 7.67,-8.75 10.66,-13.75 -5.03,-1.32 -10.26,-0.6 -15.39,-0.84 0.09,-1.77 0.2,-3.53 0.3,-5.29 z"
             inkscape:connector-curvature="0"
             style="fill:#1e4b9c" />
          <path
             id="path3386"
             d="m 459.47,500.44 c 2.58,-1.67 5.27,-3.17 8.04,-4.49 0.02,2.62 0.02,5.24 0.01,7.87 l 0.62,0 c 3.2,-0.01 6.41,-0.01 9.62,0.02 -6.05,7.42 -12.04,14.89 -18.15,22.25 -0.17,-8.55 0.12,-17.1 -0.14,-25.65 z"
             inkscape:connector-curvature="0"
             style="fill:#eb5f00" />
          <path
             id="path3388"
             d="m 523.74,502.94 c 2.33,-1.97 4.95,-3.56 7.75,-4.78 -0.11,5.25 0.01,10.5 0,15.76 -3.2,1.56 -6.3,3.39 -8.81,5.94 0.16,-1.56 0.33,-3.1 0.46,-4.65 0.48,-4.07 0.68,-8.17 0.6,-12.27 z"
             inkscape:connector-curvature="0"
             style="fill:#ea4e00" />
          <path
             id="path3390"
             d="m 534.46,501.31 c 0.76,0.07 2.29,0.2 3.05,0.26 -0.13,6.71 -0.05,13.44 -0.51,20.14 -0.44,3.69 -0.26,7.69 -2.26,10.98 -1.57,2.72 -4.35,4.45 -7.22,5.52 -5.26,0.93 -10.6,1.23 -15.93,1.42 -8.06,-0.21 -16.15,1.23 -24.18,0.15 0.01,-3.36 0.05,-6.73 0.05,-10.09 l -0.01,-0.62 c 0.74,0.32 2.22,0.97 2.96,1.29 0.06,2.29 0.15,4.59 0.26,6.9 11.72,-0.48 23.67,1.07 35.2,-1.65 4.55,-0.91 7.51,-5.19 8,-9.61 1.09,-8.17 0.65,-16.46 0.59,-24.69 z"
             inkscape:connector-curvature="0"
             style="fill:#aa2900" />
          <path
             id="path3392"
             d="m 515.76,505.32 c 0.29,-0.32 0.87,-0.96 1.16,-1.28 0.27,5.28 0.51,10.58 0.09,15.86 -0.21,0.55 -0.62,1.65 -0.83,2.2 -6.38,0.98 -12.86,1.12 -19.3,1.11 2.52,-2.06 5.03,-4.14 7.47,-6.31 3.77,1.07 7.59,1.95 11.43,2.68 0.81,-4.72 0.74,-9.53 -0.02,-14.26 z"
             inkscape:connector-curvature="0"
             style="fill:#e2e3e3" />
          <path
             id="path3394"
             d="m 505.65,515.74 c 3.63,-3.21 6.87,-6.82 10.11,-10.42 0.76,4.73 0.83,9.54 0.02,14.26 -3.84,-0.73 -7.66,-1.61 -11.43,-2.68 l 1.3,-1.16 z"
             inkscape:connector-curvature="0"
             style="fill:#f7f8f8" />
          <path
             id="path3396"
             d="m 518.58,507.68 c 0.77,4.09 1.16,8.25 1.08,12.42 -0.06,1.99 -0.82,4.23 -3.08,4.53 -8.55,1.79 -17.37,0.77 -26.03,1.36 -0.06,1.45 -0.11,2.9 -0.14,4.37 -0.74,-0.32 -2.22,-0.97 -2.96,-1.29 0.05,-1.92 -0.17,-3.94 0.55,-5.75 2.95,-0.31 5.92,-0.14 8.88,-0.11 6.44,0.01 12.92,-0.13 19.3,-1.11 0.21,-0.55 0.62,-1.65 0.83,-2.2 0.51,-4.08 0.79,-8.18 1.57,-12.22 z"
             inkscape:connector-curvature="0"
             style="fill:#b83c00" />
          <path
             id="path3398"
             d="m 474.52,512.52 c 1.33,-0.06 2.65,-0.12 3.99,-0.16 -0.79,1 -1.58,2 -2.37,3.01 -2.23,2.72 -4.49,5.42 -6.71,8.15 -1.31,0.02 -2.62,0.05 -3.93,0.09 2.93,-3.76 6.01,-7.4 9.02,-11.09 z"
             inkscape:connector-curvature="0"
             style="fill:#bc5415" />
          <path
             id="path3400"
             d="m 476.14,515.37 c 5.98,0.58 11.84,-1.25 17.81,-1.13 3.89,0.19 8.28,-0.89 11.7,1.5 l -1.3,1.16 c -2.44,2.17 -4.95,4.25 -7.47,6.31 -2.96,-0.03 -5.93,-0.2 -8.88,0.11 -0.72,1.81 -0.5,3.83 -0.55,5.75 l 0.01,0.62 c -4.76,2.84 -9.65,5.47 -14.72,7.72 -2.46,1.09 -4.95,2.11 -7.46,3.08 -1.99,0.74 -4.01,1.42 -6.03,2.06 -1.66,-0.82 -3.32,-1.59 -4.95,-2.44 1.34,-0.43 2.64,-1.07 3.47,-2.24 3.88,-4.79 7.75,-9.59 11.66,-14.35 2.22,-2.73 4.48,-5.43 6.71,-8.15 z"
             inkscape:connector-curvature="0"
             style="fill:#1a4289" />
          <path
             id="path3402"
             d="m 522.68,519.86 c 2.51,-2.55 5.61,-4.38 8.81,-5.94 -0.12,4.8 0.23,9.76 -1.27,14.38 -1.02,2.95 -4.04,4.42 -6.93,4.87 -9.83,1.77 -19.86,0.89 -29.79,0.97 0.02,-1.77 0.04,-3.54 0.08,-5.3 8.04,-0.32 16.24,0.47 24.12,-1.42 3.5,-0.74 4.99,-4.31 4.98,-7.56 z"
             inkscape:connector-curvature="0"
             style="fill:#e83d00" />
          <path
             id="path3404"
             d="m 453.55,516.31 1.92,-0.05 c 0.32,2.59 0.74,5.17 1.05,7.76 0.03,3.5 0.03,6.99 0.06,10.49 2.98,-3.63 6.02,-7.21 8.92,-10.9 1.31,-0.04 2.62,-0.07 3.93,-0.09 -3.91,4.76 -7.78,9.56 -11.66,14.35 -0.83,1.17 -2.13,1.81 -3.47,2.24 l -0.56,-0.96 c -0.26,-7.61 -0.16,-15.23 -0.19,-22.84 z"
             inkscape:connector-curvature="0"
             style="fill:#ad2d00" />
          <path
             id="path3406"
             d="m 534.74,532.69 c 2,-3.29 1.82,-7.29 2.26,-10.98 3.08,3.28 7.35,6.37 7.66,11.27 1.06,5.87 -4.02,10.35 -8.31,13.41 -11.8,5.89 -25.14,8.65 -38.31,8.35 -6.98,-0.1 -14.04,0.34 -20.89,-1.24 -8.51,-1.82 -17.55,-3.51 -24.54,-9.07 2.22,-0.59 4.44,-1.2 6.64,-1.88 2.02,-0.64 4.04,-1.32 6.03,-2.06 2.87,2.06 5.86,4.05 9.24,5.21 15.05,5.12 31.98,4.72 46.63,-1.54 2.84,-1.07 4.7,-3.55 6.37,-5.95 2.87,-1.07 5.65,-2.8 7.22,-5.52 z"
             inkscape:connector-curvature="0"
             style="fill:#f0f0f0" />
          <path
             id="path3408"
             d="m 472.74,537.41 c 5.07,-2.25 9.96,-4.88 14.72,-7.72 0,3.36 -0.04,6.73 -0.05,10.09 8.03,1.08 16.12,-0.36 24.18,-0.15 -3.81,3.89 -9.51,4.13 -14.59,4.55 -8.62,0.5 -16.76,-2.91 -24.26,-6.77 z"
             inkscape:connector-curvature="0"
             style="fill:#cbcccc" />
          <path
             id="path3410"
             d="m 465.28,540.49 c 2.51,-0.97 5,-1.99 7.46,-3.08 7.5,3.86 15.64,7.27 24.26,6.77 5.08,-0.42 10.78,-0.66 14.59,-4.55 5.33,-0.19 10.67,-0.49 15.93,-1.42 -1.67,2.4 -3.53,4.88 -6.37,5.95 -14.65,6.26 -31.58,6.66 -46.63,1.54 -3.38,-1.16 -6.37,-3.15 -9.24,-5.21 z"
             inkscape:connector-curvature="0"
             style="fill:#dbdcdc" />
        </g>
      </g>
    </g>
  </g>
</svg>
